<?xml version="1.0" standalone="no"?>
<!DOCTYPE svg PUBLIC "-//W3C//DTD SVG 1.1//EN" "http://www.w3.org/Graphics/SVG/1.1/DTD/svg11.dtd" >
<svg xmlns="http://www.w3.org/2000/svg" xmlns:xlink="http://www.w3.org/1999/xlink" version="1.1">
<metadata>
Created by FontForge 20230101 at Fri Mar 18 00:27:48 2016
 By Unknown
Copyright (c) 2016 Monotype Imaging Inc. All rights reserved.
</metadata>
<defs>
<font id="Johnston100W03-Medium" horiz-adv-x="536" >
  <font-face 
    font-family="Johnston100W03-Medium"
    font-weight="500"
    font-stretch="normal"
    units-per-em="1000"
    panose-1="2 11 6 3 3 3 4 2 2 4"
    ascent="800"
    descent="-200"
    x-height="484"
    cap-height="667"
    bbox="-377 -250 1911 883"
    underline-thickness="50"
    underline-position="-125"
    unicode-range="U+000D-FEFF"
  />
<missing-glyph horiz-adv-x="463" 
d="M463 667v-667h-463v667h463zM354 107v453h-244v-453h244z" />
    <glyph glyph-name="arrowleft" unicode="&#x3c;&#x2d;&#x2d;" horiz-adv-x="2011" 
d="M1843 264l68 -65h-95l-68 65h-40l68 -65h-95l-68 65h-41l68 -65h-94l-68 65h-41l68 -65h-94l-68 65h-883l-20 -22l64 -34l-48 -65l-356 173l356 173l48 -66l-63 -33l19 -22h883l68 65h94l-68 -65h41l68 65h94l-68 -65h41l68 65h95l-68 -65h40l68 65h95l-68 -65h60v-104
h-60z" />
    <glyph glyph-name="arrowright" unicode="&#x2d;&#x2d;&#x3e;" horiz-adv-x="2011" 
d="M1911 316l-356 -173l-49 65l65 34l-20 22h-883l-68 -65h-94l68 65h-41l-68 -65h-95l68 65h-40l-68 -65h-95l68 65h-40l-68 -65h-95l68 65h-60v104h60l-68 65h95l68 -65h40l-68 65h95l68 -65h40l-68 65h95l68 -65h41l-68 65h94l68 -65h883l19 21l-64 34l49 66z" />
    <glyph glyph-name="uniFB01" unicode="fi" horiz-adv-x="648" 
d="M228 560q-20 -23 -20 -65v-11h166v-97h-166v-387h-115v387h-75v97h75v10q0 86 49 136t136 50q47 0 96 -14v-103q-45 20 -88 20q-38 0 -58 -23zM439 595l76 76l76 -76l-76 -77zM457 484h116v-484h-116v484z" />
    <glyph glyph-name="uniFB02" unicode="fl" horiz-adv-x="709" 
d="M228 560q-20 -23 -20 -65v-11h166v-97h-166v-387h-115v387h-75v97h75v10q0 86 49 136t136 50q47 0 96 -14v-103q-45 20 -88 20q-38 0 -58 -23zM492 31.5q-41 42.5 -41 129.5v506h115v-495q0 -81 68 -81q32 0 64 15v-103q-44 -14 -87 -14q-78 0 -119 42.5z" />
    <glyph glyph-name=".notdef" horiz-adv-x="463" 
d="M463 667v-667h-463v667h463zM354 107v453h-244v-453h244z" />
    <glyph glyph-name="glyph1" horiz-adv-x="0" 
 />
    <glyph glyph-name="uni000D" unicode="&#xd;" horiz-adv-x="276" 
 />
    <glyph glyph-name="space" unicode=" " horiz-adv-x="276" 
 />
    <glyph glyph-name="exclam" unicode="!" horiz-adv-x="291" 
d="M90 368q-8 90 -8 175v124h128v-124q0 -85 -8 -175l-15 -191h-82zM69 63l77 77l76 -77l-76 -76z" />
    <glyph glyph-name="quotedbl" unicode="&#x22;" horiz-adv-x="429" 
d="M61 546v121h112v-121l-28 -134h-56zM256 546v121h112v-121l-28 -134h-56z" />
    <glyph glyph-name="numbersign" unicode="#" horiz-adv-x="785" 
d="M586 395l-35 -125h137l-28 -100h-138l-41 -145l-117 -38l52 183h-134l-41 -145l-117 -38l52 183h-138l28 100h138l36 125h-138l28 100h138l42 147l117 38l-53 -185h134l42 147l117 38l-53 -185h138l-28 -100h-138zM480 395h-134l-35 -125h133z" />
    <glyph glyph-name="dollar" unicode="$" horiz-adv-x="524" 
d="M431.5 64.5q-49.5 -55.5 -128.5 -71.5v-71h-100v68q-59 10 -101.5 45.5t-74.5 94.5l96 61q21 -46 53 -69.5t72 -23.5q47 0 77 25.5t30 66.5q0 29 -16.5 49.5t-40.5 35.5t-67 35q-54 26 -88.5 47.5t-58.5 58.5t-24 90q0 63 39 109t104 60v67h100v-67q81 -16 128 -93
l-90 -61q-33 52 -88 52q-32 0 -51 -16.5t-19 -41.5q0 -31 27 -52t86 -50q58 -28 95 -52.5t63.5 -65t26.5 -98.5q0 -77 -49.5 -132.5z" />
    <glyph glyph-name="percent" unicode="%" horiz-adv-x="819" 
d="M126 387q-36 21 -57 57t-21 79t21 79t57 57t79 21t79 -21t57 -57t21 -79t-21 -79t-57 -57t-79 -21t-79 21zM278 -13h-98l364 693h98zM254 474.5q20 20.5 20 48.5q0 29 -20 49t-49 20q-28 0 -48.5 -20t-20.5 -49q0 -28 20.5 -48.5t48.5 -20.5q29 0 49 20.5zM693.5 282
q36.5 -21 57.5 -57t21 -79t-21 -79t-57.5 -57t-79.5 -21t-79 21t-57 57t-21 79t21 79t57 57t79 21t79.5 -21zM566 194.5q-20 -19.5 -20 -48.5t19.5 -49t48.5 -20t49 20t20 49t-20 48.5t-49 19.5q-28 0 -48 -19.5z" />
    <glyph glyph-name="ampersand" unicode="&#x26;" horiz-adv-x="687" 
d="M518 0l-62 68q-97 -81 -200 -81q-62 0 -109.5 24.5t-74 67.5t-26.5 98q0 62 32.5 106.5t104.5 82.5q-42 48 -58.5 79.5t-16.5 68.5q0 48 25.5 86t68 59t92.5 21q51 0 93 -20.5t66.5 -58t24.5 -85.5q0 -58 -32.5 -97.5t-95.5 -74.5l108 -115q41 60 58 115h121
q-34 -107 -104 -195l140 -149h-155zM243 561q-20 -19 -20 -45q0 -20 13 -41t49 -61q39 21 59.5 44.5t20.5 54.5q0 29 -19.5 48t-50.5 19q-32 0 -52 -19zM383 147l-133 145q-48 -28 -66.5 -52.5t-18.5 -57.5q0 -36 27.5 -61t69.5 -25q60 0 121 51z" />
    <glyph glyph-name="quotesingle" unicode="'" horiz-adv-x="234" 
d="M61 546v121h112v-121l-28 -134h-56z" />
    <glyph glyph-name="parenleft" unicode="(" horiz-adv-x="285" 
d="M80.5 104.5q-24.5 102.5 -24.5 227.5q0 120 24 224.5t67 181.5h111q-47 -97 -67 -194.5t-20 -211.5q0 -121 20.5 -216.5t66.5 -190.5h-111q-42 77 -66.5 179.5z" />
    <glyph glyph-name="parenright" unicode=")" horiz-adv-x="285" 
d="M204.5 558.5q24.5 -102.5 24.5 -227.5q0 -120 -24 -224.5t-67 -181.5h-111q47 97 67 194.5t20 211.5q0 121 -20.5 216.5t-66.5 190.5h111q42 -77 66.5 -179.5z" />
    <glyph glyph-name="asterisk" unicode="*" horiz-adv-x="406" 
d="M174 454l-99 -82l-47 79l119 46l-119 52l47 79l99 -80l-18 132h94l-19 -132l99 80l47 -79l-118 -52l118 -46l-47 -79l-99 82l19 -131h-94z" />
    <glyph glyph-name="plus" unicode="+" 
d="M219 285h-159v100h159v154h98v-154h159v-100h-159v-154h-98v154z" />
    <glyph glyph-name="comma" unicode="," horiz-adv-x="257" 
d="M61 -99q38 41 38 78q0 33 -30 63l-24 23l80 81l24 -23q42 -41 42 -86q0 -41 -36 -80t-86 -64z" />
    <glyph glyph-name="hyphen" unicode="-" horiz-adv-x="376" 
d="M31 326h314v-107h-314v107z" />
    <glyph glyph-name="period" unicode="." horiz-adv-x="257" 
d="M45 70l84 84l83 -84l-83 -83z" />
    <glyph glyph-name="slash" unicode="/" horiz-adv-x="342" 
d="M234 738h111l-238 -813h-110z" />
    <glyph glyph-name="zero" unicode="0" horiz-adv-x="593" 
d="M174 29q-52 42 -80.5 120.5t-28.5 183.5q0 106 28.5 184.5t80.5 120.5t122 42q71 0 123 -42t80.5 -120.5t28.5 -184.5t-28.5 -184t-81 -120t-122.5 -42t-122 42zM377.5 155q28.5 62 28.5 178t-28.5 178.5t-81.5 62.5t-81.5 -62.5t-28.5 -178.5q0 -115 28.5 -177.5
t81.5 -62.5t81.5 62z" />
    <glyph glyph-name="one" unicode="1" horiz-adv-x="306" 
d="M93 599l121 81v-680h-121v599z" />
    <glyph glyph-name="two" unicode="2" horiz-adv-x="505" 
d="M273 349q29 45 41 73t12 57q0 40 -26 64.5t-69 24.5t-86.5 -25t-82.5 -71h-2v133q34 35 81 55t99 20q93 0 150 -52.5t57 -139.5q0 -46 -17 -93t-52 -101l-120 -185h204v-109h-412z" />
    <glyph glyph-name="three" unicode="3" horiz-adv-x="519" 
d="M119.5 11q-49.5 24 -92.5 67l71 86q58 -67 135 -67q57 0 92 34t35 85q0 53 -38 88.5t-109 35.5q-36 0 -69 -11l142 230h-237v108h429l-153 -247q68 -15 112 -69t44 -134q0 -59 -28.5 -111.5t-84.5 -85.5t-134 -33q-65 0 -114.5 24z" />
    <glyph glyph-name="four" unicode="4" horiz-adv-x="589" 
d="M357 150h-346l465 530v-437h79v-93h-79v-150h-119v150zM359 241v176l-152 -176h152z" />
    <glyph glyph-name="five" unicode="5" horiz-adv-x="516" 
d="M361 407q50 -28 77.5 -77.5t27.5 -112.5q0 -62 -30 -115t-85 -84t-126 -31q-66 0 -116.5 23.5t-97.5 66.5l68 90q60 -70 143 -70q53 0 87.5 32t34.5 87q0 62 -42 93t-100 31q-28 0 -58.5 -7t-55.5 -18l35 352h349l-47 -108h-198l-13 -126q20 2 30 2q67 0 117 -28z" />
    <glyph glyph-name="six" unicode="6" horiz-adv-x="540" 
d="M410 395.5q47 -28.5 71.5 -76.5t24.5 -106q0 -60 -27.5 -111.5t-79 -83t-120.5 -31.5q-67 0 -118 33t-79 90t-28 127q0 114 59 227.5t161 202.5h162q-162 -136 -223 -259q45 16 86 16q64 0 111 -28.5zM359 130.5q30 31.5 30 80.5q0 52 -30 79t-75 27q-55 0 -108 -30
q-4 -24 -4 -56q0 -55 30.5 -93.5t79.5 -38.5q47 0 77 31.5z" />
    <glyph glyph-name="seven" unicode="7" horiz-adv-x="507" 
d="M316 559h-267v108h441l-297 -667h-131z" />
    <glyph glyph-name="eight" unicode="8" 
d="M151.5 12.5q-50.5 25.5 -79.5 70.5t-29 101q0 114 127 177q-94 50 -94 146q0 48 25.5 87.5t69.5 62.5t98 23q53 0 96.5 -22.5t68 -61t24.5 -85.5q0 -49 -25 -86t-70 -60q63 -30 96 -73t33 -108q0 -56 -30 -101t-82 -70.5t-116 -25.5q-62 0 -112.5 25.5zM328 454
q21 24 21 54q0 31 -23 52t-59 21q-35 0 -58 -21t-23 -52q0 -56 84 -94q37 16 58 40zM342 117.5q30 25.5 30 68.5q0 40 -28.5 68t-78.5 49q-47 -17 -74 -46.5t-27 -70.5t29.5 -67.5t73.5 -26.5q45 0 75 25.5z" />
    <glyph glyph-name="nine" unicode="9" horiz-adv-x="540" 
d="M378.5 647q51.5 -33 79 -90t27.5 -127q0 -114 -59 -227.5t-161 -202.5h-161q161 135 222 259q-45 -16 -85 -16q-64 0 -111.5 28.5t-72 76.5t-24.5 106q0 60 27.5 111.5t79 83t120.5 31.5q67 0 118.5 -33zM363 380q4 24 4 56q0 55 -30.5 93.5t-79.5 38.5q-47 0 -77 -31.5
t-30 -80.5q0 -51 30 -78.5t75 -27.5q55 0 108 30z" />
    <glyph glyph-name="colon" unicode=":" horiz-adv-x="297" 
d="M65 70l84 84l83 -84l-83 -83zM65 422l84 84l83 -84l-83 -83z" />
    <glyph glyph-name="semicolon" unicode=";" horiz-adv-x="297" 
d="M93 -99q38 41 38 78q0 33 -30 63l-24 23l80 81l24 -23q42 -41 42 -86q0 -41 -36 -80t-86 -64zM65 411l84 84l83 -84l-83 -83z" />
    <glyph glyph-name="less" unicode="&#x3c;" 
d="M476 449l-274 -115l274 -114v-117l-416 190v83l416 190v-117z" />
    <glyph glyph-name="equal" unicode="=" 
d="M64 487h416v-99h-416v99zM64 281h416v-99h-416v99z" />
    <glyph glyph-name="greater" unicode="&#x3e;" 
d="M60 219l274 115l-274 114v117l416 -190v-83l-416 -190v117z" />
    <glyph glyph-name="question" unicode="?" horiz-adv-x="452" 
d="M149 236.5q-20 28.5 -20 63.5q0 38 21.5 62t63.5 53q36 23 53.5 41.5t17.5 44.5q0 33 -23 52.5t-59 19.5q-62 0 -110 -66l-77 73q72 100 193 100q55 0 100 -22t71 -61.5t26 -91.5q0 -56 -29 -89.5t-79 -65.5q-28 -18 -40.5 -30t-12.5 -26q0 -11 8 -21.5t29 -30.5l-73 -69
q-40 35 -60 63.5zM130 66l80 80l79 -80l-79 -79z" />
    <glyph glyph-name="at" unicode="@" horiz-adv-x="962" 
d="M716.5 643q91.5 -49 142 -136t50.5 -198q0 -97 -29.5 -165.5t-78.5 -103t-106 -34.5q-80 0 -116 44q-52 -44 -122 -44q-55 0 -99.5 25t-70 74t-25.5 117q0 82 30 144.5t84 96t124 33.5q73 0 123 -34l64 35l-35 -347q-4 -52 51 -52q46 0 76.5 49.5t30.5 161.5
q0 90 -41 155t-110.5 98t-154.5 33q-101 0 -181 -45.5t-125.5 -129.5t-45.5 -195q2 -93 38.5 -165t106 -112.5t167.5 -40.5q106 0 186 52v-111q-84 -35 -184 -35q-119 0 -212 48t-146.5 141t-54.5 222q0 134 56.5 240.5t159.5 167t237 60.5q119 0 210.5 -49zM550 126v11
q0 18 1 26l23 224q-31 20 -72 20q-63 0 -100 -52.5t-37 -132.5q0 -64 29.5 -95.5t73.5 -31.5q47 0 82 31z" />
    <glyph glyph-name="A" unicode="A" horiz-adv-x="680" 
d="M472 144h-269l-52 -144h-133l260 667h115l269 -667h-136zM432 254l-96 257l-93 -257h189z" />
    <glyph glyph-name="B" unicode="B" horiz-adv-x="605" 
d="M524 308.5q36 -46.5 36 -108.5q0 -59 -28 -104.5t-81 -70.5t-124 -25h-238v667h202q63 0 109 -21.5t70 -59.5t24 -85q0 -83 -70 -129q64 -17 100 -63.5zM213 403h67q44 0 68.5 22.5t24.5 59.5t-24.5 59t-68.5 22h-67v-163zM404.5 130q30.5 25 30.5 72q0 46 -30.5 71
t-83.5 25h-108v-193h108q53 0 83.5 25z" />
    <glyph glyph-name="C" unicode="C" horiz-adv-x="682" 
d="M231.5 32q-83.5 45 -131 123.5t-47.5 175.5q0 98 47.5 177.5t130 125.5t184.5 46q58 0 113 -12.5t100 -36.5v-130q-50 33 -100 49.5t-111 16.5q-69 0 -123 -29.5t-84.5 -81.5t-30.5 -119q0 -69 31 -123t86 -84t125 -30q55 0 105 15t102 48v-128q-44 -23 -99.5 -35.5
t-111.5 -12.5q-102 0 -185.5 45z" />
    <glyph glyph-name="D" unicode="D" horiz-adv-x="723" 
d="M89 667h204q110 0 195 -40t133 -114.5t48 -174.5q0 -107 -48 -183t-135 -115.5t-203 -39.5h-194v667zM287 108q78 0 136 27.5t89.5 78.5t31.5 119q0 109 -71.5 167.5t-185.5 58.5h-74v-451h74z" />
    <glyph glyph-name="E" unicode="E" horiz-adv-x="568" 
d="M89 667h421v-110h-297v-146h231v-110h-231v-189h315v-112h-439v667z" />
    <glyph glyph-name="F" unicode="F" horiz-adv-x="530" 
d="M89 667h414v-110h-290v-147h221v-111h-221v-299h-124v667z" />
    <glyph glyph-name="G" unicode="G" horiz-adv-x="727" 
d="M228 32.5q-81 45.5 -128 125.5t-47 177q0 96 48.5 175t131 124.5t179.5 45.5q75 0 130.5 -14.5t106.5 -40.5v-130q-57 37 -109.5 55.5t-121.5 18.5q-66 0 -120.5 -30t-86.5 -83.5t-32 -120.5q0 -70 32 -124.5t86.5 -84t118.5 -29.5q65 0 120 21v152h-128v110h248v-332
q-51 -28 -115.5 -44.5t-132.5 -16.5q-99 0 -180 45.5z" />
    <glyph glyph-name="H" unicode="H" horiz-adv-x="728" 
d="M89 667h124v-251h302v251h124v-667h-124v304h-302v-304h-124v667z" />
    <glyph glyph-name="I" unicode="I" horiz-adv-x="302" 
d="M89 667h124v-667h-124v667z" />
    <glyph glyph-name="J" unicode="J" horiz-adv-x="490" 
d="M18 112l102 55q25 -64 79 -64q42 0 62 28t20 88v448h125v-461q0 -100 -55 -159.5t-151 -59.5q-125 0 -182 125z" />
    <glyph glyph-name="K" unicode="K" horiz-adv-x="648" 
d="M89 667h124v-254l252 254h162l-307 -302l322 -365h-167l-262 303v-303h-124v667z" />
    <glyph glyph-name="L" unicode="L" horiz-adv-x="535" 
d="M89 667h124v-554h295v-113h-419v667z" />
    <glyph glyph-name="M" unicode="M" horiz-adv-x="856" 
d="M89 667h121l217 -270l215 270h125v-667h-125v474l-216 -263l-213 263v-474h-124v667z" />
    <glyph glyph-name="N" unicode="N" horiz-adv-x="776" 
d="M89 667h119l354 -465v465h125v-667h-121l-353 463v-463h-124v667z" />
    <glyph glyph-name="O" unicode="O" horiz-adv-x="815" 
d="M229.5 34q-81.5 46 -129 125.5t-47.5 174.5t47.5 174.5t129 125.5t178.5 46q96 0 177.5 -46t129 -125.5t47.5 -174.5t-47.5 -174.5t-129 -125.5t-177.5 -46q-97 0 -178.5 46zM525.5 131.5q52.5 29.5 82 82.5t29.5 120t-29.5 120t-82 82.5t-117.5 29.5t-117.5 -29.5
t-82 -82.5t-29.5 -120t29.5 -120t82 -82.5t117.5 -29.5t117.5 29.5z" />
    <glyph glyph-name="P" unicode="P" horiz-adv-x="594" 
d="M89 667h218q118 0 180 -58.5t62 -152.5q0 -67 -31.5 -115.5t-87.5 -73.5t-128 -25h-89v-242h-124v667zM292 350q65 0 98 27t33 77q0 52 -33 79t-98 27h-79v-210h79z" />
    <glyph glyph-name="Q" unicode="Q" horiz-adv-x="815" 
d="M741.5 217.5q-20.5 -55.5 -57.5 -100.5l59 -53l-76 -86l-70 63q-86 -53 -189 -53q-97 0 -178.5 46t-129 125.5t-47.5 174.5t47.5 174.5t129 125.5t178.5 46q96 0 177.5 -46t129 -125.5t47.5 -174.5q0 -61 -20.5 -116.5zM507 122l-61 56l77 85l73 -66q41 58 41 137
q0 67 -29.5 120t-82 82.5t-117.5 29.5t-117.5 -29.5t-82 -82.5t-29.5 -120t29.5 -120t82 -82.5t117.5 -29.5q54 0 99 20z" />
    <glyph glyph-name="R" unicode="R" horiz-adv-x="613" 
d="M466 0l-202 287h-51v-287h-124v667h194q117 0 174 -51.5t57 -136.5q0 -59 -30 -104.5t-89 -65.5l218 -309h-147zM213 396h69q53 0 80.5 22t27.5 62q0 44 -31 63t-91 19h-55v-166z" />
    <glyph glyph-name="S" unicode="S" horiz-adv-x="524" 
d="M117.5 24q-52.5 37 -90.5 106l96 61q21 -46 53 -69.5t72 -23.5q47 0 77 25.5t30 66.5q0 29 -16.5 49.5t-40.5 35.5t-67 35q-54 26 -88.5 47.5t-58.5 58.5t-24 90q0 49 24.5 89t68.5 62.5t100 22.5q118 0 178 -98l-90 -61q-33 52 -88 52q-32 0 -51 -16.5t-19 -41.5
q0 -31 27 -52t86 -50q58 -28 95 -52.5t63.5 -65t26.5 -98.5q0 -60 -31 -108t-84.5 -75t-118.5 -27q-77 0 -129.5 37z" />
    <glyph glyph-name="T" unicode="T" horiz-adv-x="586" 
d="M231 555h-204v112h532v-112h-204v-555h-124v555z" />
    <glyph glyph-name="U" unicode="U" horiz-adv-x="770" 
d="M227.5 28q-69.5 41 -107.5 111.5t-38 154.5v373h124v-376q0 -53 22.5 -97t63.5 -69t94 -25t94 25t63 68.5t22 97.5v376h125v-373q0 -84 -38.5 -154.5t-107.5 -111.5t-158 -41t-158.5 41z" />
    <glyph glyph-name="V" unicode="V" horiz-adv-x="654" 
d="M636 667l-245 -667h-122l-251 667h136l176 -496l172 496h134z" />
    <glyph glyph-name="W" unicode="W" horiz-adv-x="990" 
d="M958 667l-197 -667h-124l-142 470l-140 -470h-123l-200 667h133l134 -481l134 467h126l137 -467l131 481h131z" />
    <glyph glyph-name="X" unicode="X" horiz-adv-x="694" 
d="M534 0l-191 259l-183 -259h-151l259 348l-242 319h152l166 -226l160 226h151l-235 -317l265 -350h-151z" />
    <glyph glyph-name="Y" unicode="Y" horiz-adv-x="615" 
d="M247 294l-234 373h143l154 -258l153 258h139l-231 -373v-294h-124v294z" />
    <glyph glyph-name="Z" unicode="Z" horiz-adv-x="640" 
d="M397 555h-349v112h562l-369 -555h372v-112h-586z" />
    <glyph glyph-name="bracketleft" unicode="[" horiz-adv-x="351" 
d="M76 790h244v-84h-133v-748h133v-85h-244v917z" />
    <glyph glyph-name="backslash" unicode="\" horiz-adv-x="342" 
d="M-3 738h111l237 -813h-110z" />
    <glyph glyph-name="bracketright" unicode="]" horiz-adv-x="351" 
d="M276 -127h-244v84h133v748h-133v85h244v-917z" />
    <glyph glyph-name="asciicircum" unicode="^" horiz-adv-x="586" 
d="M240 667h106l190 -275h-116l-127 191l-127 -191h-116z" />
    <glyph glyph-name="underscore" unicode="_" horiz-adv-x="500" 
d="M-6 -75h512v-50h-512v50z" />
    <glyph glyph-name="a" unicode="a" horiz-adv-x="519" 
d="M394 444.5q55 -50.5 55 -154.5v-290h-111v34q-30 -21 -66.5 -33t-71.5 -12q-70 0 -113.5 38.5t-43.5 98.5q0 82 77 130t214 56q-1 41 -29 62.5t-75 21.5q-78 0 -160 -58l-2 2l30 121q30 16 68.5 25t76.5 9q96 0 151 -50.5zM175.5 93.5q16.5 -14.5 47.5 -14.5q56 0 111 38
v114q-84 -5 -129.5 -31t-45.5 -67q0 -25 16.5 -39.5z" />
    <glyph glyph-name="b" unicode="b" horiz-adv-x="607" 
d="M442.5 462q56.5 -33 88 -91t31.5 -132q0 -72 -31 -129t-87 -89t-127 -32q-77 0 -135 40v-29h-106v667h115v-206q61 34 123 34q72 0 128.5 -33zM405 134q41 41 41 105q0 66 -41.5 107t-108.5 41q-54 0 -105 -32v-226q50 -36 108 -36q65 0 106 41z" />
    <glyph glyph-name="c" unicode="c" horiz-adv-x="499" 
d="M177 22q-61 33 -96 90.5t-35 127.5q0 72 34 130t94 91.5t133 33.5q78 0 151 -35v-120q-77 47 -143 47t-109.5 -40.5t-43.5 -103.5q0 -64 43.5 -105t110.5 -41q37 0 74 10.5t68 30.5v-116q-66 -33 -146 -33q-74 0 -135 33z" />
    <glyph glyph-name="d" unicode="d" horiz-adv-x="607" 
d="M531 667v-667h-106v32q-58 -43 -132 -43q-71 0 -127.5 32t-88 89.5t-31.5 130.5t32 131t88.5 90.5t128.5 32.5q68 0 121 -30v202h115zM204.5 134q42.5 -41 108.5 -41q47 0 103 34v229q-24 15 -51 23t-53 8q-66 0 -108 -41.5t-42 -106.5q0 -64 42.5 -105z" />
    <glyph glyph-name="e" unicode="e" horiz-adv-x="553" 
d="M509 210h-346q8 -59 47 -90.5t102 -31.5q49 0 92 13t95 39v-111q-47 -21 -93.5 -30.5t-100.5 -9.5q-76 0 -135 32t-91.5 89.5t-32.5 132.5q0 71 31 128.5t86 90.5t123 33q104 0 163.5 -68t59.5 -187v-30zM209 372q-31 -26 -42 -75h228q-6 47 -34.5 74t-73.5 27
q-47 0 -78 -26z" />
    <glyph glyph-name="f" unicode="f" horiz-adv-x="392" 
d="M228 560q-20 -23 -20 -65v-11h166v-97h-166v-387h-115v387h-75v97h75v10q0 86 49 136t136 50q47 0 96 -14v-103q-45 20 -88 20q-38 0 -58 -23z" />
    <glyph glyph-name="g" unicode="g" horiz-adv-x="518" 
d="M495 392h-73q22 -33 22 -76q0 -73 -57 -114.5t-142 -41.5q-28 0 -52 6q-12 -9 -12 -18q0 -13 22.5 -21t79.5 -21q104 -23 157 -59t53 -99q0 -62 -61.5 -100t-176.5 -38q-116 0 -176.5 37t-60.5 98q0 39 24 67t78 54q-23 13 -32.5 28t-9.5 33q0 43 47 68q-36 25 -57 60.5
t-21 75.5q0 79 57 121.5t141 42.5q35 0 70 -11h180v-92zM310 269.5q26 20.5 26 57.5q0 38 -25.5 58.5t-66.5 20.5q-38 0 -64.5 -20.5t-26.5 -57.5q0 -38 26 -58.5t67 -20.5q38 0 64 20.5zM350.5 -10.5q-32.5 16.5 -119.5 36.5q-33 9 -30 8q-38 -19 -56 -39.5t-18 -39.5
q0 -27 33.5 -42t94.5 -15q65 0 96.5 14.5t31.5 37.5t-32.5 39.5z" />
    <glyph glyph-name="h" unicode="h" horiz-adv-x="605" 
d="M481.5 437q54.5 -58 54.5 -162v-275h-115v266q0 60 -29.5 92.5t-89.5 32.5q-31 0 -60 -10t-51 -25v-356h-115v667h115v-211q54 39 134 39q102 0 156.5 -58z" />
    <glyph glyph-name="i" unicode="i" horiz-adv-x="267" 
d="M58 595l76 76l76 -76l-76 -77zM76 484h116v-484h-116v484z" />
    <glyph glyph-name="j" unicode="j" horiz-adv-x="267" 
d="M57 595l77 76l76 -76l-76 -77zM-15 -181v107q17 -5 35 -5q33 0 45 20t12 66v477h115v-484q0 -90 -39 -138t-113 -48q-28 0 -55 5z" />
    <glyph glyph-name="k" unicode="k" horiz-adv-x="543" 
d="M384 0l-193 216v-216h-115v667h115v-354l179 171h155l-233 -216l246 -268h-154z" />
    <glyph glyph-name="l" unicode="l" horiz-adv-x="328" 
d="M111 31.5q-41 42.5 -41 129.5v506h115v-495q0 -81 68 -81q32 0 64 15v-103q-44 -14 -87 -14q-78 0 -119 42.5z" />
    <glyph glyph-name="m" unicode="m" horiz-adv-x="930" 
d="M806.5 437q53.5 -57 53.5 -158v-280h-115v270q0 121 -108 121q-61 0 -118 -43q7 -29 7 -68v-279h-115v269q0 122 -112 122q-30 0 -58 -10t-50 -25v-356h-115v484h111v-30q55 41 135 41q102 0 156 -62q79 61 176 61q99 0 152.5 -57z" />
    <glyph glyph-name="n" unicode="n" horiz-adv-x="605" 
d="M481.5 437q54.5 -58 54.5 -162v-275h-115v266q0 60 -29.5 92.5t-89.5 32.5q-31 0 -60 -10t-51 -25v-356h-115v484h111v-31q55 42 138 42q102 0 156.5 -58z" />
    <glyph glyph-name="o" unicode="o" horiz-adv-x="607" 
d="M173 22q-59 33 -93 91t-34 129t34 129t93 91t130 33q72 0 131 -33t93 -91t34 -129t-34 -129t-93 -91t-131 -33q-71 0 -130 33zM404.5 138q40.5 41 40.5 104t-40.5 104t-101.5 41q-60 0 -100.5 -41t-40.5 -104t40.5 -104t100.5 -41q61 0 101.5 41z" />
    <glyph glyph-name="p" unicode="p" horiz-adv-x="607" 
d="M443 462.5q56 -32.5 87.5 -90t31.5 -130.5t-32 -130.5t-89 -90t-130 -32.5q-71 0 -120 31v-206h-115v670h106v-33q27 21 62.5 32.5t71.5 11.5q71 0 127 -32.5zM403.5 135q42.5 42 42.5 107q0 64 -42 105t-108 41q-50 0 -105 -34v-227q21 -15 49 -24.5t55 -9.5
q66 0 108.5 42z" />
    <glyph glyph-name="q" unicode="q" horiz-adv-x="607" 
d="M531 484v-670h-115v209q-52 -34 -121 -34q-72 0 -128.5 32.5t-88.5 90t-32 130.5t32 130.5t88.5 90t129.5 32.5q34 0 68.5 -11.5t60.5 -29.5v30h106zM416 125v229q-23 17 -50.5 25.5t-53.5 8.5q-66 0 -108 -40.5t-42 -104.5q0 -66 42 -108t108 -42q55 0 104 32z" />
    <glyph glyph-name="r" unicode="r" horiz-adv-x="404" 
d="M386 480v-109l-2 -1q-36 20 -77 20q-64 0 -116 -45v-345h-115v484h111v-33q28 23 58.5 33.5t68.5 10.5q42 0 72 -15z" />
    <glyph glyph-name="s" unicode="s" horiz-adv-x="470" 
d="M48 31v120q83 -65 182 -65q44 0 65.5 13.5t21.5 37.5q0 25 -20.5 40.5t-71.5 25.5q-96 18 -136 51t-40 95q0 42 23.5 75t67 52t99.5 19q85 0 157 -31v-111q-67 45 -155 45q-37 0 -56.5 -10.5t-19.5 -29.5q0 -22 18.5 -32.5t68.5 -20.5q92 -18 136.5 -54.5t44.5 -107.5
q0 -70 -53 -112t-150 -42q-96 0 -182 42z" />
    <glyph glyph-name="t" unicode="t" horiz-adv-x="419" 
d="M340.5 99q26.5 7 51.5 20v-107q-59 -23 -125 -23q-84 0 -129 47t-45 133v216h-75v99h75v115h116v-115h180v-99h-180v-210q0 -46 22 -64.5t61 -18.5q22 0 48.5 7z" />
    <glyph glyph-name="u" unicode="u" horiz-adv-x="605" 
d="M530 484v-484h-111v31q-55 -42 -138 -42q-102 0 -156.5 58t-54.5 162v275h115v-266q0 -60 29.5 -92.5t88.5 -32.5t112 35v356h115z" />
    <glyph glyph-name="v" unicode="v" horiz-adv-x="555" 
d="M14 484h129l136 -352l135 352h128l-206 -484h-115z" />
    <glyph glyph-name="w" unicode="w" horiz-adv-x="870" 
d="M24 484h126l108 -338l122 338h110l126 -340l109 340h121l-165 -484h-125l-121 325l-122 -325h-124z" />
    <glyph glyph-name="x" unicode="x" 
d="M399 0l-133 180l-131 -180h-130l197 260l-172 224h132l105 -141l102 141h131l-170 -222l201 -262h-132z" />
    <glyph glyph-name="y" unicode="y" horiz-adv-x="555" 
d="M542 484l-231 -556q-48 -114 -177 -114q-29 0 -51 3v98q30 -4 48 -4q31 0 51.5 14.5t36.5 47.5l9 20l-214 491h127l142 -349l133 349h126z" />
    <glyph glyph-name="z" unicode="z" horiz-adv-x="474" 
d="M262 385h-215v99h408l-240 -385h222v-99h-418z" />
    <glyph glyph-name="braceleft" unicode="{" horiz-adv-x="365" 
d="M202.5 -100q-36.5 14 -52.5 45t-16 87v136q0 37 -8.5 58t-25.5 34t-54 33v78q37 20 54 33t25.5 34t8.5 58v136q0 56 16 87t52.5 45t102.5 14h29v-72h-18q-43 0 -59.5 -17t-16.5 -56v-141q0 -61 -17 -94.5t-66 -65.5q49 -32 66 -65.5t17 -94.5v-141q0 -39 16.5 -56
t59.5 -17h18v-72h-29q-66 0 -102.5 14z" />
    <glyph glyph-name="bar" unicode="|" horiz-adv-x="243" 
d="M67 750h109v-1000h-109v1000z" />
    <glyph glyph-name="braceright" unicode="}" horiz-adv-x="365" 
d="M32 -114v72h18q42 0 58.5 17t16.5 56v141q0 61 17 94.5t67 65.5q-50 32 -67 65.5t-17 94.5v141q0 39 -16.5 56t-58.5 17h-18v72h28q66 0 103 -14t53 -45t16 -87v-136q0 -37 8.5 -58t25.5 -34t54 -33v-78q-37 -20 -54 -33t-25.5 -34t-8.5 -58v-136q0 -56 -16 -87t-53 -45
t-103 -14h-28z" />
    <glyph glyph-name="asciitilde" unicode="~" horiz-adv-x="569" 
d="M50 280q48 143 143 143q28 0 53 -11.5t55 -31.5q26 -17 42 -25t33 -8q21 0 34 17.5t24 56.5l85 -33q-23 -65 -57 -104t-87 -39q-28 0 -53 11.5t-55 31.5q-26 17 -42 25t-33 8q-21 0 -34 -17.5t-24 -56.5z" />
    <glyph glyph-name="uni00A0" unicode="&#xa0;" horiz-adv-x="276" 
 />
    <glyph glyph-name="exclamdown" unicode="&#xa1;" horiz-adv-x="291" 
d="M222 418l-76 -77l-77 77l77 76zM202 113q7 -92 7 -175v-124h-128v124q0 85 8 175l16 191h81z" />
    <glyph glyph-name="cent" unicode="&#xa2;" horiz-adv-x="499" 
d="M205.5 346.5q-43.5 -40.5 -43.5 -103.5q0 -64 43.5 -105t110.5 -41q37 0 74 10.5t68 30.5v-116q-53 -26 -112 -31v-68h-101v73q-89 20 -144 87t-55 157q0 61 25 113t70.5 87.5t103.5 47.5v74h101v-69q59 -7 112 -33v-120q-77 47 -143 47t-109.5 -40.5z" />
    <glyph glyph-name="sterling" unicode="&#xa3;" 
d="M505 107l-45 -107h-436q34 46 60.5 108.5t33.5 135.5l1 13h-66l20 105h56l8 92q10 104 59 165t142 61q49 0 84.5 -16t64.5 -48l-56 -96q-18 24 -41 38t-48 14q-37 0 -61 -29t-31 -103l-7 -78h160l-22 -105h-148l-2 -23q-4 -34 -14 -70t-22 -57h310z" />
    <glyph glyph-name="currency" unicode="&#xa4;" horiz-adv-x="606" 
d="M486 147l74 -79l-85 -78l-74 80q-46 -22 -98 -22q-50 0 -98 21l-74 -79l-85 78l74 78q-29 50 -29 111q0 62 29 109l-74 79l85 78l74 -79q46 22 98 22t99 -22l73 79l85 -78l-74 -79q29 -47 29 -109q0 -60 -29 -110zM375.5 180.5q27.5 28.5 27.5 75.5q0 48 -27.5 77
t-72.5 29t-72.5 -29t-27.5 -77q0 -47 27.5 -75.5t72.5 -28.5t72.5 28.5z" />
    <glyph glyph-name="yen" unicode="&#xa5;" horiz-adv-x="635" 
d="M468 435h92v-82h-142l-37 -59v-12h179v-81h-179v-201h-124v201h-179v81h179v12l-37 59h-142v82h91l-146 232h143l154 -258l153 258h139z" />
    <glyph glyph-name="brokenbar" unicode="&#xa6;" horiz-adv-x="243" 
d="M67 392h109v-395h-109v395zM124 342h-5v-73h5v73z" />
    <glyph glyph-name="section" unicode="&#xa7;" horiz-adv-x="503" 
d="M449 -15q0 -51 -29 -90t-76.5 -60t-100.5 -21q-72 0 -123 32.5t-88 93.5l93 49q47 -79 119 -79q38 0 66 20t28 53q0 26 -17 43.5t-42.5 29t-70.5 27.5q-59 21 -94.5 38.5t-61 50t-25.5 82.5q0 45 25 78t73 50q-36 24 -56 56t-20 78q0 51 26.5 88t70.5 56.5t96 19.5
q69 0 119 -30.5t76 -91.5l-87 -46q-38 75 -108 75q-35 0 -58.5 -18.5t-23.5 -50.5q0 -36 30 -56t92 -42q56 -21 91.5 -40t61 -53.5t25.5 -87.5q0 -43 -23.5 -73t-59.5 -47q72 -48 72 -134zM153.5 221q17.5 -16 41.5 -26t75 -27q35 5 56 23.5t21 45.5q0 32 -28 51.5t-88 43.5
q-46 -7 -70.5 -24.5t-24.5 -48.5q0 -22 17.5 -38z" />
    <glyph glyph-name="copyright" unicode="&#xa9;" horiz-adv-x="798" 
d="M225 34.5q-79 46.5 -125.5 126t-46.5 174.5q0 94 46.5 173.5t125.5 125.5t174 46t174.5 -46t125.5 -125t46 -174t-46 -174.5t-125.5 -126t-174.5 -46.5t-174 46.5zM545.5 81q66.5 39 105.5 106.5t39 147.5q0 79 -39 145.5t-105.5 105.5t-146.5 39t-146.5 -39
t-105.5 -105.5t-39 -145.5q0 -80 39 -147.5t105.5 -106.5t146.5 -39t146.5 39zM295.5 154.5q-51.5 27.5 -81 75t-29.5 105.5q0 57 29.5 104.5t81 74.5t114.5 27q75 0 141 -36v-86q-61 49 -138 49q-57 0 -96 -36t-39 -97q0 -57 38.5 -96t96.5 -39q38 0 70.5 12t67.5 36v-86
q-70 -35 -141 -35q-63 0 -114.5 27.5z" />
    <glyph glyph-name="ordfeminine" unicode="&#xaa;" horiz-adv-x="315" 
d="M278 567v-188h-80v20q-37 -27 -82 -27q-41 0 -67 24t-26 64q0 54 49.5 80t122.5 30q-2 23 -12.5 32t-37.5 9q-49 0 -109 -31l22 80q51 20 100 20q120 0 120 -113zM195 454v60q-39 -4 -64 -14t-25 -34q0 -14 8.5 -22.5t23.5 -8.5q26 0 57 19z" />
    <glyph glyph-name="guillemotleft" unicode="&#xab;" horiz-adv-x="584" 
d="M39 264l166 212h120l-168 -212l168 -209h-120zM260 264l166 212h120l-168 -212l168 -209h-120z" />
    <glyph glyph-name="logicalnot" unicode="&#xac;" 
d="M377 385h-317v99h416v-280h-99v181z" />
    <glyph glyph-name="uni00AD" unicode="&#xad;" horiz-adv-x="376" 
d="M31 326h314v-107h-314v107z" />
    <glyph glyph-name="registered" unicode="&#xae;" horiz-adv-x="798" 
d="M573.5 634q79.5 -46 125.5 -125t46 -174t-46 -174.5t-125.5 -126t-174.5 -46.5t-174 46.5t-125.5 126t-46.5 174.5t46.5 174t125.5 125t174 46t174.5 -46zM545.5 81q66.5 39 105.5 106.5t39 147.5t-39 146.5t-105.5 105t-146.5 38.5t-146.5 -38.5t-105.5 -105t-39 -146.5
t39 -147.5t105.5 -106.5t146.5 -39t146.5 39zM520 351q-19 -28 -53 -44l115 -174h-105l-100 158h-27v-158h-90v400h133q62 0 104 -31t42 -88q0 -35 -19 -63zM350 360h34q65 0 65 55q0 22 -16 35.5t-49 13.5h-34v-104z" />
    <glyph glyph-name="degree" unicode="&#xb0;" horiz-adv-x="410" 
d="M126 387q-36 21 -57 57t-21 79t21 79t57 57t79 21t79 -21t57 -57t21 -79t-21 -79t-57 -57t-79 -21t-79 21zM254 474.5q20 20.5 20 48.5q0 29 -20 49t-49 20q-28 0 -48.5 -20t-20.5 -49q0 -28 20.5 -48.5t48.5 -20.5q29 0 49 20.5z" />
    <glyph glyph-name="plusminus" unicode="&#xb1;" 
d="M218 342h-159v100h159v154h98v-154h159v-100h-159v-154h-98v154zM61 99h416v-99h-416v99z" />
    <glyph glyph-name="uni00B2" unicode="&#xb2;" horiz-adv-x="334" 
d="M153 447q43 68 43 102q0 21 -13.5 32.5t-37.5 11.5q-22 0 -48.5 -13.5t-52.5 -40.5v100q23 19 54 30t62 11q54 0 92 -30.5t38 -89.5q0 -27 -11.5 -56t-37.5 -72l-52 -84h110v-85h-259z" />
    <glyph glyph-name="uni00B3" unicode="&#xb3;" horiz-adv-x="339" 
d="M22 307l50 65q37 -38 80 -38q28 0 45 18.5t17 43.5q0 29 -21.5 47t-59.5 18q-21 0 -41 -6l78 133h-135v79h272l-87 -149q40 -11 62.5 -43.5t22.5 -76.5q0 -37 -17.5 -71t-51 -55t-79.5 -21q-80 0 -135 56z" />
    <glyph glyph-name="uni00B5" unicode="&#xb5;" horiz-adv-x="586" 
d="M76 484h115v-260q0 -62 24.5 -95.5t80.5 -33.5q28 0 54.5 10t45.5 24v355h115v-484h-111v37q-51 -48 -127 -48q-27 0 -46 6t-36 21v-202h-115v670z" />
    <glyph glyph-name="paragraph" unicode="&#xb6;" horiz-adv-x="603" 
d="M576 667v-73h-56v-780h-88v780h-75v-780h-89v452h-12q-64 0 -112 27.5t-73.5 74t-25.5 102.5q0 92 62 144.5t167 52.5h302z" />
    <glyph glyph-name="periodcentered" unicode="&#xb7;" horiz-adv-x="257" 
d="M45 334l84 84l83 -84l-83 -83z" />
    <glyph glyph-name="uni00B9" unicode="&#xb9;" horiz-adv-x="238" 
d="M74 618l90 62v-417h-90v355z" />
    <glyph glyph-name="ordmasculine" unicode="&#xba;" horiz-adv-x="377" 
d="M106.5 392.5q-37.5 20.5 -59.5 55.5t-22 78t22 78.5t59 55.5t82 20t82.5 -20.5t59.5 -55.5t22 -78q0 -42 -22 -77.5t-59.5 -56t-82.5 -20.5q-44 0 -81.5 20.5zM244.5 469q22.5 23 22.5 57t-23 57.5t-56 23.5t-55.5 -23.5t-22.5 -57.5t22.5 -57t55.5 -23q34 0 56.5 23z
" />
    <glyph glyph-name="guillemotright" unicode="&#xbb;" horiz-adv-x="584" 
d="M39 55l168 209l-168 212h119l167 -212l-167 -209h-119zM260 55l168 209l-168 212h119l166 -212l-166 -209h-119z" />
    <glyph glyph-name="onequarter" unicode="&#xbc;" horiz-adv-x="838" 
d="M74 618l90 62v-417h-90v355zM526 680h98l-364 -693h-97zM676 74h-231l321 343v-274h46v-69h-46v-74h-90v74zM684 140v100l-93 -100h93z" />
    <glyph glyph-name="onehalf" unicode="&#xbd;" horiz-adv-x="859" 
d="M74 618l90 62v-417h-90v355zM526 680h98l-364 -693h-97zM677 184q43 68 43 102q0 21 -13.5 32.5t-37.5 11.5q-22 0 -48.5 -13.5t-52.5 -40.5v100q23 19 54 30t62 11q54 0 92 -30.5t38 -89.5q0 -27 -11.5 -56t-37.5 -72l-52 -84h110v-85h-259z" />
    <glyph glyph-name="threequarters" unicode="&#xbe;" horiz-adv-x="901" 
d="M22 307l50 65q37 -38 80 -38q28 0 45 18.5t17 43.5q0 29 -21.5 47t-59.5 18q-21 0 -41 -6l78 133h-135v79h272l-87 -149q40 -11 62.5 -43.5t22.5 -76.5q0 -37 -17.5 -71t-51 -55t-79.5 -21q-80 0 -135 56zM589 680h98l-364 -693h-97zM738 74h-231l321 343v-274h46v-69
h-46v-74h-90v74zM746 140v100l-93 -100h93z" />
    <glyph glyph-name="questiondown" unicode="&#xbf;" horiz-adv-x="452" 
d="M323 416l-81 -80l-79 80l79 79zM304 245.5q20 -28.5 20 -63.5q0 -38 -22 -62.5t-64 -52.5q-36 -23 -53.5 -41.5t-17.5 -44.5q0 -33 23 -52.5t59 -19.5q62 0 110 66l77 -73q-72 -100 -192 -100q-56 0 -101 22t-71 61.5t-26 91.5q0 56 29 89.5t79 65.5q28 18 40.5 30
t12.5 26q0 11 -8 21.5t-29 30.5l73 69q41 -35 61 -63.5z" />
    <glyph glyph-name="Agrave" unicode="&#xc0;" horiz-adv-x="680" 
d="M472 144h-269l-52 -144h-133l260 667h115l269 -667h-136zM432 254l-96 257l-93 -257h189zM188 860h136l102 -143h-93z" />
    <glyph glyph-name="Aacute" unicode="&#xc1;" horiz-adv-x="680" 
d="M472 144h-269l-52 -144h-133l260 667h115l269 -667h-136zM432 254l-96 257l-93 -257h189zM356 860h136l-146 -143h-92z" />
    <glyph glyph-name="Acircumflex" unicode="&#xc2;" horiz-adv-x="680" 
d="M472 144h-269l-52 -144h-133l260 667h115l269 -667h-136zM432 254l-96 257l-93 -257h189zM273 857h134l97 -143h-82l-82 83l-82 -83h-82z" />
    <glyph glyph-name="Atilde" unicode="&#xc3;" horiz-adv-x="680" 
d="M472 144h-269l-52 -144h-133l260 667h115l269 -667h-136zM432 254l-96 257l-93 -257h189zM357.5 722q-16.5 7 -41.5 21q-22 12 -33 17t-22 5q-28 0 -45 -42l-57 38q16 43 40.5 69t64.5 26q17 0 33 -6.5t40 -20.5q21 -11 33 -16.5t25 -5.5q33 0 46 49l58 -38
q-12 -48 -39 -75.5t-68 -27.5q-18 0 -34.5 7z" />
    <glyph glyph-name="Adieresis" unicode="&#xc4;" horiz-adv-x="680" 
d="M472 144h-269l-52 -144h-133l260 667h115l269 -667h-136zM432 254l-96 257l-93 -257h189zM166 787l74 75l75 -75l-75 -74zM364 787l74 75l75 -75l-75 -74z" />
    <glyph glyph-name="Aring" unicode="&#xc5;" horiz-adv-x="680" 
d="M472 144h-269l-52 -144h-133l260 667h115l269 -667h-136zM432 254l-96 257l-93 -257h189zM274 724q-27 27 -27 66t27 66t66 27t66 -27t27 -66t-27 -66t-66 -27t-66 27zM371.5 758.5q12.5 12.5 12.5 31.5t-12.5 31.5t-31.5 12.5q-18 0 -31 -12.5t-13 -31.5t13 -31.5
t31 -12.5q19 0 31.5 12.5z" />
    <glyph glyph-name="AE" unicode="&#xc6;" horiz-adv-x="922" 
d="M882 112v-112h-419v188h-213l-100 -188h-141l376 667h479v-110h-277v-146h211v-110h-211v-189h295zM463 296v272h-11l-145 -272h156z" />
    <glyph glyph-name="Ccedilla" unicode="&#xc7;" horiz-adv-x="682" 
d="M294 537.5q-54 -29.5 -84.5 -81.5t-30.5 -119q0 -69 31 -123t86 -84t125 -30q55 0 105 15t102 48v-128q-44 -23 -99 -35.5t-110 -12.5l-10 -20h1q36 0 60 -20t24 -50q0 -40 -37.5 -67.5t-111.5 -27.5q-40 0 -67 5v65q35 -8 68 -8q55 0 55 27q0 15 -14 21t-39 6
q-24 0 -36 -4l36 79q-85 14 -152.5 61.5t-105 119t-37.5 157.5q0 98 47.5 177.5t130 125.5t184.5 46q58 0 113 -12.5t100 -36.5v-130q-50 33 -100 49.5t-111 16.5q-69 0 -123 -29.5z" />
    <glyph glyph-name="Egrave" unicode="&#xc8;" horiz-adv-x="568" 
d="M89 667h421v-110h-297v-146h231v-110h-231v-189h315v-112h-439v667zM145 860h136l102 -143h-93z" />
    <glyph glyph-name="Eacute" unicode="&#xc9;" horiz-adv-x="568" 
d="M89 667h421v-110h-297v-146h231v-110h-231v-189h315v-112h-439v667zM313 860h136l-146 -143h-92z" />
    <glyph glyph-name="Ecircumflex" unicode="&#xca;" horiz-adv-x="568" 
d="M89 667h421v-110h-297v-146h231v-110h-231v-189h315v-112h-439v667zM230 857h134l97 -143h-82l-82 83l-82 -83h-82z" />
    <glyph glyph-name="Edieresis" unicode="&#xcb;" horiz-adv-x="568" 
d="M89 667h421v-110h-297v-146h231v-110h-231v-189h315v-112h-439v667zM123 787l74 75l75 -75l-75 -74zM321 787l74 75l75 -75l-75 -74z" />
    <glyph glyph-name="Igrave" unicode="&#xcc;" horiz-adv-x="302" 
d="M89 667h124v-667h-124v667zM-1 860h136l102 -143h-93z" />
    <glyph glyph-name="Iacute" unicode="&#xcd;" horiz-adv-x="302" 
d="M89 667h124v-667h-124v667zM167 860h136l-146 -143h-92z" />
    <glyph glyph-name="Icircumflex" unicode="&#xce;" horiz-adv-x="302" 
d="M89 667h124v-667h-124v667zM84 857h134l97 -143h-82l-82 83l-82 -83h-82z" />
    <glyph glyph-name="Idieresis" unicode="&#xcf;" horiz-adv-x="302" 
d="M89 667h124v-667h-124v667zM-23 787l74 75l75 -75l-75 -74zM175 787l74 75l75 -75l-75 -74z" />
    <glyph glyph-name="Eth" unicode="&#xd0;" horiz-adv-x="723" 
d="M488 627q85 -40 133 -114.5t48 -174.5q0 -107 -48 -183t-135 -115.5t-203 -39.5h-194v290h-64v89h64v288h204q110 0 195 -40zM423 135.5q58 27.5 89.5 78.5t31.5 119q0 109 -71.5 167.5t-185.5 58.5h-74v-180h152v-89h-152v-182h74q78 0 136 27.5z" />
    <glyph glyph-name="Ntilde" unicode="&#xd1;" horiz-adv-x="776" 
d="M89 667h119l354 -465v465h125v-667h-121l-353 463v-463h-124v667zM405.5 722q-16.5 7 -41.5 21q-22 12 -33 17t-22 5q-28 0 -45 -42l-57 38q16 43 40.5 69t64.5 26q17 0 33 -6.5t40 -20.5q21 -11 33 -16.5t25 -5.5q33 0 46 49l58 -38q-12 -48 -39 -75.5t-68 -27.5
q-18 0 -34.5 7z" />
    <glyph glyph-name="Ograve" unicode="&#xd2;" horiz-adv-x="815" 
d="M229.5 34q-81.5 46 -129 125.5t-47.5 174.5t47.5 174.5t129 125.5t178.5 46q96 0 177.5 -46t129 -125.5t47.5 -174.5t-47.5 -174.5t-129 -125.5t-177.5 -46q-97 0 -178.5 46zM525.5 131.5q52.5 29.5 82 82.5t29.5 120t-29.5 120t-82 82.5t-117.5 29.5t-117.5 -29.5
t-82 -82.5t-29.5 -120t29.5 -120t82 -82.5t117.5 -29.5t117.5 29.5zM256 860h136l102 -143h-93z" />
    <glyph glyph-name="Oacute" unicode="&#xd3;" horiz-adv-x="815" 
d="M229.5 34q-81.5 46 -129 125.5t-47.5 174.5t47.5 174.5t129 125.5t178.5 46q96 0 177.5 -46t129 -125.5t47.5 -174.5t-47.5 -174.5t-129 -125.5t-177.5 -46q-97 0 -178.5 46zM525.5 131.5q52.5 29.5 82 82.5t29.5 120t-29.5 120t-82 82.5t-117.5 29.5t-117.5 -29.5
t-82 -82.5t-29.5 -120t29.5 -120t82 -82.5t117.5 -29.5t117.5 29.5zM424 860h136l-146 -143h-92z" />
    <glyph glyph-name="Ocircumflex" unicode="&#xd4;" horiz-adv-x="815" 
d="M229.5 34q-81.5 46 -129 125.5t-47.5 174.5t47.5 174.5t129 125.5t178.5 46q96 0 177.5 -46t129 -125.5t47.5 -174.5t-47.5 -174.5t-129 -125.5t-177.5 -46q-97 0 -178.5 46zM525.5 131.5q52.5 29.5 82 82.5t29.5 120t-29.5 120t-82 82.5t-117.5 29.5t-117.5 -29.5
t-82 -82.5t-29.5 -120t29.5 -120t82 -82.5t117.5 -29.5t117.5 29.5zM341 857h134l97 -143h-82l-82 83l-82 -83h-82z" />
    <glyph glyph-name="Otilde" unicode="&#xd5;" horiz-adv-x="815" 
d="M229.5 34q-81.5 46 -129 125.5t-47.5 174.5t47.5 174.5t129 125.5t178.5 46q96 0 177.5 -46t129 -125.5t47.5 -174.5t-47.5 -174.5t-129 -125.5t-177.5 -46q-97 0 -178.5 46zM525.5 131.5q52.5 29.5 82 82.5t29.5 120t-29.5 120t-82 82.5t-117.5 29.5t-117.5 -29.5
t-82 -82.5t-29.5 -120t29.5 -120t82 -82.5t117.5 -29.5t117.5 29.5zM425.5 722q-16.5 7 -41.5 21q-22 12 -33 17t-22 5q-28 0 -45 -42l-57 38q16 43 40.5 69t64.5 26q17 0 33 -6.5t40 -20.5q21 -11 33 -16.5t25 -5.5q33 0 46 49l58 -38q-12 -48 -39 -75.5t-68 -27.5
q-18 0 -34.5 7z" />
    <glyph glyph-name="Odieresis" unicode="&#xd6;" horiz-adv-x="815" 
d="M229.5 34q-81.5 46 -129 125.5t-47.5 174.5t47.5 174.5t129 125.5t178.5 46q96 0 177.5 -46t129 -125.5t47.5 -174.5t-47.5 -174.5t-129 -125.5t-177.5 -46q-97 0 -178.5 46zM525.5 131.5q52.5 29.5 82 82.5t29.5 120t-29.5 120t-82 82.5t-117.5 29.5t-117.5 -29.5
t-82 -82.5t-29.5 -120t29.5 -120t82 -82.5t117.5 -29.5t117.5 29.5zM234 787l74 75l75 -75l-75 -74zM432 787l74 75l75 -75l-75 -74z" />
    <glyph glyph-name="multiply" unicode="&#xd7;" 
d="M64 201l134 133l-131 131l70 70l131 -131l133 134l71 -71l-134 -133l132 -132l-70 -70l-132 132l-133 -134z" />
    <glyph glyph-name="Oslash" unicode="&#xd8;" horiz-adv-x="815" 
d="M740.5 454q21.5 -57 21.5 -120q0 -95 -47.5 -174.5t-129 -125.5t-177.5 -46q-61 0 -117.5 19.5t-102.5 54.5l-70 -70l-52 51l69 69q-39 46 -60.5 103t-21.5 119q0 95 47.5 174.5t129 125.5t178.5 46q61 0 116.5 -19t101.5 -54l71 71l52 -52l-69 -70q39 -45 60.5 -102z
M219 197l325 327q-58 42 -136 42q-65 0 -117.5 -29.5t-82 -82.5t-29.5 -120q0 -76 40 -137zM525.5 131.5q52.5 29.5 82 82.5t29.5 120q0 80 -41 138l-326 -327q58 -43 138 -43q65 0 117.5 29.5z" />
    <glyph glyph-name="Ugrave" unicode="&#xd9;" horiz-adv-x="770" 
d="M227.5 28q-69.5 41 -107.5 111.5t-38 154.5v373h124v-376q0 -53 22.5 -97t63.5 -69t94 -25t94 25t63 68.5t22 97.5v376h125v-373q0 -84 -38.5 -154.5t-107.5 -111.5t-158 -41t-158.5 41zM234 860h136l102 -143h-93z" />
    <glyph glyph-name="Uacute" unicode="&#xda;" horiz-adv-x="770" 
d="M227.5 28q-69.5 41 -107.5 111.5t-38 154.5v373h124v-376q0 -53 22.5 -97t63.5 -69t94 -25t94 25t63 68.5t22 97.5v376h125v-373q0 -84 -38.5 -154.5t-107.5 -111.5t-158 -41t-158.5 41zM402 860h136l-146 -143h-92z" />
    <glyph glyph-name="Ucircumflex" unicode="&#xdb;" horiz-adv-x="770" 
d="M227.5 28q-69.5 41 -107.5 111.5t-38 154.5v373h124v-376q0 -53 22.5 -97t63.5 -69t94 -25t94 25t63 68.5t22 97.5v376h125v-373q0 -84 -38.5 -154.5t-107.5 -111.5t-158 -41t-158.5 41zM319 857h134l97 -143h-82l-82 83l-82 -83h-82z" />
    <glyph glyph-name="Udieresis" unicode="&#xdc;" horiz-adv-x="770" 
d="M227.5 28q-69.5 41 -107.5 111.5t-38 154.5v373h124v-376q0 -53 22.5 -97t63.5 -69t94 -25t94 25t63 68.5t22 97.5v376h125v-373q0 -84 -38.5 -154.5t-107.5 -111.5t-158 -41t-158.5 41zM212 787l74 75l75 -75l-75 -74zM410 787l74 75l75 -75l-75 -74z" />
    <glyph glyph-name="Yacute" unicode="&#xdd;" horiz-adv-x="615" 
d="M247 294l-234 373h143l154 -258l153 258h139l-231 -373v-294h-124v294zM325 860h136l-146 -143h-92z" />
    <glyph glyph-name="Thorn" unicode="&#xde;" horiz-adv-x="594" 
d="M89 667h124v-121h94q119 0 180.5 -58t61.5 -153q0 -101 -68.5 -157.5t-179.5 -56.5h-88v-121h-124v667zM292 229q65 0 98 27t33 77q0 52 -33 79t-98 27h-79v-210h79z" />
    <glyph glyph-name="germandbls" unicode="&#xdf;" horiz-adv-x="563" 
d="M245 -4v96q29 -10 55 -10q49 0 80 28t31 82q0 59 -38 90.5t-98 31.5q-8 0 -22 -2v95q9 -2 25 -2q49 0 77 27t28 67q0 36 -24 59.5t-66 23.5q-53 0 -78 -34.5t-25 -95.5v-452h-114v441q0 112 58 175.5t159 63.5q63 0 107.5 -24.5t66.5 -64.5t22 -86q0 -49 -26 -86.5
t-79 -51.5q66 -12 104.5 -59t38.5 -118q0 -95 -61.5 -148t-162.5 -53q-29 0 -58 7z" />
    <glyph glyph-name="agrave" unicode="&#xe0;" horiz-adv-x="519" 
d="M394 444.5q55 -50.5 55 -154.5v-290h-111v34q-30 -21 -66.5 -33t-71.5 -12q-70 0 -113.5 38.5t-43.5 98.5q0 82 77 130t214 56q-1 41 -29 62.5t-75 21.5q-78 0 -160 -58l-2 2l30 121q30 16 68.5 25t76.5 9q96 0 151 -50.5zM175.5 93.5q16.5 -14.5 47.5 -14.5q56 0 111 38
v114q-84 -5 -129.5 -31t-45.5 -67q0 -25 16.5 -39.5zM105 700h136l102 -143h-93z" />
    <glyph glyph-name="aacute" unicode="&#xe1;" horiz-adv-x="519" 
d="M394 444.5q55 -50.5 55 -154.5v-290h-111v34q-30 -21 -66.5 -33t-71.5 -12q-70 0 -113.5 38.5t-43.5 98.5q0 82 77 130t214 56q-1 41 -29 62.5t-75 21.5q-78 0 -160 -58l-2 2l30 121q30 16 68.5 25t76.5 9q96 0 151 -50.5zM175.5 93.5q16.5 -14.5 47.5 -14.5q56 0 111 38
v114q-84 -5 -129.5 -31t-45.5 -67q0 -25 16.5 -39.5zM273 700h136l-146 -143h-92z" />
    <glyph glyph-name="acircumflex" unicode="&#xe2;" horiz-adv-x="519" 
d="M394 444.5q55 -50.5 55 -154.5v-290h-111v34q-30 -21 -66.5 -33t-71.5 -12q-70 0 -113.5 38.5t-43.5 98.5q0 82 77 130t214 56q-1 41 -29 62.5t-75 21.5q-78 0 -160 -58l-2 2l30 121q30 16 68.5 25t76.5 9q96 0 151 -50.5zM175.5 93.5q16.5 -14.5 47.5 -14.5q56 0 111 38
v114q-84 -5 -129.5 -31t-45.5 -67q0 -25 16.5 -39.5zM190 697h134l97 -143h-82l-82 83l-82 -83h-82z" />
    <glyph glyph-name="atilde" unicode="&#xe3;" horiz-adv-x="519" 
d="M394 444.5q55 -50.5 55 -154.5v-290h-111v34q-30 -21 -66.5 -33t-71.5 -12q-70 0 -113.5 38.5t-43.5 98.5q0 82 77 130t214 56q-1 41 -29 62.5t-75 21.5q-78 0 -160 -58l-2 2l30 121q30 16 68.5 25t76.5 9q96 0 151 -50.5zM175.5 93.5q16.5 -14.5 47.5 -14.5q56 0 111 38
v114q-84 -5 -129.5 -31t-45.5 -67q0 -25 16.5 -39.5zM284.5 562q-16.5 7 -41.5 21q-22 12 -33 17t-22 5q-28 0 -45 -42l-57 38q16 43 40.5 69t64.5 26q17 0 33 -6.5t40 -20.5q21 -11 33 -16.5t25 -5.5q33 0 46 49l58 -38q-12 -48 -39 -75.5t-68 -27.5q-18 0 -34.5 7z" />
    <glyph glyph-name="adieresis" unicode="&#xe4;" horiz-adv-x="519" 
d="M394 444.5q55 -50.5 55 -154.5v-290h-111v34q-30 -21 -66.5 -33t-71.5 -12q-70 0 -113.5 38.5t-43.5 98.5q0 82 77 130t214 56q-1 41 -29 62.5t-75 21.5q-78 0 -160 -58l-2 2l30 121q30 16 68.5 25t76.5 9q96 0 151 -50.5zM175.5 93.5q16.5 -14.5 47.5 -14.5q56 0 111 38
v114q-84 -5 -129.5 -31t-45.5 -67q0 -25 16.5 -39.5zM83 610l74 74l75 -74l-75 -74zM281 610l74 74l75 -74l-75 -74z" />
    <glyph glyph-name="aring" unicode="&#xe5;" horiz-adv-x="519" 
d="M394 444.5q55 -50.5 55 -154.5v-290h-111v34q-30 -21 -66.5 -33t-71.5 -12q-70 0 -113.5 38.5t-43.5 98.5q0 82 77 130t214 56q-1 41 -29 62.5t-75 21.5q-78 0 -160 -58l-2 2l30 121q30 16 68.5 25t76.5 9q96 0 151 -50.5zM175.5 93.5q16.5 -14.5 47.5 -14.5q56 0 111 38
v114q-84 -5 -129.5 -31t-45.5 -67q0 -25 16.5 -39.5zM191 564q-27 27 -27 66t27 66t66 27t66 -27t27 -66t-27 -66t-66 -27t-66 27zM288.5 598.5q12.5 12.5 12.5 31.5t-12.5 31.5t-31.5 12.5q-18 0 -31 -12.5t-13 -31.5t13 -31.5t31 -12.5q19 0 31.5 12.5z" />
    <glyph glyph-name="ae" unicode="&#xe6;" horiz-adv-x="822" 
d="M778 215h-336q9 -59 47 -93t96 -34q50 0 91 13t92 40v-108q-49 -23 -93 -33.5t-97 -10.5q-54 0 -99 17.5t-79 49.5q-50 -36 -97 -51.5t-105 -15.5q-71 0 -113 38.5t-42 98.5q0 89 84 130t200 48v11q0 81 -99 81q-41 0 -76.5 -14t-80.5 -42l-2 2l27 121q72 32 153 32
q49 0 91 -18t65 -52q29 34 68.5 52t85.5 18q102 0 160.5 -68.5t58.5 -183.5v-28zM664 300q-6 46 -33.5 72t-70.5 26q-45 0 -74.5 -26t-40.5 -72h219zM175.5 92.5q17.5 -14.5 48.5 -14.5q30 0 64 11t64 35q-22 47 -25 102q-89 -11 -129 -33.5t-40 -59.5q0 -26 17.5 -40.5z
" />
    <glyph glyph-name="ccedilla" unicode="&#xe7;" horiz-adv-x="499" 
d="M205.5 346.5q-43.5 -40.5 -43.5 -103.5q0 -64 43.5 -105t110.5 -41q37 0 74 10.5t68 30.5v-116q-54 -27 -121 -32l-11 -23h1q36 0 60 -20t24 -50q0 -40 -37.5 -67.5t-111.5 -27.5q-40 0 -67 5v65q35 -8 68 -8q55 0 55 27q0 15 -14 21t-39 6q-24 0 -36 -4l36 79
q-63 9 -113 43.5t-78 87.5t-28 116q0 72 34 130t94 91.5t133 33.5q78 0 151 -35v-120q-77 47 -143 47t-109.5 -40.5z" />
    <glyph glyph-name="egrave" unicode="&#xe8;" horiz-adv-x="553" 
d="M509 210h-346q8 -59 47 -90.5t102 -31.5q49 0 92 13t95 39v-111q-47 -21 -93.5 -30.5t-100.5 -9.5q-76 0 -135 32t-91.5 89.5t-32.5 132.5q0 71 31 128.5t86 90.5t123 33q104 0 163.5 -68t59.5 -187v-30zM209 372q-31 -26 -42 -75h228q-6 47 -34.5 74t-73.5 27
q-47 0 -78 -26zM125 700h136l102 -143h-93z" />
    <glyph glyph-name="eacute" unicode="&#xe9;" horiz-adv-x="553" 
d="M509 210h-346q8 -59 47 -90.5t102 -31.5q49 0 92 13t95 39v-111q-47 -21 -93.5 -30.5t-100.5 -9.5q-76 0 -135 32t-91.5 89.5t-32.5 132.5q0 71 31 128.5t86 90.5t123 33q104 0 163.5 -68t59.5 -187v-30zM209 372q-31 -26 -42 -75h228q-6 47 -34.5 74t-73.5 27
q-47 0 -78 -26zM293 700h136l-146 -143h-92z" />
    <glyph glyph-name="ecircumflex" unicode="&#xea;" horiz-adv-x="553" 
d="M509 210h-346q8 -59 47 -90.5t102 -31.5q49 0 92 13t95 39v-111q-47 -21 -93.5 -30.5t-100.5 -9.5q-76 0 -135 32t-91.5 89.5t-32.5 132.5q0 71 31 128.5t86 90.5t123 33q104 0 163.5 -68t59.5 -187v-30zM209 372q-31 -26 -42 -75h228q-6 47 -34.5 74t-73.5 27
q-47 0 -78 -26zM210 697h134l97 -143h-82l-82 83l-82 -83h-82z" />
    <glyph glyph-name="edieresis" unicode="&#xeb;" horiz-adv-x="553" 
d="M509 210h-346q8 -59 47 -90.5t102 -31.5q49 0 92 13t95 39v-111q-47 -21 -93.5 -30.5t-100.5 -9.5q-76 0 -135 32t-91.5 89.5t-32.5 132.5q0 71 31 128.5t86 90.5t123 33q104 0 163.5 -68t59.5 -187v-30zM209 372q-31 -26 -42 -75h228q-6 47 -34.5 74t-73.5 27
q-47 0 -78 -26zM103 610l74 74l75 -74l-75 -74zM301 610l74 74l75 -74l-75 -74z" />
    <glyph glyph-name="igrave" unicode="&#xec;" horiz-adv-x="267" 
d="M76 484h116v-484h-116v484zM-18 700h136l102 -143h-93z" />
    <glyph glyph-name="iacute" unicode="&#xed;" horiz-adv-x="267" 
d="M76 484h116v-484h-116v484zM150 700h136l-146 -143h-92z" />
    <glyph glyph-name="icircumflex" unicode="&#xee;" horiz-adv-x="267" 
d="M76 484h116v-484h-116v484zM67 697h134l97 -143h-82l-82 83l-82 -83h-82z" />
    <glyph glyph-name="idieresis" unicode="&#xef;" horiz-adv-x="267" 
d="M76 484h116v-484h-116v484zM-40 610l74 74l75 -74l-75 -74zM158 610l74 74l75 -74l-75 -74z" />
    <glyph glyph-name="eth" unicode="&#xf0;" horiz-adv-x="565" 
d="M479 425q40 -85 40 -174q0 -77 -32 -136.5t-89 -92.5t-130 -33q-64 0 -114.5 29.5t-79 82t-28.5 117.5q0 67 29.5 121t81 85t114.5 31q38 0 74 -13q-33 46 -75 86l-122 -60l-51 64l103 51q-40 26 -75 43l101 54q40 -19 77 -47l95 47l52 -62l-81 -40q70 -68 110 -153z
M367 135q36 44 36 115q0 38 -7 69q-49 34 -111 34q-57 0 -92 -35t-35 -95q0 -59 32.5 -95.5t82.5 -36.5q58 0 94 44z" />
    <glyph glyph-name="ntilde" unicode="&#xf1;" horiz-adv-x="605" 
d="M481.5 437q54.5 -58 54.5 -162v-275h-115v266q0 60 -29.5 92.5t-89.5 32.5q-31 0 -60 -10t-51 -25v-356h-115v484h111v-31q55 42 138 42q102 0 156.5 -58zM331.5 562q-16.5 7 -41.5 21q-22 12 -33 17t-22 5q-28 0 -45 -42l-57 38q16 43 40.5 69t64.5 26q17 0 33 -6.5
t40 -20.5q21 -11 33 -16.5t25 -5.5q33 0 46 49l58 -38q-12 -48 -39 -75.5t-68 -27.5q-18 0 -34.5 7z" />
    <glyph glyph-name="ograve" unicode="&#xf2;" horiz-adv-x="607" 
d="M173 22q-59 33 -93 91t-34 129t34 129t93 91t130 33q72 0 131 -33t93 -91t34 -129t-34 -129t-93 -91t-131 -33q-71 0 -130 33zM404.5 138q40.5 41 40.5 104t-40.5 104t-101.5 41q-60 0 -100.5 -41t-40.5 -104t40.5 -104t100.5 -41q61 0 101.5 41zM151 700h136l102 -143
h-93z" />
    <glyph glyph-name="oacute" unicode="&#xf3;" horiz-adv-x="607" 
d="M173 22q-59 33 -93 91t-34 129t34 129t93 91t130 33q72 0 131 -33t93 -91t34 -129t-34 -129t-93 -91t-131 -33q-71 0 -130 33zM404.5 138q40.5 41 40.5 104t-40.5 104t-101.5 41q-60 0 -100.5 -41t-40.5 -104t40.5 -104t100.5 -41q61 0 101.5 41zM319 700h136l-146 -143
h-92z" />
    <glyph glyph-name="ocircumflex" unicode="&#xf4;" horiz-adv-x="607" 
d="M173 22q-59 33 -93 91t-34 129t34 129t93 91t130 33q72 0 131 -33t93 -91t34 -129t-34 -129t-93 -91t-131 -33q-71 0 -130 33zM404.5 138q40.5 41 40.5 104t-40.5 104t-101.5 41q-60 0 -100.5 -41t-40.5 -104t40.5 -104t100.5 -41q61 0 101.5 41zM236 697h134l97 -143
h-82l-82 83l-82 -83h-82z" />
    <glyph glyph-name="otilde" unicode="&#xf5;" horiz-adv-x="607" 
d="M173 22q-59 33 -93 91t-34 129t34 129t93 91t130 33q72 0 131 -33t93 -91t34 -129t-34 -129t-93 -91t-131 -33q-71 0 -130 33zM404.5 138q40.5 41 40.5 104t-40.5 104t-101.5 41q-60 0 -100.5 -41t-40.5 -104t40.5 -104t100.5 -41q61 0 101.5 41zM330.5 562
q-16.5 7 -41.5 21q-22 12 -33 17t-22 5q-28 0 -45 -42l-57 38q16 43 40.5 69t64.5 26q17 0 33 -6.5t40 -20.5q21 -11 33 -16.5t25 -5.5q33 0 46 49l58 -38q-12 -48 -39 -75.5t-68 -27.5q-18 0 -34.5 7z" />
    <glyph glyph-name="odieresis" unicode="&#xf6;" horiz-adv-x="607" 
d="M173 22q-59 33 -93 91t-34 129t34 129t93 91t130 33q72 0 131 -33t93 -91t34 -129t-34 -129t-93 -91t-131 -33q-71 0 -130 33zM404.5 138q40.5 41 40.5 104t-40.5 104t-101.5 41q-60 0 -100.5 -41t-40.5 -104t40.5 -104t100.5 -41q61 0 101.5 41zM129 610l74 74l75 -74
l-75 -74zM327 610l74 74l75 -74l-75 -74z" />
    <glyph glyph-name="divide" unicode="&#xf7;" 
d="M55 383h416v-99h-416v99zM179 149l84 84l83 -84l-83 -83zM179 519l84 84l83 -84l-83 -83z" />
    <glyph glyph-name="oslash" unicode="&#xf8;" horiz-adv-x="607" 
d="M542 340q19 -46 19 -98q0 -71 -34 -129t-93 -91t-131 -33q-68 0 -129 32l-48 -61l-54 43l47 60q-34 34 -53.5 80.5t-19.5 98.5q0 71 34 129t93 91t130 33t129 -33l48 61l55 -44l-46 -59q34 -34 53 -80zM190 153l173 221q-26 13 -60 13q-60 0 -100.5 -41t-40.5 -104
q0 -52 28 -89zM404.5 138q40.5 41 40.5 104q0 50 -27 88l-174 -221q27 -12 59 -12q61 0 101.5 41z" />
    <glyph glyph-name="ugrave" unicode="&#xf9;" horiz-adv-x="605" 
d="M530 484v-484h-111v31q-55 -42 -138 -42q-102 0 -156.5 58t-54.5 162v275h115v-266q0 -60 29.5 -92.5t88.5 -32.5t112 35v356h115zM151 700h136l102 -143h-93z" />
    <glyph glyph-name="uacute" unicode="&#xfa;" horiz-adv-x="605" 
d="M530 484v-484h-111v31q-55 -42 -138 -42q-102 0 -156.5 58t-54.5 162v275h115v-266q0 -60 29.5 -92.5t88.5 -32.5t112 35v356h115zM319 700h136l-146 -143h-92z" />
    <glyph glyph-name="ucircumflex" unicode="&#xfb;" horiz-adv-x="605" 
d="M530 484v-484h-111v31q-55 -42 -138 -42q-102 0 -156.5 58t-54.5 162v275h115v-266q0 -60 29.5 -92.5t88.5 -32.5t112 35v356h115zM236 697h134l97 -143h-82l-82 83l-82 -83h-82z" />
    <glyph glyph-name="udieresis" unicode="&#xfc;" horiz-adv-x="605" 
d="M530 484v-484h-111v31q-55 -42 -138 -42q-102 0 -156.5 58t-54.5 162v275h115v-266q0 -60 29.5 -92.5t88.5 -32.5t112 35v356h115zM129 610l74 74l75 -74l-75 -74zM327 610l74 74l75 -74l-75 -74z" />
    <glyph glyph-name="yacute" unicode="&#xfd;" horiz-adv-x="555" 
d="M542 484l-231 -556q-48 -114 -177 -114q-29 0 -51 3v98q30 -4 48 -4q31 0 51.5 14.5t36.5 47.5l9 20l-214 491h127l142 -349l133 349h126zM294 700h136l-146 -143h-92z" />
    <glyph glyph-name="thorn" unicode="&#xfe;" horiz-adv-x="607" 
d="M443 462.5q56 -32.5 87.5 -90t31.5 -130.5t-32 -130.5t-89 -90t-130 -32.5q-71 0 -120 31v-206h-115v853h115v-209q27 18 59.5 27.5t65.5 9.5q71 0 127 -32.5zM403.5 135q42.5 42 42.5 107q0 64 -42 105t-108 41q-50 0 -105 -34v-227q21 -15 49 -24.5t55 -9.5
q66 0 108.5 42z" />
    <glyph glyph-name="ydieresis" unicode="&#xff;" horiz-adv-x="555" 
d="M542 484l-231 -556q-48 -114 -177 -114q-29 0 -51 3v98q30 -4 48 -4q31 0 51.5 14.5t36.5 47.5l9 20l-214 491h127l142 -349l133 349h126zM104 610l74 74l75 -74l-75 -74zM302 610l74 74l75 -74l-75 -74z" />
    <glyph glyph-name="dotlessi" unicode="&#x131;" horiz-adv-x="267" 
d="M76 484h116v-484h-116v484z" />
    <glyph glyph-name="Ldot" unicode="&#x13f;" horiz-adv-x="535" 
d="M89 667h124v-554h295v-113h-419v667zM330 402l84 84l83 -84l-83 -83z" />
    <glyph glyph-name="ldot" unicode="&#x140;" horiz-adv-x="372" 
d="M111 31.5q-41 42.5 -41 129.5v506h115v-495q0 -81 68 -81q32 0 64 15v-103q-44 -14 -87 -14q-78 0 -119 42.5zM230 352l84 84l83 -84l-83 -83z" />
    <glyph glyph-name="OE" unicode="&#x152;" horiz-adv-x="1087" 
d="M228 33.5q-81 46.5 -128 126t-47 174.5t47 174.5t128 125.5t177 46q64 0 120 -22t100 -64v73h404v-110h-281v-146h214v-110h-214v-189h299v-112h-422v73q-42 -41 -100 -63.5t-120 -22.5q-96 0 -177 46.5zM518.5 131q49.5 30 77 83t27.5 120t-27 120t-77 82.5t-114 29.5
q-65 0 -116.5 -29.5t-80.5 -82.5t-29 -120q0 -68 29 -121t80.5 -82.5t116.5 -29.5q64 0 113.5 30z" />
    <glyph glyph-name="oe" unicode="&#x153;" horiz-adv-x="945" 
d="M901 212h-341q9 -58 47 -91t96 -33q53 0 95 13t93 40v-108q-50 -23 -94.5 -33.5t-99.5 -10.5q-61 0 -113.5 25.5t-84.5 70.5q-34 -45 -85.5 -70.5t-110.5 -25.5q-71 0 -129.5 33t-93 91t-34.5 129t34.5 129t93 91t129.5 33q60 0 111 -25.5t85 -69.5q29 44 75 69.5
t104 25.5q106 0 164.5 -69.5t58.5 -185.5v-28zM787 297q-6 47 -35 74t-74 27t-75.5 -27t-40.5 -74h225zM404.5 138q40.5 41 40.5 104t-40.5 104t-101.5 41q-60 0 -100.5 -41t-40.5 -104t40.5 -104t100.5 -41q61 0 101.5 41z" />
    <glyph glyph-name="Scaron" unicode="&#x160;" horiz-adv-x="524" 
d="M117.5 24q-52.5 37 -90.5 106l96 61q21 -46 53 -69.5t72 -23.5q47 0 77 25.5t30 66.5q0 29 -16.5 49.5t-40.5 35.5t-67 35q-54 26 -88.5 47.5t-58.5 58.5t-24 90q0 49 24.5 89t68.5 62.5t100 22.5q118 0 178 -98l-90 -61q-33 52 -88 52q-32 0 -51 -16.5t-19 -41.5
q0 -31 27 -52t86 -50q58 -28 95 -52.5t63.5 -65t26.5 -98.5q0 -60 -31 -108t-84.5 -75t-118.5 -27q-77 0 -129.5 37zM98 857h82l82 -83l82 83h82l-97 -143h-134z" />
    <glyph glyph-name="scaron" unicode="&#x161;" horiz-adv-x="470" 
d="M48 31v120q83 -65 182 -65q44 0 65.5 13.5t21.5 37.5q0 25 -20.5 40.5t-71.5 25.5q-96 18 -136 51t-40 95q0 42 23.5 75t67 52t99.5 19q85 0 157 -31v-111q-67 45 -155 45q-37 0 -56.5 -10.5t-19.5 -29.5q0 -22 18.5 -32.5t68.5 -20.5q92 -18 136.5 -54.5t44.5 -107.5
q0 -70 -53 -112t-150 -42q-96 0 -182 42zM72 697h82l82 -83l82 83h82l-97 -143h-134z" />
    <glyph glyph-name="Ydieresis" unicode="&#x178;" horiz-adv-x="615" 
d="M247 294l-234 373h143l154 -258l153 258h139l-231 -373v-294h-124v294zM135 787l74 75l75 -75l-75 -74zM333 787l74 75l75 -75l-75 -74z" />
    <glyph glyph-name="Zcaron" unicode="&#x17d;" horiz-adv-x="640" 
d="M397 555h-349v112h562l-369 -555h372v-112h-586zM159 857h82l82 -83l82 83h82l-97 -143h-134z" />
    <glyph glyph-name="zcaron" unicode="&#x17e;" horiz-adv-x="474" 
d="M262 385h-215v99h408l-240 -385h222v-99h-418zM74 697h82l82 -83l82 83h82l-97 -143h-134z" />
    <glyph glyph-name="florin" unicode="&#x192;" horiz-adv-x="462" 
d="M291 497l-10 -61h107l-17 -109h-107l-55 -351q-26 -162 -180 -162q-30 0 -57.5 9t-58.5 26l37 104q42 -26 80 -26q32 0 47 19.5t23 71.5l49 309h-62l18 109h61l10 65q29 179 176 179q47 0 100 -22l-36 -101q-33 15 -59 15q-55 0 -66 -75z" />
    <glyph glyph-name="uni0237" unicode="&#x237;" horiz-adv-x="267" 
d="M-15 -181v107q17 -5 35 -5q33 0 45 20t12 66v477h115v-484q0 -90 -39 -138t-113 -48q-28 0 -55 5z" />
    <glyph glyph-name="gravecomb" unicode="&#x300;" horiz-adv-x="0" 
d="M-268 700h136l102 -143h-93z" />
    <glyph glyph-name="acutecomb" unicode="&#x301;" horiz-adv-x="0" 
d="M-166 700h136l-146 -143h-92z" />
    <glyph glyph-name="uni0302" unicode="&#x302;" horiz-adv-x="0" 
d="M-261 697h134l97 -143h-82l-82 83l-82 -83h-82z" />
    <glyph glyph-name="tildecomb" unicode="&#x303;" horiz-adv-x="0" 
d="M-171.5 562q-16.5 7 -41.5 21q-22 12 -33 17t-22 5q-28 0 -45 -42l-57 38q16 43 40.5 69t64.5 26q17 0 33 -6.5t40 -20.5q21 -11 33 -16.5t25 -5.5q33 0 46 49l58 -38q-12 -48 -39 -75.5t-68 -27.5q-18 0 -34.5 7z" />
    <glyph glyph-name="uni0307" unicode="&#x307;" horiz-adv-x="0" 
d="M-183 610l77 77l76 -77l-76 -76z" />
    <glyph glyph-name="uni0308" unicode="&#x308;" horiz-adv-x="0" 
d="M-377 610l74 74l75 -74l-75 -74zM-179 610l74 74l75 -74l-75 -74z" />
    <glyph glyph-name="uni030A" unicode="&#x30a;" horiz-adv-x="0" 
d="M-189 564q-27 27 -27 66t27 66t66 27t66 -27t27 -66t-27 -66t-66 -27t-66 27zM-91.5 598.5q12.5 12.5 12.5 31.5t-12.5 31.5t-31.5 12.5q-18 0 -31 -12.5t-13 -31.5t13 -31.5t31 -12.5q19 0 31.5 12.5z" />
    <glyph glyph-name="uni030C" unicode="&#x30c;" horiz-adv-x="0" 
d="M-358 697h82l82 -83l82 83h82l-97 -143h-134z" />
    <glyph glyph-name="endash" unicode="&#x2013;" horiz-adv-x="500" 
d="M-6 321h512v-107h-512v107z" />
    <glyph glyph-name="emdash" unicode="&#x2014;" horiz-adv-x="1000" 
d="M-6 321h1012v-107h-1012v107z" />
    <glyph glyph-name="quoteleft" unicode="&#x2018;" horiz-adv-x="257" 
d="M196 671q-38 -40 -38 -77q0 -34 30 -63l24 -24l-81 -81l-24 24q-41 40 -41 85q0 41 35.5 80.5t86.5 64.5z" />
    <glyph glyph-name="quoteright" unicode="&#x2019;" horiz-adv-x="257" 
d="M61 435q38 41 38 78q0 33 -30 63l-24 23l80 81l24 -23q42 -41 42 -86q0 -41 -36 -80t-86 -64z" />
    <glyph glyph-name="quotesinglbase" unicode="&#x201a;" horiz-adv-x="257" 
d="M61 -99q38 41 38 78q0 33 -30 63l-24 23l80 81l24 -23q42 -41 42 -86q0 -41 -36 -80t-86 -64z" />
    <glyph glyph-name="quotedblleft" unicode="&#x201c;" horiz-adv-x="430" 
d="M196 671q-38 -40 -38 -77q0 -34 30 -63l24 -24l-81 -81l-24 24q-41 40 -41 85q0 41 35.5 80.5t86.5 64.5zM369 671q-37 -39 -37 -77q0 -34 29 -63l24 -24l-80 -81l-24 24q-41 38 -41 85q0 41 35.5 80.5t85.5 64.5z" />
    <glyph glyph-name="quotedblright" unicode="&#x201d;" horiz-adv-x="430" 
d="M61 435q38 41 38 78q0 33 -30 63l-24 23l80 81l24 -23q42 -41 42 -86q0 -41 -36 -80t-86 -64zM234 435q38 41 38 78q0 33 -30 63l-24 23l80 81l24 -23q42 -41 42 -86q0 -41 -36 -80t-86 -64z" />
    <glyph glyph-name="quotedblbase" unicode="&#x201e;" horiz-adv-x="430" 
d="M61 -128q38 41 38 78q0 33 -30 63l-24 23l80 81l24 -23q42 -41 42 -86q0 -41 -36 -80t-86 -64zM234 -128q38 41 38 78q0 33 -30 63l-24 23l80 81l24 -23q42 -41 42 -86q0 -41 -36 -80t-86 -64z" />
    <glyph glyph-name="dagger" unicode="&#x2020;" horiz-adv-x="443" 
d="M180 409l-153 -27v119l153 -24l-20 190h123l-21 -190l154 24v-119l-154 27l25 -595h-131z" />
    <glyph glyph-name="daggerdbl" unicode="&#x2021;" horiz-adv-x="443" 
d="M180 12l-153 -21v111l154 -20l-13 164l12 163l-153 -27v118l152 -24l-19 191h122l-18 -191l152 24v-118l-152 27l11 -163l-13 -164l154 20v-111l-152 21l20 -198h-125z" />
    <glyph glyph-name="bullet" unicode="&#x2022;" horiz-adv-x="424" 
d="M85 306l127 127l127 -127l-127 -127z" />
    <glyph glyph-name="ellipsis" unicode="&#x2026;" horiz-adv-x="923" 
d="M45 70l84 84l83 -84l-83 -83zM378 70l84 84l83 -84l-83 -83zM711 70l84 84l83 -84l-83 -83z" />
    <glyph glyph-name="perthousand" unicode="&#x2030;" horiz-adv-x="1184" 
d="M126 387q-36 21 -57 57t-21 79t21 79t57 57t79 21t79 -21t57 -57t21 -79t-21 -79t-57 -57t-79 -21t-79 21zM278 -13h-98l364 693h98zM254 474.5q20 20.5 20 48.5q0 29 -20 49t-49 20q-28 0 -48.5 -20t-20.5 -49q0 -28 20.5 -48.5t48.5 -20.5q29 0 49 20.5zM693.5 282
q36.5 -21 57.5 -57t21 -79t-21 -79t-57.5 -57t-79.5 -21t-79 21t-57 57t-21 79t21 79t57 57t79 21t79.5 -21zM1058 282q36 -21 57 -57t21 -79t-21 -79t-57 -57t-79 -21t-79 21t-57 57t-21 79t21 79t57 57t79 21t79 -21zM566 194.5q-20 -19.5 -20 -48.5t19.5 -49t48.5 -20
t49 20t20 49t-20 48.5t-49 19.5q-28 0 -48 -19.5zM930 194q-20 -20 -20 -48q0 -29 20 -49t49 -20t49 20t20 49q0 28 -20 48t-49 20t-49 -20z" />
    <glyph glyph-name="guilsinglleft" unicode="&#x2039;" horiz-adv-x="363" 
d="M39 264l166 212h120l-168 -212l168 -209h-120z" />
    <glyph glyph-name="guilsinglright" unicode="&#x203a;" horiz-adv-x="363" 
d="M39 55l168 209l-168 212h119l167 -212l-167 -209h-119z" />
    <glyph glyph-name="fraction" unicode="&#x2044;" horiz-adv-x="107" 
d="M185 680h98l-364 -693h-97z" />
    <glyph glyph-name="uni2074" unicode="&#x2074;" horiz-adv-x="410" 
d="M248 337h-231l321 343v-274h46v-69h-46v-74h-90v74zM256 403v100l-93 -100h93z" />
    <glyph glyph-name="Euro" unicode="&#x20ac;" horiz-adv-x="625" 
d="M490 111.5q40 11.5 82 37.5v-127q-83 -35 -171 -35q-115 0 -197.5 63.5t-113.5 168.5h-72l17 82h40q-1 10 -1 30q0 15 2 41h-58l17 81h56q32 104 112.5 165.5t194.5 61.5q91 0 167 -34v-127q-43 26 -79.5 37t-84.5 11q-66 0 -112 -30t-69 -84h250l-18 -81h-251
q-2 -22 -2 -35q0 -12 2 -36h238l-17 -82h-202q24 -57 70.5 -88t112.5 -31q47 0 87 11.5z" />
    <glyph glyph-name="afii61352" unicode="&#x2116;" horiz-adv-x="1079" 
d="M779 387q-36 21 -57 57t-21 79t21 79t57 57t79 21t79 -21t57 -57t21 -79t-21 -79t-57 -57t-79 -21t-79 21zM89 667h133l273 -462v462h125v-667h-137l-270 457v-457h-124v667zM907 474.5q20 20.5 20 48.5q0 29 -20 49t-49 20q-28 0 -48.5 -20t-20.5 -49q0 -28 20.5 -48.5
t48.5 -20.5q29 0 49 20.5zM704 283h330v-93h-330v93z" />
    <glyph glyph-name="trademark" unicode="&#x2122;" horiz-adv-x="831" 
d="M129 584h-115v83h321v-83h-112v-297h-94v297zM378 667h88l116 -140l115 140h90v-380h-94v243l-111 -136l-110 135v-242h-94v380z" />
    <glyph glyph-name="minus" unicode="&#x2212;" 
d="M60 383h416v-99h-416v99z" />
    <glyph glyph-name="uniFEFF" unicode="&#xfeff;" horiz-adv-x="0" 
 />
    <glyph glyph-name="i.locl" horiz-adv-x="267" 
d="M76 484h116v-484h-116v484zM57 610l77 77l76 -77l-76 -76z" />
    <glyph glyph-name="zero.aalt" 
d="M146 29q-52 42 -80.5 120.5t-28.5 183.5q0 106 28.5 184.5t80.5 120.5t122 42q71 0 123 -42t80.5 -120.5t28.5 -184.5t-28.5 -184t-81 -120t-122.5 -42t-122 42zM349.5 155q28.5 62 28.5 178t-28.5 178.5t-81.5 62.5t-81.5 -62.5t-28.5 -178.5q0 -115 28.5 -177.5
t81.5 -62.5t81.5 62z" />
    <glyph glyph-name="one.tnum" 
d="M208 599l121 81v-680h-121v599z" />
    <glyph glyph-name="two.tnum" 
d="M281 349q29 45 41 73t12 57q0 40 -26 64.5t-69 24.5t-86.5 -25t-82.5 -71h-2v133q34 35 81 55t99 20q93 0 150 -52.5t57 -139.5q0 -46 -17 -93t-52 -101l-120 -185h204v-109h-412z" />
    <glyph glyph-name="three.tnum" 
d="M121.5 11q-49.5 24 -92.5 67l71 86q58 -67 135 -67q57 0 92 34t35 85q0 53 -38 88.5t-109 35.5q-36 0 -69 -11l142 230h-237v108h429l-153 -247q68 -15 112 -69t44 -134q0 -59 -28.5 -111.5t-84.5 -85.5t-134 -33q-65 0 -114.5 24z" />
    <glyph glyph-name="four.tnum" 
d="M331 150h-346l465 530v-437h79v-93h-79v-150h-119v150zM333 241v176l-152 -176h152z" />
    <glyph glyph-name="five.aalt" horiz-adv-x="537" 
d="M373 407q50 -28 77.5 -77.5t27.5 -112.5q0 -62 -30 -115t-85 -84t-126 -31q-66 0 -116.5 23.5t-97.5 66.5l68 90q60 -70 143 -70q53 0 87.5 32t34.5 87q0 62 -42 93t-100 31q-28 0 -58.5 -7t-55.5 -18l35 352h349l-47 -108h-198l-13 -126q20 2 30 2q67 0 117 -28z" />
    <glyph glyph-name="six.aalt" 
d="M397 395.5q47 -28.5 71.5 -76.5t24.5 -106q0 -60 -27.5 -111.5t-79 -83t-120.5 -31.5q-67 0 -118 33t-79 90t-28 127q0 114 59 227.5t161 202.5h162q-162 -136 -223 -259q45 16 86 16q64 0 111 -28.5zM346 130.5q30 31.5 30 80.5q0 52 -30 79t-75 27q-55 0 -108 -30
q-4 -24 -4 -56q0 -55 30.5 -93.5t79.5 -38.5q47 0 77 31.5z" />
    <glyph glyph-name="seven.aalt" 
d="M337 559h-267v108h441l-297 -667h-131z" />
    <glyph glyph-name="eight.aalt" 
d="M151.5 12.5q-50.5 25.5 -79.5 70.5t-29 101q0 114 127 177q-94 50 -94 146q0 48 25.5 87.5t69.5 62.5t98 23q53 0 96.5 -22.5t68 -61t24.5 -85.5q0 -49 -25 -86t-70 -60q63 -30 96 -73t33 -108q0 -56 -30 -101t-82 -70.5t-116 -25.5q-62 0 -112.5 25.5zM328 454
q21 24 21 54q0 31 -23 52t-59 21q-35 0 -58 -21t-23 -52q0 -56 84 -94q37 16 58 40zM342 117.5q30 25.5 30 68.5q0 40 -28.5 68t-78.5 49q-47 -17 -74 -46.5t-27 -70.5t29.5 -67.5t73.5 -26.5q45 0 75 25.5z" />
    <glyph glyph-name="nine.aalt" 
d="M389.5 647q51.5 -33 79 -90t27.5 -127q0 -114 -59 -227.5t-161 -202.5h-161q161 135 222 259q-45 -16 -85 -16q-64 0 -111.5 28.5t-72 76.5t-24.5 106q0 60 27.5 111.5t79 83t120.5 31.5q67 0 118.5 -33zM374 380q4 24 4 56q0 55 -30.5 93.5t-79.5 38.5q-47 0 -77 -31.5
t-30 -80.5q0 -51 30 -78.5t75 -27.5q55 0 108 30z" />
    <glyph glyph-name="uni0308.aalt" horiz-adv-x="0" 
d="M-377 787l74 75l75 -75l-75 -74zM-179 787l74 75l75 -75l-75 -74z" />
    <glyph glyph-name="uni0307.aalt" horiz-adv-x="0" 
d="M-183 787l77 77l76 -77l-76 -76z" />
    <glyph glyph-name="gravecomb.aalt" horiz-adv-x="0" 
d="M-268 860h136l102 -143h-93z" />
    <glyph glyph-name="acutecomb.aalt" horiz-adv-x="0" 
d="M-166 860h136l-146 -143h-92z" />
    <glyph glyph-name="uni0302.aalt" horiz-adv-x="0" 
d="M-261 857h134l97 -143h-82l-82 83l-82 -83h-82z" />
    <glyph glyph-name="uni030C.aalt" horiz-adv-x="0" 
d="M-358 857h82l82 -83l82 83h82l-97 -143h-134z" />
    <glyph glyph-name="uni030A.aalt" horiz-adv-x="0" 
d="M-189 724q-27 27 -27 66t27 66t66 27t66 -27t27 -66t-27 -66t-66 -27t-66 27zM-91.5 758.5q12.5 12.5 12.5 31.5t-12.5 31.5t-31.5 12.5q-18 0 -31 -12.5t-13 -31.5t13 -31.5t31 -12.5q19 0 31.5 12.5z" />
    <glyph glyph-name="tildecomb.aalt" horiz-adv-x="0" 
d="M-171.5 722q-16.5 7 -41.5 21q-22 12 -33 17t-22 5q-28 0 -45 -42l-57 38q16 43 40.5 69t64.5 26q17 0 33 -6.5t40 -20.5q21 -11 33 -16.5t25 -5.5q33 0 46 49l58 -38q-12 -48 -39 -75.5t-68 -27.5q-18 0 -34.5 7z" />
    </font>
</defs>
</svg>
