<?xml version="1.0" standalone="no"?>
<!DOCTYPE svg PUBLIC "-//W3C//DTD SVG 1.1//EN" "http://www.w3.org/Graphics/SVG/1.1/DTD/svg11.dtd" >
<svg xmlns="http://www.w3.org/2000/svg" xmlns:xlink="http://www.w3.org/1999/xlink" version="1.1">
<metadata>
Created by FontForge 20230101 at Fri Mar 18 00:27:43 2016
 By Unknown
Copyright (c) 2016 Monotype Imaging Inc. All rights reserved.
</metadata>
<defs>
<font id="Johnston100W03-Light" horiz-adv-x="536" >
  <font-face 
    font-family="Johnston100W03-Light"
    font-weight="350"
    font-stretch="normal"
    units-per-em="1000"
    panose-1="2 11 4 3 3 3 4 2 2 4"
    ascent="800"
    descent="-200"
    x-height="475"
    cap-height="667"
    bbox="-340 -250 1876 882"
    underline-thickness="50"
    underline-position="-125"
    unicode-range="U+000D-FEFF"
  />
<missing-glyph horiz-adv-x="439" 
d="M439 667v-667h-439v667h439zM374 63v541h-310v-541h310z" />
    <glyph glyph-name="arrowleft" unicode="&#x3c;&#x2d;&#x2d;" horiz-adv-x="1976" 
d="M1870 260h-101l90 -86h-59l-90 86h-64l90 -86h-59l-90 86h-64l90 -86h-59l-90 86h-64l90 -86h-59l-90 86h-1008l-16 -17l121 -61l-28 -43l-310 152l310 152l28 -43l-121 -61l16 -17h1008l90 86h59l-90 -86h64l90 86h59l-90 -86h64l90 86h59l-90 -86h64l90 86h59l-90 -86
h101v-62z" />
    <glyph glyph-name="arrowright" unicode="&#x2d;&#x2d;&#x3e;" horiz-adv-x="1976" 
d="M1876 291l-310 -152l-27 43l121 61l-17 17h-1008l-90 -86h-59l90 86h-64l-90 -86h-59l90 86h-64l-90 -86h-59l90 86h-64l-90 -86h-59l90 86h-101v62h101l-90 86h59l90 -86h64l-90 86h59l90 -86h64l-90 86h59l90 -86h64l-90 86h59l90 -86h1008l16 17l-120 61l27 43z" />
    <glyph glyph-name="uniFB01" unicode="fi" horiz-adv-x="618" 
d="M199 584q-27 -32 -27 -90v-19h199v-64h-199v-411h-69v411h-83v64h83v18q0 87 46 137t131 50q45 0 91 -14v-68q-42 18 -94 18q-51 0 -78 -32zM447 588l54 53l52 -53l-52 -53zM465 475h70v-475h-70v475z" />
    <glyph glyph-name="uniFB02" unicode="fl" horiz-adv-x="692" 
d="M199 584q-27 -32 -27 -90v-19h199v-64h-199v-411h-69v411h-83v64h83v18q0 87 46 137t131 50q45 0 91 -14v-68q-42 18 -94 18q-51 0 -78 -32zM495 31.5q-36 39.5 -36 120.5v515h69v-514q0 -97 81 -97q36 0 70 16v-66q-34 -14 -80 -14q-68 0 -104 39.5z" />
    <glyph glyph-name=".notdef" horiz-adv-x="439" 
d="M439 667v-667h-439v667h439zM374 63v541h-310v-541h310z" />
    <glyph glyph-name="glyph1" horiz-adv-x="0" 
 />
    <glyph glyph-name="uni000D" unicode="&#xd;" horiz-adv-x="248" 
 />
    <glyph glyph-name="space" unicode=" " horiz-adv-x="248" 
 />
    <glyph glyph-name="exclam" unicode="!" horiz-adv-x="278" 
d="M107 349q-6 97 -6 189v129h77v-129q0 -108 -5 -189l-11 -211h-44zM88 40l51 51l51 -51l-51 -51z" />
    <glyph glyph-name="quotedbl" unicode="&#x22;" horiz-adv-x="386" 
d="M79 546v121h67v-121l-17 -134h-33zM240 546v121h67v-121l-17 -134h-33z" />
    <glyph glyph-name="numbersign" unicode="#" horiz-adv-x="727" 
d="M533 416l-47 -166h150l-16 -59h-151l-51 -179l-64 -22l57 201h-176l-51 -179l-64 -22l57 201h-150l16 59h151l47 166h-150l16 59h151l51 180l65 22l-58 -202h176l51 180l65 22l-58 -202h149l-16 -59h-150zM475 416h-176l-47 -166h176z" />
    <glyph glyph-name="dollar" unicode="$" horiz-adv-x="496" 
d="M397.5 53q-51.5 -55 -132.5 -64v-67h-66v68q-113 17 -172 138l58 38q22 -53 62 -81.5t89 -28.5q60 0 98.5 34.5t38.5 90.5q0 38 -19.5 65.5t-49 46t-78.5 42.5q-55 27 -88 48.5t-56 55.5t-23 83q0 59 38.5 101.5t101.5 53.5v65h66v-64q89 -12 138 -88l-56 -41
q-19 30 -48.5 46.5t-64.5 16.5q-44 0 -72 -23.5t-28 -59.5q0 -29 17.5 -51.5t43 -38.5t71.5 -39q59 -29 95 -53t62 -63.5t26 -95.5q0 -80 -51.5 -135z" />
    <glyph glyph-name="percent" unicode="%" horiz-adv-x="766" 
d="M127.5 407q-33.5 20 -53 53.5t-19.5 73.5t19.5 73.5t53 53t73.5 19.5t73.5 -20t53.5 -53.5t20 -72.5q0 -40 -20 -73.5t-53.5 -53.5t-73.5 -20t-73.5 20zM241 -11h-60l347 691h60zM264.5 470.5q26.5 26.5 26.5 63.5t-26.5 63t-63.5 26t-63.5 -26t-26.5 -63t26.5 -63.5
t63.5 -26.5t63.5 26.5zM638.5 264q33.5 -20 53.5 -53.5t20 -73.5t-19.5 -73.5t-53 -53t-73.5 -19.5t-73.5 19.5t-53.5 53t-20 73.5t20 73.5t53.5 53.5t73.5 20q39 0 72.5 -20zM502 200.5q-27 -26.5 -27 -63.5t27 -63.5t64 -26.5t63 26.5t26 63.5t-26 63.5t-63 26.5
t-64 -26.5z" />
    <glyph glyph-name="ampersand" unicode="&#x26;" horiz-adv-x="674" 
d="M562 0l-92 95q-100 -108 -218 -108q-61 0 -107 24t-70.5 64.5t-24.5 90.5q0 69 38 115t119 86q-45 48 -66 82.5t-21 76.5t23 77.5t62 56t85 20.5q47 0 85 -19.5t59.5 -54t21.5 -77.5q0 -58 -34.5 -97.5t-106.5 -78.5l154 -159q48 73 71 154h73q-39 -116 -100 -200
l144 -148h-95zM220.5 590.5q-27.5 -25.5 -27.5 -62.5q0 -30 18 -58t61 -73q59 30 85 58.5t26 71.5q0 38 -26.5 63.5t-66.5 25.5q-42 0 -69.5 -25.5zM345 77.5q44 22.5 81 63.5l-174 180q-70 -36 -100 -69t-30 -83q0 -49 37.5 -81.5t95.5 -32.5q46 0 90 22.5z" />
    <glyph glyph-name="quotesingle" unicode="'" horiz-adv-x="225" 
d="M79 546v121h67v-121l-17 -134h-33z" />
    <glyph glyph-name="parenleft" unicode="(" horiz-adv-x="244" 
d="M59 335q0 123 24 225.5t65 181.5h62q-45 -99 -65 -194.5t-20 -212.5q0 -128 20.5 -220.5t64.5 -189.5h-62q-89 176 -89 410z" />
    <glyph glyph-name="parenright" unicode=")" horiz-adv-x="244" 
d="M185 332q0 -122 -24 -224.5t-65 -182.5h-62q45 99 65 194.5t20 212.5q0 127 -21 219.5t-64 190.5h62q89 -176 89 -410z" />
    <glyph glyph-name="asterisk" unicode="*" horiz-adv-x="407" 
d="M187 477l-116 -87l-31 51l131 59l-131 66l31 51l116 -87l-14 150h62l-16 -150l117 87l30 -51l-130 -66l130 -59l-31 -50l-116 86l15 -149h-61z" />
    <glyph glyph-name="plus" unicode="+" 
d="M237 304h-160v62h160v152h62v-152h160v-62h-160v-155h-62v155z" />
    <glyph glyph-name="comma" unicode="," horiz-adv-x="227" 
d="M66 -109q41 48 41 86q0 26 -23 49l-19 20l57 56l15 -15q30 -28 30 -68q0 -34 -27 -69.5t-68 -65.5z" />
    <glyph glyph-name="hyphen" unicode="-" horiz-adv-x="385" 
d="M38 300h309v-65h-309v65z" />
    <glyph glyph-name="period" unicode="." horiz-adv-x="227" 
d="M57 46l57 56l56 -56l-56 -57z" />
    <glyph glyph-name="slash" unicode="/" horiz-adv-x="300" 
d="M233 738h66l-234 -813h-63z" />
    <glyph glyph-name="zero" unicode="0" horiz-adv-x="567" 
d="M170 28.5q-48 41.5 -73.5 119.5t-25.5 185q0 108 25.5 186t73.5 119.5t114 41.5t113.5 -41.5t73 -119.5t25.5 -186q0 -107 -25.5 -185t-73 -119.5t-113.5 -41.5t-114 41.5zM387.5 127q36.5 72 36.5 206q0 135 -36.5 207t-103.5 72q-68 0 -104 -72t-36 -207
q0 -134 36 -206t104 -72q67 0 103.5 72z" />
    <glyph glyph-name="one" unicode="1" horiz-adv-x="273" 
d="M101 629l71 51v-680h-71v629z" />
    <glyph glyph-name="two" unicode="2" horiz-adv-x="492" 
d="M295 349q34 48 48.5 83t14.5 65q0 50 -32 82.5t-86 32.5q-43 0 -84.5 -23t-76.5 -67h-3v82q32 37 73.5 56.5t90.5 19.5q57 0 100.5 -23t66.5 -64t23 -93q0 -41 -16 -84.5t-53 -96.5l-178 -251h261v-68h-391z" />
    <glyph glyph-name="three" unicode="3" horiz-adv-x="506" 
d="M116.5 8q-47.5 21 -87.5 61l45 52q58 -68 152 -68q51 0 88.5 20.5t57 55t19.5 76.5q0 65 -43.5 109t-119.5 44q-39 0 -70 -10l174 251h-288v68h411l-178 -258q84 -5 135.5 -61t51.5 -140q0 -58 -27.5 -108.5t-81 -81.5t-129.5 -31q-62 0 -109.5 21z" />
    <glyph glyph-name="four" unicode="4" horiz-adv-x="580" 
d="M377 180h-360l430 500v-442h97v-58h-97v-180h-70v180zM377 238v275l-235 -275h235z" />
    <glyph glyph-name="five" unicode="5" horiz-adv-x="510" 
d="M348 405q51 -28 78.5 -78.5t27.5 -114.5q0 -63 -29 -114.5t-82.5 -81t-122.5 -29.5q-63 0 -113 23t-96 67l41 54q32 -37 74.5 -57.5t93.5 -20.5q72 0 117.5 42.5t45.5 116.5q0 51 -23.5 87.5t-63 55t-86.5 18.5q-31 0 -64.5 -8.5t-60.5 -22.5l32 325h344l-30 -68h-250
l-19 -178q34 12 68 12q67 0 118 -28z" />
    <glyph glyph-name="six" unicode="6" horiz-adv-x="525" 
d="M393.5 387.5q46.5 -27.5 70.5 -75t24 -105.5q0 -57 -26 -107.5t-75 -81.5t-115 -31t-114.5 33t-73.5 88t-25 122q0 117 66 234t183 203h103q-189 -135 -250 -284q61 32 121 32q65 0 111.5 -27.5zM377 97.5q39 42.5 39 107.5q0 67 -39 104.5t-101 37.5q-71 0 -138 -42
q-7 -35 -7 -75q0 -47 17 -87t50 -64t78 -24q62 0 101 42.5z" />
    <glyph glyph-name="seven" unicode="7" horiz-adv-x="481" 
d="M357 599h-303v68h409l-300 -667h-80z" />
    <glyph glyph-name="eight" unicode="8" horiz-adv-x="513" 
d="M147 12.5q-47 25.5 -73.5 69t-26.5 95.5q0 64 38 106.5t106 78.5q-51 27 -79 64.5t-28 92.5q0 45 22.5 82t62.5 58t90 21q49 0 88 -20.5t61 -56t22 -79.5q0 -56 -29 -93t-81 -64q72 -36 109 -77.5t37 -112.5q0 -53 -27.5 -96.5t-76.5 -68.5t-110 -25q-58 0 -105 25.5z
M363 521q0 41 -29.5 68t-75.5 27q-47 0 -76.5 -27t-29.5 -68q0 -42 28.5 -71.5t78.5 -51.5q104 46 104 123zM354.5 89.5q38.5 34.5 38.5 87.5q0 55 -36 88t-103 64q-62 -26 -98 -61t-36 -91q0 -52 38 -87t97 -35q61 0 99.5 34.5z" />
    <glyph glyph-name="nine" unicode="9" horiz-adv-x="525" 
d="M367.5 647q48.5 -33 73.5 -88t25 -122q0 -117 -66 -234t-184 -203h-102q189 135 250 285q-58 -33 -121 -33q-65 0 -111.5 27.5t-70.5 75t-24 105.5q0 57 26 107.5t75 81.5t115 31t114.5 -33zM394 437q0 47 -17 87t-50 64t-78 24q-62 0 -101.5 -42.5t-39.5 -107.5
q0 -66 39.5 -104t101.5 -38q71 0 138 42q7 35 7 75z" />
    <glyph glyph-name="colon" unicode=":" horiz-adv-x="267" 
d="M77 46l57 56l56 -56l-56 -57zM77 440l57 56l56 -56l-56 -57z" />
    <glyph glyph-name="semicolon" unicode=";" horiz-adv-x="275" 
d="M95 -109q41 48 41 86q0 26 -23 49l-19 20l57 56l15 -15q30 -28 30 -68q0 -34 -27 -69.5t-68 -65.5zM82 427l57 56l56 -56l-56 -57z" />
    <glyph glyph-name="less" unicode="&#x3c;" 
d="M459 479l-295 -145l295 -146v-74l-382 193v54l382 193v-75z" />
    <glyph glyph-name="equal" unicode="=" 
d="M97 469h382v-62h-382v62zM97 263h382v-62h-382v62z" />
    <glyph glyph-name="greater" unicode="&#x3e;" 
d="M77 189l295 145l-295 146v74l382 -193v-54l-382 -193v75z" />
    <glyph glyph-name="question" unicode="?" horiz-adv-x="461" 
d="M154 219.5q-17 27.5 -17 60.5q0 39 24 63.5t72 54.5q47 29 71 53t24 62q0 45 -32 72t-84 27q-38 0 -73 -15.5t-68 -55.5l-46 49q75 90 187 90q83 0 135.5 -46t52.5 -121q0 -40 -17 -69.5t-41 -48.5t-61 -41q-38 -24 -55 -39.5t-17 -37.5q0 -17 9.5 -31.5t34.5 -39.5
l-46 -46q-36 32 -53 59.5zM151 46l57 56l56 -56l-56 -57z" />
    <glyph glyph-name="at" unicode="@" horiz-adv-x="949" 
d="M703 635q89 -48 138 -133t49 -193q0 -91 -29 -157t-75.5 -100t-99.5 -34q-75 0 -105 47q-56 -47 -125 -47q-55 0 -98.5 24.5t-68.5 71.5t-25 111q0 81 29.5 141t82 92.5t119.5 32.5q65 0 114 -28l54 29l-38 -349q-3 -34 13.5 -51.5t51.5 -17.5q36 0 68 25.5t52 78.5
t20 131q0 96 -43 167.5t-119.5 110t-172.5 38.5q-106 0 -192 -48.5t-135 -137.5t-49 -205q0 -104 41 -183.5t119 -124t186 -44.5q104 0 191 51v-69q-90 -39 -194 -39q-119 0 -210.5 49t-142 141t-50.5 218q0 130 56 232.5t155.5 160t226.5 57.5q117 0 206 -48zM564 114
l-1 19l1 18l28 257q-41 28 -97 28q-49 0 -87.5 -27t-59.5 -75t-21 -109q0 -73 38.5 -112.5t96.5 -39.5t102 41z" />
    <glyph glyph-name="A" unicode="A" horiz-adv-x="667" 
d="M491 182h-318l-75 -182h-78l279 667h63l285 -667h-80zM463 250l-132 318l-130 -318h262z" />
    <glyph glyph-name="B" unicode="B" horiz-adv-x="598" 
d="M508.5 309.5q40.5 -47.5 40.5 -114.5q0 -89 -63 -142t-169 -53h-219v667h178q91 0 145 -44.5t54 -118.5q0 -43 -19.5 -76.5t-56.5 -55.5q69 -15 109.5 -62.5zM172 391h105q57 0 90 28.5t33 76.5q0 49 -33 78t-90 29h-105v-212zM431.5 100.5q41.5 34.5 41.5 95.5
q0 60 -41 94.5t-115 34.5h-145v-259h145q73 0 114.5 34.5z" />
    <glyph glyph-name="C" unicode="C" horiz-adv-x="682" 
d="M237 33q-82 46 -130 125.5t-48 176.5q0 96 47.5 175t129 124.5t180.5 45.5q118 0 207 -48v-78q-51 30 -97 44t-108 14q-81 0 -145.5 -35t-101.5 -97.5t-37 -141.5q0 -82 37 -146.5t102 -100.5t146 -36q55 0 102 13.5t102 47.5v-79q-43 -24 -97 -37t-109 -13
q-98 0 -180 46z" />
    <glyph glyph-name="D" unicode="D" horiz-adv-x="721" 
d="M98 667h188q109 0 194.5 -41t133.5 -116t48 -174q0 -104 -48 -180t-135 -116t-200 -40h-181v667zM286 68q90 0 158 33t105.5 93t37.5 139q0 83 -39 143t-107 91.5t-155 31.5h-114v-531h114z" />
    <glyph glyph-name="E" unicode="E" horiz-adv-x="575" 
d="M98 667h419v-68h-345v-205h271v-68h-271v-258h359v-68h-433v667z" />
    <glyph glyph-name="F" unicode="F" horiz-adv-x="525" 
d="M98 667h400v-68h-326v-206h249v-68h-249v-325h-74v667z" />
    <glyph glyph-name="G" unicode="G" horiz-adv-x="739" 
d="M231 32.5q-80 45.5 -126 125t-46 177.5q0 97 47 176t127.5 124t176.5 45q75 0 129 -15t105 -45v-82q-58 38 -109.5 56t-122.5 18q-77 0 -140.5 -36t-100.5 -99t-37 -142q0 -80 36 -144.5t99 -100.5t141 -36q93 0 177 42v207h-165v68h239v-316q-53 -31 -119.5 -49.5
t-132.5 -18.5q-98 0 -178 45.5z" />
    <glyph glyph-name="H" unicode="H" horiz-adv-x="728" 
d="M98 667h74v-266h384v266h74v-667h-74v334h-384v-334h-74v667z" />
    <glyph glyph-name="I" unicode="I" horiz-adv-x="270" 
d="M98 667h74v-667h-74v667z" />
    <glyph glyph-name="J" unicode="J" horiz-adv-x="469" 
d="M20 106l64 34q18 -42 44.5 -61.5t65.5 -19.5q51 0 80 34.5t29 104.5v469h73v-479q0 -92 -50 -146.5t-131 -54.5q-121 0 -175 119z" />
    <glyph glyph-name="K" unicode="K" horiz-adv-x="598" 
d="M98 667h74v-263l304 263h97l-337 -291l356 -376h-96l-324 342v-342h-74v667z" />
    <glyph glyph-name="L" unicode="L" horiz-adv-x="544" 
d="M98 667h74v-598h345v-69h-419v667z" />
    <glyph glyph-name="M" unicode="M" horiz-adv-x="869" 
d="M98 667h75l262 -312l261 312h75v-667h-74v559l-263 -314l-262 314v-559h-74v667z" />
    <glyph glyph-name="N" unicode="N" horiz-adv-x="779" 
d="M98 667h68l441 -545v545h74v-667h-68l-441 545v-545h-74v667z" />
    <glyph glyph-name="O" unicode="O" horiz-adv-x="819" 
d="M234.5 34q-80.5 46 -128 125.5t-47.5 174.5t47.5 174.5t128 125.5t175.5 46q94 0 174.5 -46.5t128 -125.5t47.5 -174t-47.5 -174t-128 -125.5t-174.5 -46.5q-95 0 -175.5 46zM549 93q63 36 99.5 99.5t36.5 141.5t-36.5 141.5t-99.5 99.5t-139 36q-77 0 -140 -36
t-99.5 -99.5t-36.5 -141.5t36.5 -141.5t99.5 -99.5t140 -36q76 0 139 36z" />
    <glyph glyph-name="P" unicode="P" horiz-adv-x="579" 
d="M98 667h206q109 0 167 -53t58 -143q0 -94 -62.5 -146.5t-166.5 -52.5h-128v-272h-74v667zM294 339q77 0 118.5 34t41.5 96q0 64 -41 97t-119 33h-122v-260h122z" />
    <glyph glyph-name="Q" unicode="Q" horiz-adv-x="819" 
d="M736 208q-24 -60 -67 -107l71 -65l-47 -52l-77 70q-44 -31 -97 -48.5t-109 -17.5q-95 0 -175.5 46t-128 125.5t-47.5 174.5t47.5 174.5t128 125.5t175.5 46q94 0 174.5 -46.5t128 -125.5t47.5 -174q0 -66 -24 -126zM564 102l-74 67l47 52l80 -73q32 38 50 85.5t18 100.5
q0 78 -36.5 141.5t-99.5 99.5t-139 36q-77 0 -140 -36t-99.5 -99.5t-36.5 -141.5t36.5 -141.5t99.5 -99.5t140 -36q86 0 154 45z" />
    <glyph glyph-name="R" unicode="R" horiz-adv-x="594" 
d="M500 0l-235 312h-93v-312h-74v667h166q116 0 173.5 -48t57.5 -128q0 -65 -36 -110.5t-109 -60.5l241 -320h-91zM172 378h101q72 0 110 29.5t38 84.5q0 109 -162 109h-87v-223z" />
    <glyph glyph-name="S" unicode="S" horiz-adv-x="496" 
d="M112 23.5q-52 36.5 -85 104.5l58 38q22 -53 62 -81.5t89 -28.5q60 0 98.5 34.5t38.5 90.5q0 38 -19.5 65.5t-49 46t-78.5 42.5q-55 27 -88 48.5t-56 55.5t-23 83q0 44 22.5 80t62 57t90.5 21q56 0 99 -24t70 -66l-56 -41q-19 30 -48.5 46.5t-64.5 16.5q-44 0 -72 -23.5
t-28 -59.5q0 -29 17.5 -51.5t43 -38.5t71.5 -39q59 -29 95 -53t62 -63.5t26 -95.5q0 -57 -27.5 -103t-76 -72t-109.5 -26q-72 0 -124 36.5z" />
    <glyph glyph-name="T" unicode="T" horiz-adv-x="576" 
d="M251 599h-224v68h523v-68h-225v-599h-74v599z" />
    <glyph glyph-name="U" unicode="U" horiz-adv-x="768" 
d="M232 27q-67 40 -104.5 109t-37.5 152v379h74v-379q0 -64 27.5 -117t78 -84t115.5 -31q64 0 114.5 31t78 84t27.5 117v379h74v-379q0 -83 -37 -152t-104.5 -109t-152.5 -40q-86 0 -153 40z" />
    <glyph glyph-name="V" unicode="V" horiz-adv-x="633" 
d="M613 667l-259 -667h-68l-266 667h80l220 -567l215 567h78z" />
    <glyph glyph-name="W" unicode="W" horiz-adv-x="967" 
d="M931 667l-203 -667h-73l-171 544l-166 -544h-73l-209 667h78l170 -556l164 542h75l169 -540l163 554h76z" />
    <glyph glyph-name="X" unicode="X" horiz-adv-x="671" 
d="M574 0l-244 302l-233 -302h-88l277 353l-256 314h88l213 -264l203 264h88l-246 -314l286 -353h-88z" />
    <glyph glyph-name="Y" unicode="Y" horiz-adv-x="591" 
d="M260 308l-245 359h85l199 -293l195 293h82l-242 -359v-308h-74v308z" />
    <glyph glyph-name="Z" unicode="Z" horiz-adv-x="611" 
d="M453 599h-398v68h529l-426 -599h423v-68h-554z" />
    <glyph glyph-name="bracketleft" unicode="[" horiz-adv-x="310" 
d="M83 774h191v-53h-125v-778h125v-54h-191v885z" />
    <glyph glyph-name="backslash" unicode="\" horiz-adv-x="301" 
d="M2 738h65l232 -813h-64z" />
    <glyph glyph-name="bracketright" unicode="]" horiz-adv-x="310" 
d="M226 -111h-191v53h125v778h-125v54h191v-885z" />
    <glyph glyph-name="asciicircum" unicode="^" horiz-adv-x="544" 
d="M238 667h68l188 -275h-73l-149 222l-149 -222h-73z" />
    <glyph glyph-name="underscore" unicode="_" horiz-adv-x="500" 
d="M-6 -81h512v-38h-512v38z" />
    <glyph glyph-name="a" unicode="a" horiz-adv-x="500" 
d="M373.5 439.5q49.5 -46.5 49.5 -137.5v-302h-69v40q-77 -51 -155 -51q-67 0 -107 35.5t-40 93.5q0 72 71.5 122.5t230.5 60.5v9q0 54 -33 83.5t-90 29.5q-77 0 -159 -60l-2 1l20 82q33 19 73 29.5t76 10.5q85 0 134.5 -46.5zM144.5 67.5q22.5 -19.5 65.5 -19.5
q35 0 72.5 13t71.5 38v148q-123 -8 -177.5 -43t-54.5 -83q0 -34 22.5 -53.5z" />
    <glyph glyph-name="b" unicode="b" horiz-adv-x="585" 
d="M417 453.5q55 -32.5 86.5 -89.5t31.5 -129t-30.5 -128t-85 -87t-125.5 -31q-81 0 -146 42v-31h-65v667h69v-223q69 42 140 42q70 0 125 -32.5zM379 76q41 23 63.5 64.5t22.5 94.5q0 54 -23 96t-64.5 65.5t-94.5 23.5q-69 0 -131 -44v-280q31 -22 62.5 -32.5t70.5 -10.5
q53 0 94 23z" />
    <glyph glyph-name="c" unicode="c" horiz-adv-x="495" 
d="M176 21q-59 32 -92.5 88.5t-33.5 126.5q0 71 33 128t90.5 89.5t128.5 32.5q77 0 148 -37v-78q-73 49 -144 49q-53 0 -95 -23t-66.5 -64.5t-24.5 -94.5t24.5 -94.5t67.5 -65t96 -23.5q75 0 142 45v-76q-68 -35 -143 -35q-72 0 -131 32z" />
    <glyph glyph-name="d" unicode="d" horiz-adv-x="585" 
d="M502 667v-667h-65v35q-64 -46 -143 -46q-70 0 -125.5 31.5t-87 88t-31.5 128.5t31.5 128.5t87.5 88.5t127 32q76 0 137 -37v218h69zM144 140.5q24 -41.5 66 -64.5t94 -23q68 0 129 45v281q-62 41 -129 41q-53 0 -95 -23.5t-65.5 -65.5t-23.5 -96q0 -53 24 -94.5z" />
    <glyph glyph-name="e" unicode="e" 
d="M489 226h-368q4 -79 53 -126.5t126 -47.5q49 0 92 14t89 40v-73q-44 -23 -89.5 -33.5t-97.5 -10.5q-70 0 -125.5 32t-87 88.5t-31.5 127.5q0 70 30 127t83 89.5t119 32.5q61 0 108 -30t73 -83.5t26 -121.5v-25zM177.5 386q-41.5 -38 -52.5 -103h293q-4 61 -41.5 101
t-96.5 40q-61 0 -102.5 -38z" />
    <glyph glyph-name="f" unicode="f" horiz-adv-x="391" 
d="M199 584q-27 -32 -27 -90v-19h199v-64h-199v-411h-69v411h-83v64h83v18q0 87 46 137t131 50q45 0 91 -14v-68q-42 18 -94 18q-51 0 -78 -32z" />
    <glyph glyph-name="g" unicode="g" horiz-adv-x="507" 
d="M484 417h-95q38 -43 38 -100q0 -71 -54 -112.5t-134 -41.5q-40 0 -73 12q-17 -14 -17 -29q0 -16 27.5 -29t92.5 -28q109 -26 158 -59.5t49 -92.5q0 -57 -59 -92t-167 -35q-111 0 -169.5 35t-58.5 93q0 39 27.5 71.5t84.5 61.5q-28 15 -39 30.5t-11 34.5q0 35 38 61
q-33 23 -51.5 57t-18.5 73q0 49 25 85t67.5 55t94.5 19q34 0 67 -11h178v-58zM325.5 249.5q35.5 27.5 35.5 74.5q0 48 -34 75.5t-89 27.5q-50 0 -85.5 -27.5t-35.5 -74.5q0 -48 34 -75.5t89 -27.5q50 0 85.5 27.5zM397 -26q-13 15 -48.5 29t-102.5 30q-45 12 -60 17
q-51 -26 -74.5 -52.5t-23.5 -51.5q0 -35 42.5 -56t119.5 -21q79 0 119.5 19.5t40.5 50.5q0 20 -13 35z" />
    <glyph glyph-name="h" unicode="h" horiz-adv-x="586" 
d="M456 429.5q53 -56.5 53 -162.5v-267h-69v259q0 79 -36.5 120t-109.5 41q-39 0 -75.5 -14t-66.5 -36v-370h-69v667h69v-231q31 23 70 36.5t83 13.5q98 0 151 -56.5z" />
    <glyph glyph-name="i" unicode="i" horiz-adv-x="236" 
d="M65 588l54 53l52 -53l-52 -53zM83 475h70v-475h-70v475z" />
    <glyph glyph-name="j" unicode="j" horiz-adv-x="236" 
d="M65 588l53 53l53 -53l-53 -53zM-27 -181v66q24 -7 42 -7q38 0 53.5 23t15.5 72v502h69v-510q0 -73 -33.5 -113t-94.5 -40q-28 0 -52 7z" />
    <glyph glyph-name="k" unicode="k" horiz-adv-x="499" 
d="M398 0l-246 241v-241h-69v667h69v-381l228 189h99l-261 -210l276 -265h-96z" />
    <glyph glyph-name="l" unicode="l" horiz-adv-x="310" 
d="M113 31.5q-36 39.5 -36 120.5v515h69v-514q0 -97 81 -97q36 0 70 16v-66q-34 -14 -80 -14q-68 0 -104 39.5z" />
    <glyph glyph-name="m" unicode="m" horiz-adv-x="914" 
d="M788 429.5q50 -55.5 50 -160.5v-270h-69v262q0 159 -135 159q-76 0 -150 -63q11 -39 11 -87v-270h-69v262q0 158 -137 158q-38 0 -73.5 -13.5t-63.5 -35.5v-371h-69v475h68v-39q30 23 68 36.5t81 13.5q106 0 157 -71q44 36 89 53t96 17q96 0 146 -55.5z" />
    <glyph glyph-name="n" unicode="n" horiz-adv-x="586" 
d="M456 429.5q53 -56.5 53 -162.5v-267h-69v259q0 79 -36.5 120t-109.5 41q-39 0 -75.5 -14t-66.5 -36v-370h-69v475h68v-39q31 23 70.5 36.5t83.5 13.5q98 0 151 -56.5z" />
    <glyph glyph-name="o" unicode="o" horiz-adv-x="602" 
d="M173.5 21q-57.5 32 -90.5 89t-33 127q0 71 33 128t90.5 89t127.5 32t127.5 -32t90.5 -89t33 -128q0 -70 -33 -127t-90.5 -89t-127.5 -32t-127.5 32zM393 78q41 23 65 65t24 94q0 53 -24 94.5t-65 65t-92 23.5t-92 -23.5t-65 -65t-24 -94.5q0 -52 24 -94t65 -65t92 -23
t92 23z" />
    <glyph glyph-name="p" unicode="p" horiz-adv-x="585" 
d="M418 454q55 -32 86 -88.5t31 -128.5t-31.5 -128.5t-88 -88t-128.5 -31.5q-78 0 -135 38v-213h-69v661h65v-38q30 25 68.5 37t77.5 12q69 0 124 -32zM375.5 76.5q42.5 23.5 66 65.5t23.5 95t-23.5 94.5t-65.5 65t-94 23.5q-66 0 -130 -44v-281q60 -42 128 -42
q53 0 95.5 23.5z" />
    <glyph glyph-name="q" unicode="q" horiz-adv-x="585" 
d="M502 475v-661h-69v217q-61 -42 -137 -42q-71 0 -127 32t-87.5 88.5t-31.5 128.5t31.5 128.5t88 88t128.5 31.5q37 0 73.5 -11.5t65.5 -31.5v32h65zM433 96v283q-57 41 -127 41q-53 0 -95.5 -23t-66.5 -64.5t-24 -94.5t23.5 -95.5t65.5 -66t95 -23.5q70 0 129 43z" />
    <glyph glyph-name="r" unicode="r" horiz-adv-x="387" 
d="M367 464v-69l-2 -1q-23 14 -45 20.5t-48 6.5q-63 0 -120 -49v-372h-69v475h69v-33q55 44 124 44q52 0 91 -22z" />
    <glyph glyph-name="s" unicode="s" horiz-adv-x="469" 
d="M134 1.5q-46 11.5 -82 30.5v78q38 -27 84 -42.5t94 -15.5q60 0 92 19.5t32 57.5q0 35 -27 56.5t-96 33.5q-94 17 -133.5 47t-39.5 89q0 61 51 96t127 35q75 0 150 -30v-75q-64 43 -150 43q-49 0 -79 -16t-30 -47t25.5 -47.5t89.5 -28.5q93 -17 137.5 -49.5t44.5 -101.5
q0 -68 -50.5 -106t-143.5 -38q-50 0 -96 11.5z" />
    <glyph glyph-name="t" unicode="t" horiz-adv-x="402" 
d="M172 411v-261q0 -98 95 -98q49 0 105 27v-68q-56 -22 -116 -22q-72 0 -112.5 42t-40.5 119v261h-83v64h83v114h69v-114h200v-64h-200z" />
    <glyph glyph-name="u" unicode="u" horiz-adv-x="586" 
d="M503 475v-475h-68v39q-31 -23 -70.5 -36.5t-83.5 -13.5q-98 0 -151 56.5t-53 162.5v267h69v-259q0 -79 36.5 -120t109.5 -41q39 0 76 13.5t66 35.5v371h69z" />
    <glyph glyph-name="v" unicode="v" horiz-adv-x="523" 
d="M17 475h77l169 -390l166 390h77l-211 -475h-65z" />
    <glyph glyph-name="w" unicode="w" horiz-adv-x="817" 
d="M28 475h77l125 -386l150 386h62l150 -386l125 386h72l-158 -475h-74l-146 380l-150 -380h-74z" />
    <glyph glyph-name="x" unicode="x" horiz-adv-x="486" 
d="M400 0l-159 207l-156 -207h-80l197 256l-171 219h80l131 -169l126 169h80l-167 -219l200 -256h-81z" />
    <glyph glyph-name="y" unicode="y" horiz-adv-x="522" 
d="M506 475l-236 -557q-20 -48 -57.5 -77t-94.5 -29q-21 0 -43 5v60q20 -5 41 -5q68 0 99 72l17 41l-215 490h75l174 -407l164 407h76z" />
    <glyph glyph-name="z" unicode="z" horiz-adv-x="459" 
d="M313 411h-263v64h387l-290 -411h277v-64h-403z" />
    <glyph glyph-name="braceleft" unicode="{" horiz-adv-x="352" 
d="M205 -90.5q-34 14.5 -49 47.5t-15 91v121q0 39 -8 61.5t-25 38t-52 35.5v56q35 20 52 35.5t25 38t8 61.5v121q0 58 15 91t49 47.5t94 14.5h18v-48h-17q-53 0 -74.5 -22.5t-21.5 -75.5v-128q0 -62 -16 -98t-63 -65q47 -29 63 -65t16 -98v-128q0 -53 21.5 -75.5t74.5 -22.5
h17v-48h-18q-60 0 -94 14.5z" />
    <glyph glyph-name="bar" unicode="|" horiz-adv-x="212" 
d="M73 750h65v-1000h-65v1000z" />
    <glyph glyph-name="braceright" unicode="}" horiz-adv-x="352" 
d="M35 -105v48h18q52 0 73.5 22.5t21.5 75.5v128q0 62 16 98t63 65q-47 29 -63 65t-16 98v128q0 53 -21.5 75.5t-73.5 22.5h-18v48h18q60 0 94 -14.5t49 -47.5t15 -91v-121q0 -39 8 -61.5t25 -38t52 -35.5v-56q-35 -20 -52 -35.5t-25 -38t-8 -61.5v-121q0 -58 -15 -91
t-49 -47.5t-94 -14.5h-18z" />
    <glyph glyph-name="asciitilde" unicode="~" horiz-adv-x="520" 
d="M50 279q18 61 47.5 97.5t70.5 36.5q26 0 48 -12t55 -36q25 -20 43 -30.5t37 -10.5q22 0 37 21t27 65l55 -17q-42 -134 -120 -134q-27 0 -51 12.5t-53 36.5q-25 20 -42.5 29.5t-35.5 9.5q-22 0 -36.5 -21t-26.5 -65z" />
    <glyph glyph-name="uni00A0" unicode="&#xa0;" horiz-adv-x="248" 
 />
    <glyph glyph-name="exclamdown" unicode="&#xa1;" horiz-adv-x="278" 
d="M190 435l-51 -51l-51 51l51 50zM171 125q6 -97 6 -188v-129h-77v129q0 107 5 188l11 211h44z" />
    <glyph glyph-name="cent" unicode="&#xa2;" horiz-adv-x="495" 
d="M211 397q-42 -23 -66.5 -64.5t-24.5 -94.5t24.5 -94.5t67.5 -65t96 -23.5q75 0 142 45v-76q-61 -31 -124 -34v-69h-68v72q-60 10 -107.5 44t-74 85.5t-26.5 113.5q0 63 26.5 116t74 87t107.5 44v70h68v-68q62 -4 124 -36v-78q-73 49 -144 49q-53 0 -95 -23z" />
    <glyph glyph-name="sterling" unicode="&#xa3;" horiz-adv-x="535" 
d="M486 68l-28 -68h-419q87 93 99 239l3 46h-65l13 67h57l7 90q8 116 55 177t132 61q47 0 77.5 -14.5t57.5 -44.5l-36 -61q-43 52 -101 52q-46 0 -76.5 -39t-37.5 -139l-6 -82h158l-14 -67h-150l-4 -58q-4 -48 -19 -91t-34 -68h331z" />
    <glyph glyph-name="currency" unicode="&#xa4;" horiz-adv-x="589" 
d="M459 124l77 -82l-55 -51l-76 82q-51 -30 -110 -30q-62 0 -109 29l-77 -81l-56 51l78 82q-36 52 -36 121t35 120l-77 82l56 51l77 -81q47 29 109 29q59 0 110 -30l76 82l55 -51l-77 -82q36 -50 36 -120q0 -69 -36 -121zM388.5 146q35.5 37 35.5 98q0 62 -35.5 99t-93.5 37
q-59 0 -94 -37t-35 -99q0 -61 35.5 -98t93.5 -37t93.5 37z" />
    <glyph glyph-name="yen" unicode="&#xa5;" horiz-adv-x="611" 
d="M420 421h116v-57h-154l-38 -56v-35h192v-57h-192v-216h-74v216h-192v57h192v35l-38 56h-154v57h115l-168 246h85l199 -293l195 293h82z" />
    <glyph glyph-name="brokenbar" unicode="&#xa6;" horiz-adv-x="212" 
d="M138 330v-395h-65v395h4v114h58v-114h3z" />
    <glyph glyph-name="section" unicode="&#xa7;" horiz-adv-x="477" 
d="M399 59q25 -33 25 -84q0 -50 -27.5 -87t-71 -56.5t-90.5 -19.5q-66 0 -115 28t-85 83l57 31q24 -38 61.5 -60t81.5 -22q47 0 82 27t35 72q0 33 -19.5 54.5t-48 35t-78.5 30.5q-59 20 -94.5 37.5t-60 48.5t-24.5 80q0 48 30 83.5t87 49.5q-44 22 -68.5 54t-24.5 84
q0 46 24 80.5t64.5 53t87.5 18.5q61 0 107.5 -27.5t71.5 -81.5l-57 -31q-20 39 -51 60t-71 21q-44 0 -74.5 -26t-30.5 -67q0 -32 17.5 -53t43.5 -33t73 -28q56 -18 90.5 -35t59 -50.5t24.5 -87.5q0 -43 -28 -76.5t-72 -49.5q44 -23 69 -56zM115.5 211.5q18.5 -19.5 45.5 -32
t76 -28.5q7 -2 12 -4t10 -3q41 8 69.5 34.5t28.5 62.5q0 31 -17 52t-42.5 34t-68.5 29q-59 -4 -95.5 -29t-36.5 -66q0 -30 18.5 -49.5z" />
    <glyph glyph-name="copyright" unicode="&#xa9;" horiz-adv-x="807" 
d="M230 35q-79 46 -125 125.5t-46 174.5q0 94 46 173.5t125.5 125.5t173.5 46t173.5 -46t125.5 -125.5t46 -173.5q0 -95 -46 -174.5t-125 -125.5t-174 -46t-174 46zM558.5 67.5q70.5 41.5 111.5 112t41 155.5q0 84 -41 154.5t-111.5 111.5t-154.5 41q-85 0 -155.5 -41
t-111.5 -111.5t-41 -154.5q0 -85 41 -155.5t111.5 -112t155.5 -41.5q84 0 154.5 41.5zM304 156.5q-49 26.5 -77 73t-28 104.5t28 104.5t76.5 73t108.5 26.5q38 0 69.5 -8.5t62.5 -27.5v-53q-55 43 -132 43q-41 0 -75.5 -19t-55.5 -54.5t-21 -84.5q0 -45 20.5 -81t55.5 -56.5
t77 -20.5q39 0 70 11.5t61 31.5v-55q-34 -17 -65 -25.5t-67 -8.5q-59 0 -108 26.5z" />
    <glyph glyph-name="ordfeminine" unicode="&#xaa;" horiz-adv-x="306" 
d="M266 573v-190h-51v26q-41 -30 -89 -30q-41 0 -67 22t-26 58q0 94 181 107q0 35 -14.5 51t-50.5 16q-55 0 -107 -33l15 55q46 23 98 23q111 0 111 -105zM214 448v81q-62 -8 -94.5 -22t-32.5 -45q0 -19 13 -30t35 -11q40 0 79 27z" />
    <glyph glyph-name="guillemotleft" unicode="&#xab;" 
d="M50 267l164 208h72l-165 -208l165 -203h-72zM250 267l164 208h72l-165 -208l165 -203h-72z" />
    <glyph glyph-name="logicalnot" unicode="&#xac;" 
d="M397 419h-320v62h382v-267h-62v205z" />
    <glyph glyph-name="uni00AD" unicode="&#xad;" horiz-adv-x="385" 
d="M38 300h309v-65h-309v65z" />
    <glyph glyph-name="registered" unicode="&#xae;" horiz-adv-x="807" 
d="M577.5 634q79.5 -46 125.5 -125t46 -173q0 -95 -46 -174.5t-125.5 -126t-173.5 -46.5t-173.5 46.5t-125.5 126t-46 174.5q0 94 46 173t125.5 125t173.5 46t173.5 -46zM558.5 67.5q70.5 41.5 111.5 112.5t41 156q0 84 -41 154t-111.5 111t-154.5 41q-85 0 -155.5 -41
t-111.5 -111t-41 -154q0 -85 41 -156t111.5 -112.5t155.5 -41.5q84 0 154.5 41.5zM513 357q-22 -28 -62 -40l128 -184h-68l-120 176h-54v-176h-59v400h117q61 0 100.5 -28.5t39.5 -82.5q0 -37 -22 -65zM337 353h50q89 0 89 71q0 31 -22.5 47.5t-66.5 16.5h-50v-135z" />
    <glyph glyph-name="degree" unicode="&#xb0;" horiz-adv-x="402" 
d="M127.5 407q-33.5 20 -53 53.5t-19.5 73.5t19.5 73.5t53 53t73.5 19.5t73.5 -20t53.5 -53.5t20 -72.5q0 -40 -20 -73.5t-53.5 -53.5t-73.5 -20t-73.5 20zM264.5 470.5q26.5 26.5 26.5 63.5t-26.5 63t-63.5 26t-63.5 -26t-26.5 -63t26.5 -63.5t63.5 -26.5t63.5 26.5z" />
    <glyph glyph-name="plusminus" unicode="&#xb1;" 
d="M236 339h-160v62h160v152h62v-152h160v-62h-160v-155h-62v155zM78 62h382v-62h-382v62z" />
    <glyph glyph-name="uni00B2" unicode="&#xb2;" horiz-adv-x="328" 
d="M193 487q29 40 29 75q0 28 -19 45t-49 17q-27 0 -54 -12.5t-50 -36.5v65q48 40 108 40q52 0 88 -31t36 -84q0 -24 -12.5 -53t-41.5 -72l-86 -122h148v-55h-247z" />
    <glyph glyph-name="uni00B3" unicode="&#xb3;" horiz-adv-x="328" 
d="M24 309l34 40q39 -45 92 -45q41 0 65 25.5t24 61.5t-25 60.5t-69 24.5q-21 0 -43 -5l97 145h-166v51h256l-101 -154q51 -5 79 -39.5t28 -81.5q0 -36 -17 -68t-49.5 -51.5t-77.5 -19.5q-80 0 -127 56z" />
    <glyph glyph-name="uni00B5" unicode="&#xb5;" horiz-adv-x="569" 
d="M83 475h69v-259q0 -77 32.5 -119t101.5 -42q35 0 69 13.5t62 36.5v370h69v-475h-69v43q-29 -25 -65.5 -39.5t-76.5 -14.5q-45 0 -74.5 16t-48.5 51v-242h-69v661z" />
    <glyph glyph-name="paragraph" unicode="&#xb6;" horiz-adv-x="547" 
d="M521 667v-45h-66v-808h-54v808h-85v-808h-55v499h-27q-53 0 -95 22.5t-65.5 62.5t-23.5 90q0 93 61 136t155 43h255z" />
    <glyph glyph-name="periodcentered" unicode="&#xb7;" horiz-adv-x="227" 
d="M57 326l57 56l56 -56l-56 -57z" />
    <glyph glyph-name="uni00B9" unicode="&#xb9;" horiz-adv-x="219" 
d="M80 637l58 43v-417h-58v374z" />
    <glyph glyph-name="ordmasculine" unicode="&#xba;" horiz-adv-x="393" 
d="M117.5 397q-36.5 20 -57.5 54.5t-21 76.5t21 76.5t57.5 54.5t79.5 20t79 -20t57 -55t21 -76t-21 -76t-57 -55t-79 -20t-79.5 20zM270 453.5q30 30.5 30 74.5t-30 74.5t-73 30.5t-73.5 -30.5t-30.5 -74.5t30.5 -74.5t73.5 -30.5t73 30.5z" />
    <glyph glyph-name="guillemotright" unicode="&#xbb;" 
d="M50 64l165 203l-165 208h72l164 -208l-164 -203h-72zM250 64l166 203l-166 208h72l165 -208l-165 -203h-72z" />
    <glyph glyph-name="onequarter" unicode="&#xbc;" horiz-adv-x="776" 
d="M80 637l58 43v-417h-58v374zM502 680h60l-347 -691h-60zM637 91h-239l297 326v-279h52v-47h-52v-91h-58v91zM641 138v156l-139 -156h139z" />
    <glyph glyph-name="onehalf" unicode="&#xbd;" horiz-adv-x="802" 
d="M80 637l58 43v-417h-58v374zM502 680h60l-347 -691h-60zM667 224q29 40 29 75q0 28 -19 45t-49 17q-27 0 -54 -12.5t-50 -36.5v65q48 40 108 40q52 0 88 -31t36 -84q0 -24 -12.5 -53t-41.5 -72l-86 -122h148v-55h-247z" />
    <glyph glyph-name="threequarters" unicode="&#xbe;" horiz-adv-x="861" 
d="M24 309l34 40q39 -45 92 -45q41 0 65 25.5t24 61.5t-25 60.5t-69 24.5q-21 0 -43 -5l97 145h-166v51h256l-101 -154q51 -5 79 -39.5t28 -81.5q0 -36 -17 -68t-49.5 -51.5t-77.5 -19.5q-80 0 -127 56zM587 680h60l-347 -691h-60zM722 91h-239l297 326v-279h52v-47h-52v-91
h-58v91zM726 138v156l-139 -156h139z" />
    <glyph glyph-name="questiondown" unicode="&#xbf;" horiz-adv-x="461" 
d="M310 428l-57 -57l-56 57l56 56zM306.5 254.5q17.5 -27.5 17.5 -60.5q0 -39 -24.5 -64t-71.5 -54q-48 -30 -71.5 -54t-23.5 -62q0 -45 32 -72t84 -27q80 0 141 71l46 -48q-75 -91 -187 -91q-83 0 -135.5 46t-52.5 121q0 40 17 69.5t40.5 48t60.5 41.5q38 23 55.5 39.5
t17.5 38.5q0 16 -9.5 31t-34.5 39l46 46q35 -31 52.5 -58.5z" />
    <glyph glyph-name="Agrave" unicode="&#xc0;" horiz-adv-x="667" 
d="M491 182h-318l-75 -182h-78l279 667h63l285 -667h-80zM463 250l-132 318l-130 -318h262zM212 860h82l101 -143h-60z" />
    <glyph glyph-name="Aacute" unicode="&#xc1;" horiz-adv-x="667" 
d="M491 182h-318l-75 -182h-78l279 667h63l285 -667h-80zM463 250l-132 318l-130 -318h262zM374 860h82l-123 -143h-60z" />
    <glyph glyph-name="Acircumflex" unicode="&#xc2;" horiz-adv-x="667" 
d="M491 182h-318l-75 -182h-78l279 667h63l285 -667h-80zM463 250l-132 318l-130 -318h262zM296 857h76l96 -143h-50l-84 102l-86 -102h-48z" />
    <glyph glyph-name="Atilde" unicode="&#xc3;" horiz-adv-x="667" 
d="M491 182h-318l-75 -182h-78l279 667h63l285 -667h-80zM463 250l-132 318l-130 -318h262zM353.5 734.5q-16.5 7.5 -44.5 24.5q-19 12 -32 18.5t-25 6.5q-15 0 -26.5 -11.5t-20.5 -34.5l-36 30q14 36 34 55.5t52 19.5q17 0 34 -7.5t39 -22.5q24 -14 38 -20.5t28 -6.5
q18 0 28.5 13t18.5 37l38 -28q-23 -81 -89 -81q-20 0 -36.5 7.5z" />
    <glyph glyph-name="Adieresis" unicode="&#xc4;" horiz-adv-x="667" 
d="M491 182h-318l-75 -182h-78l279 667h63l285 -667h-80zM463 250l-132 318l-130 -318h262zM187 782l52 53l54 -53l-54 -53zM377 782l52 53l55 -53l-55 -53z" />
    <glyph glyph-name="Aring" unicode="&#xc5;" horiz-adv-x="667" 
d="M491 182h-318l-75 -182h-78l279 667h63l285 -667h-80zM463 250l-132 318l-130 -318h262zM270 729.5q-26 26.5 -26 63.5t26 63t64 26t64 -26t26 -63t-26.5 -63.5t-63.5 -26.5q-38 0 -64 26.5zM374.5 752.5q16.5 16.5 16.5 40.5q0 23 -16.5 39.5t-40.5 16.5t-40.5 -16.5
t-16.5 -39.5q0 -24 17 -40.5t40 -16.5q24 0 40.5 16.5z" />
    <glyph glyph-name="AE" unicode="&#xc6;" horiz-adv-x="911" 
d="M866 68v-68h-409v210h-237l-124 -210h-86l400 667h443v-68h-322v-205h248v-68h-248v-258h335zM457 277v327h-5l-193 -327h198z" />
    <glyph glyph-name="Ccedilla" unicode="&#xc7;" horiz-adv-x="682" 
d="M272.5 577q-64.5 -35 -101.5 -97.5t-37 -141.5q0 -82 37 -146.5t102 -100.5t146 -36q55 0 102 13.5t102 47.5v-79q-43 -24 -97 -37t-109 -13h-10l-14 -29h9q38 0 62.5 -19t24.5 -49q0 -39 -34.5 -65.5t-98.5 -26.5q-40 0 -67 6v48q38 -8 72 -8q30 0 47 9.5t17 29.5
q0 38 -61 38q-22 0 -34 -3l32 73q-86 12 -155 60t-108.5 122t-39.5 162q0 96 47.5 175t129 124.5t180.5 45.5q118 0 207 -48v-78q-51 30 -97 44t-108 14q-81 0 -145.5 -35z" />
    <glyph glyph-name="Egrave" unicode="&#xc8;" horiz-adv-x="575" 
d="M98 667h419v-68h-345v-205h271v-68h-271v-258h359v-68h-433v667zM184 860h82l101 -143h-60z" />
    <glyph glyph-name="Eacute" unicode="&#xc9;" horiz-adv-x="575" 
d="M98 667h419v-68h-345v-205h271v-68h-271v-258h359v-68h-433v667zM346 860h82l-123 -143h-60z" />
    <glyph glyph-name="Ecircumflex" unicode="&#xca;" horiz-adv-x="575" 
d="M98 667h419v-68h-345v-205h271v-68h-271v-258h359v-68h-433v667zM268 857h76l96 -143h-50l-84 102l-86 -102h-48z" />
    <glyph glyph-name="Edieresis" unicode="&#xcb;" horiz-adv-x="575" 
d="M98 667h419v-68h-345v-205h271v-68h-271v-258h359v-68h-433v667zM159 782l52 53l54 -53l-54 -53zM349 782l52 53l55 -53l-55 -53z" />
    <glyph glyph-name="Igrave" unicode="&#xcc;" horiz-adv-x="270" 
d="M98 667h74v-667h-74v667zM13 860h82l101 -143h-60z" />
    <glyph glyph-name="Iacute" unicode="&#xcd;" horiz-adv-x="270" 
d="M98 667h74v-667h-74v667zM175 860h82l-123 -143h-60z" />
    <glyph glyph-name="Icircumflex" unicode="&#xce;" horiz-adv-x="270" 
d="M98 667h74v-667h-74v667zM97 857h76l96 -143h-50l-84 102l-86 -102h-48z" />
    <glyph glyph-name="Idieresis" unicode="&#xcf;" horiz-adv-x="270" 
d="M98 667h74v-667h-74v667zM-12 782l52 53l54 -53l-54 -53zM178 782l52 53l55 -53l-55 -53z" />
    <glyph glyph-name="Eth" unicode="&#xd0;" horiz-adv-x="721" 
d="M480.5 626q85.5 -41 133.5 -116t48 -174q0 -104 -48 -180t-135 -116t-200 -40h-181v308h-69v58h69v301h188q109 0 194.5 -41zM444 101q68 33 105.5 93t37.5 139q0 83 -39 143t-107 91.5t-155 31.5h-114v-233h192v-58h-192v-240h114q90 0 158 33z" />
    <glyph glyph-name="Ntilde" unicode="&#xd1;" horiz-adv-x="779" 
d="M98 667h68l441 -545v545h74v-667h-68l-441 545v-545h-74v667zM408.5 734.5q-16.5 7.5 -44.5 24.5q-19 12 -32 18.5t-25 6.5q-15 0 -26.5 -11.5t-20.5 -34.5l-36 30q14 36 34 55.5t52 19.5q17 0 34 -7.5t39 -22.5q24 -14 38 -20.5t28 -6.5q18 0 28.5 13t18.5 37l38 -28
q-23 -81 -89 -81q-20 0 -36.5 7.5z" />
    <glyph glyph-name="Ograve" unicode="&#xd2;" horiz-adv-x="819" 
d="M234.5 34q-80.5 46 -128 125.5t-47.5 174.5t47.5 174.5t128 125.5t175.5 46q94 0 174.5 -46.5t128 -125.5t47.5 -174t-47.5 -174t-128 -125.5t-174.5 -46.5q-95 0 -175.5 46zM549 93q63 36 99.5 99.5t36.5 141.5t-36.5 141.5t-99.5 99.5t-139 36q-77 0 -140 -36
t-99.5 -99.5t-36.5 -141.5t36.5 -141.5t99.5 -99.5t140 -36q76 0 139 36zM288 860h82l101 -143h-60z" />
    <glyph glyph-name="Oacute" unicode="&#xd3;" horiz-adv-x="819" 
d="M234.5 34q-80.5 46 -128 125.5t-47.5 174.5t47.5 174.5t128 125.5t175.5 46q94 0 174.5 -46.5t128 -125.5t47.5 -174t-47.5 -174t-128 -125.5t-174.5 -46.5q-95 0 -175.5 46zM549 93q63 36 99.5 99.5t36.5 141.5t-36.5 141.5t-99.5 99.5t-139 36q-77 0 -140 -36
t-99.5 -99.5t-36.5 -141.5t36.5 -141.5t99.5 -99.5t140 -36q76 0 139 36zM450 860h82l-123 -143h-60z" />
    <glyph glyph-name="Ocircumflex" unicode="&#xd4;" horiz-adv-x="819" 
d="M234.5 34q-80.5 46 -128 125.5t-47.5 174.5t47.5 174.5t128 125.5t175.5 46q94 0 174.5 -46.5t128 -125.5t47.5 -174t-47.5 -174t-128 -125.5t-174.5 -46.5q-95 0 -175.5 46zM549 93q63 36 99.5 99.5t36.5 141.5t-36.5 141.5t-99.5 99.5t-139 36q-77 0 -140 -36
t-99.5 -99.5t-36.5 -141.5t36.5 -141.5t99.5 -99.5t140 -36q76 0 139 36zM372 857h76l96 -143h-50l-84 102l-86 -102h-48z" />
    <glyph glyph-name="Otilde" unicode="&#xd5;" horiz-adv-x="819" 
d="M234.5 34q-80.5 46 -128 125.5t-47.5 174.5t47.5 174.5t128 125.5t175.5 46q94 0 174.5 -46.5t128 -125.5t47.5 -174t-47.5 -174t-128 -125.5t-174.5 -46.5q-95 0 -175.5 46zM549 93q63 36 99.5 99.5t36.5 141.5t-36.5 141.5t-99.5 99.5t-139 36q-77 0 -140 -36
t-99.5 -99.5t-36.5 -141.5t36.5 -141.5t99.5 -99.5t140 -36q76 0 139 36zM429.5 734.5q-16.5 7.5 -44.5 24.5q-19 12 -32 18.5t-25 6.5q-15 0 -26.5 -11.5t-20.5 -34.5l-36 30q14 36 34 55.5t52 19.5q17 0 34 -7.5t39 -22.5q24 -14 38 -20.5t28 -6.5q18 0 28.5 13t18.5 37
l38 -28q-23 -81 -89 -81q-20 0 -36.5 7.5z" />
    <glyph glyph-name="Odieresis" unicode="&#xd6;" horiz-adv-x="819" 
d="M234.5 34q-80.5 46 -128 125.5t-47.5 174.5t47.5 174.5t128 125.5t175.5 46q94 0 174.5 -46.5t128 -125.5t47.5 -174t-47.5 -174t-128 -125.5t-174.5 -46.5q-95 0 -175.5 46zM549 93q63 36 99.5 99.5t36.5 141.5t-36.5 141.5t-99.5 99.5t-139 36q-77 0 -140 -36
t-99.5 -99.5t-36.5 -141.5t36.5 -141.5t99.5 -99.5t140 -36q76 0 139 36zM263 782l52 53l54 -53l-54 -53zM453 782l52 53l55 -53l-55 -53z" />
    <glyph glyph-name="multiply" unicode="&#xd7;" 
d="M102 212l122 122l-116 116l44 44l116 -117l121 123l44 -45l-121 -121l119 -120l-43 -44l-120 120l-121 -121z" />
    <glyph glyph-name="Oslash" unicode="&#xd8;" horiz-adv-x="819" 
d="M736.5 458q23.5 -59 23.5 -124q0 -95 -47.5 -174t-128 -125.5t-174.5 -46.5q-64 0 -123 22t-106 62l-66 -67l-34 34l66 66q-42 47 -65 105.5t-23 123.5q0 95 47.5 174.5t128 125.5t175.5 46q63 0 121 -21.5t105 -60.5l66 66l34 -35l-65 -65q42 -47 65.5 -106zM196 155
l391 394q-36 30 -81.5 46t-95.5 16q-77 0 -140 -36t-99.5 -99.5t-36.5 -141.5q0 -103 62 -179zM549 93q63 36 99.5 99.5t36.5 141.5q0 51 -16.5 97.5t-46.5 82.5l-392 -393q37 -31 83 -47.5t97 -16.5q76 0 139 36z" />
    <glyph glyph-name="Ugrave" unicode="&#xd9;" horiz-adv-x="768" 
d="M232 27q-67 40 -104.5 109t-37.5 152v379h74v-379q0 -64 27.5 -117t78 -84t115.5 -31q64 0 114.5 31t78 84t27.5 117v379h74v-379q0 -83 -37 -152t-104.5 -109t-152.5 -40q-86 0 -153 40zM263 860h82l101 -143h-60z" />
    <glyph glyph-name="Uacute" unicode="&#xda;" horiz-adv-x="768" 
d="M232 27q-67 40 -104.5 109t-37.5 152v379h74v-379q0 -64 27.5 -117t78 -84t115.5 -31q64 0 114.5 31t78 84t27.5 117v379h74v-379q0 -83 -37 -152t-104.5 -109t-152.5 -40q-86 0 -153 40zM425 860h82l-123 -143h-60z" />
    <glyph glyph-name="Ucircumflex" unicode="&#xdb;" horiz-adv-x="768" 
d="M232 27q-67 40 -104.5 109t-37.5 152v379h74v-379q0 -64 27.5 -117t78 -84t115.5 -31q64 0 114.5 31t78 84t27.5 117v379h74v-379q0 -83 -37 -152t-104.5 -109t-152.5 -40q-86 0 -153 40zM347 857h76l96 -143h-50l-84 102l-86 -102h-48z" />
    <glyph glyph-name="Udieresis" unicode="&#xdc;" horiz-adv-x="768" 
d="M232 27q-67 40 -104.5 109t-37.5 152v379h74v-379q0 -64 27.5 -117t78 -84t115.5 -31q64 0 114.5 31t78 84t27.5 117v379h74v-379q0 -83 -37 -152t-104.5 -109t-152.5 -40q-86 0 -153 40zM238 782l52 53l54 -53l-54 -53zM428 782l52 53l55 -53l-55 -53z" />
    <glyph glyph-name="Yacute" unicode="&#xdd;" horiz-adv-x="591" 
d="M260 308l-245 359h85l199 -293l195 293h82l-242 -359v-308h-74v308zM337 860h82l-123 -143h-60z" />
    <glyph glyph-name="Thorn" unicode="&#xde;" horiz-adv-x="579" 
d="M98 667h74v-141h135q108 0 165 -52t57 -139q0 -93 -61.5 -144.5t-164.5 -51.5h-131v-139h-74v667zM297 207q77 0 117 33t40 93q0 61 -40 93t-117 32h-125v-251h125z" />
    <glyph glyph-name="germandbls" unicode="&#xdf;" horiz-adv-x="532" 
d="M217 0v65q31 -11 63 -11q61 0 100.5 35.5t39.5 99.5q0 67 -43 106t-113 39q-8 0 -26 -2v67q10 -1 26 -1q58 0 90.5 32t32.5 80q0 44 -29 74t-81 30q-62 0 -93.5 -41.5t-31.5 -114.5v-458h-69v451q0 108 52 167.5t142 59.5q54 0 93.5 -23t60 -61t20.5 -83q0 -55 -28.5 -92
t-81.5 -50q66 -12 108 -57.5t42 -122.5q0 -94 -59.5 -146t-151.5 -52q-34 0 -63 9z" />
    <glyph glyph-name="agrave" unicode="&#xe0;" horiz-adv-x="500" 
d="M373.5 439.5q49.5 -46.5 49.5 -137.5v-302h-69v40q-77 -51 -155 -51q-67 0 -107 35.5t-40 93.5q0 72 71.5 122.5t230.5 60.5v9q0 54 -33 83.5t-90 29.5q-77 0 -159 -60l-2 1l20 82q33 19 73 29.5t76 10.5q85 0 134.5 -46.5zM144.5 67.5q22.5 -19.5 65.5 -19.5
q35 0 72.5 13t71.5 38v148q-123 -8 -177.5 -43t-54.5 -83q0 -34 22.5 -53.5zM121 694h82l101 -143h-60z" />
    <glyph glyph-name="aacute" unicode="&#xe1;" horiz-adv-x="500" 
d="M373.5 439.5q49.5 -46.5 49.5 -137.5v-302h-69v40q-77 -51 -155 -51q-67 0 -107 35.5t-40 93.5q0 72 71.5 122.5t230.5 60.5v9q0 54 -33 83.5t-90 29.5q-77 0 -159 -60l-2 1l20 82q33 19 73 29.5t76 10.5q85 0 134.5 -46.5zM144.5 67.5q22.5 -19.5 65.5 -19.5
q35 0 72.5 13t71.5 38v148q-123 -8 -177.5 -43t-54.5 -83q0 -34 22.5 -53.5zM283 694h82l-123 -143h-60z" />
    <glyph glyph-name="acircumflex" unicode="&#xe2;" horiz-adv-x="500" 
d="M373.5 439.5q49.5 -46.5 49.5 -137.5v-302h-69v40q-77 -51 -155 -51q-67 0 -107 35.5t-40 93.5q0 72 71.5 122.5t230.5 60.5v9q0 54 -33 83.5t-90 29.5q-77 0 -159 -60l-2 1l20 82q33 19 73 29.5t76 10.5q85 0 134.5 -46.5zM144.5 67.5q22.5 -19.5 65.5 -19.5
q35 0 72.5 13t71.5 38v148q-123 -8 -177.5 -43t-54.5 -83q0 -34 22.5 -53.5zM205 690h76l96 -143h-50l-84 103l-86 -103h-48z" />
    <glyph glyph-name="atilde" unicode="&#xe3;" horiz-adv-x="500" 
d="M373.5 439.5q49.5 -46.5 49.5 -137.5v-302h-69v40q-77 -51 -155 -51q-67 0 -107 35.5t-40 93.5q0 72 71.5 122.5t230.5 60.5v9q0 54 -33 83.5t-90 29.5q-77 0 -159 -60l-2 1l20 82q33 19 73 29.5t76 10.5q85 0 134.5 -46.5zM144.5 67.5q22.5 -19.5 65.5 -19.5
q35 0 72.5 13t71.5 38v148q-123 -8 -177.5 -43t-54.5 -83q0 -34 22.5 -53.5zM271.5 568.5q-16.5 7.5 -44.5 24.5q-19 12 -32 18.5t-25 6.5q-15 0 -26.5 -11.5t-20.5 -34.5l-36 30q14 36 34 55.5t52 19.5q17 0 34 -7.5t39 -22.5q24 -14 38 -20.5t28 -6.5q18 0 28.5 13
t18.5 37l38 -28q-23 -81 -89 -81q-20 0 -36.5 7.5z" />
    <glyph glyph-name="adieresis" unicode="&#xe4;" horiz-adv-x="500" 
d="M373.5 439.5q49.5 -46.5 49.5 -137.5v-302h-69v40q-77 -51 -155 -51q-67 0 -107 35.5t-40 93.5q0 72 71.5 122.5t230.5 60.5v9q0 54 -33 83.5t-90 29.5q-77 0 -159 -60l-2 1l20 82q33 19 73 29.5t76 10.5q85 0 134.5 -46.5zM144.5 67.5q22.5 -19.5 65.5 -19.5
q35 0 72.5 13t71.5 38v148q-123 -8 -177.5 -43t-54.5 -83q0 -34 22.5 -53.5zM95 608l52 53l54 -53l-54 -53zM285 608l52 53l55 -53l-55 -53z" />
    <glyph glyph-name="aring" unicode="&#xe5;" horiz-adv-x="500" 
d="M373.5 439.5q49.5 -46.5 49.5 -137.5v-302h-69v40q-77 -51 -155 -51q-67 0 -107 35.5t-40 93.5q0 72 71.5 122.5t230.5 60.5v9q0 54 -33 83.5t-90 29.5q-77 0 -159 -60l-2 1l20 82q33 19 73 29.5t76 10.5q85 0 134.5 -46.5zM144.5 67.5q22.5 -19.5 65.5 -19.5
q35 0 72.5 13t71.5 38v148q-123 -8 -177.5 -43t-54.5 -83q0 -34 22.5 -53.5zM179 563.5q-26 26.5 -26 63.5t26 62.5t64 25.5t64 -25.5t26 -62.5t-26.5 -63.5t-63.5 -26.5q-38 0 -64 26.5zM283.5 586.5q16.5 16.5 16.5 40.5q0 23 -16.5 39.5t-40.5 16.5t-40.5 -16.5
t-16.5 -39.5q0 -24 17 -40.5t40 -16.5q24 0 40.5 16.5z" />
    <glyph glyph-name="ae" unicode="&#xe6;" horiz-adv-x="824" 
d="M777 233h-360q4 -85 47.5 -133t123.5 -48q53 0 94 14t87 43v-71q-47 -25 -89.5 -37t-97.5 -12t-99.5 20t-76.5 56q-51 -41 -99 -58.5t-104 -17.5q-71 0 -111 35.5t-40 93.5q0 79 84 120.5t211 48.5v23q0 59 -30 86t-87 27q-75 0 -159 -60l-2 1l21 82q32 18 71.5 29
t75.5 11q61 0 102 -26t58 -79q25 49 70.5 77t102.5 28q65 0 111.5 -31.5t71 -84t24.5 -114.5v-23zM705 288q-3 59 -40.5 97.5t-96.5 38.5t-98 -37.5t-50 -98.5h285zM296 63q42 16 78 50q-27 57 -27 123q-225 -20 -225 -115q0 -34 24 -54t69 -20q39 0 81 16z" />
    <glyph glyph-name="ccedilla" unicode="&#xe7;" horiz-adv-x="495" 
d="M211 397q-42 -23 -66.5 -64.5t-24.5 -94.5t24.5 -94.5t67.5 -65t96 -23.5q75 0 142 45v-76q-63 -32 -129 -35l-15 -31h9q38 0 62.5 -19t24.5 -49q0 -39 -34.5 -65.5t-98.5 -26.5q-40 0 -67 6v48q38 -8 72 -8q30 0 47 9.5t17 29.5q0 38 -61 38q-22 0 -34 -3l32 73
q-65 7 -116 40t-80 86.5t-29 118.5q0 71 33 128t90.5 89.5t128.5 32.5q77 0 148 -37v-78q-73 49 -144 49q-53 0 -95 -23z" />
    <glyph glyph-name="egrave" unicode="&#xe8;" 
d="M489 226h-368q4 -79 53 -126.5t126 -47.5q49 0 92 14t89 40v-73q-44 -23 -89.5 -33.5t-97.5 -10.5q-70 0 -125.5 32t-87 88.5t-31.5 127.5q0 70 30 127t83 89.5t119 32.5q61 0 108 -30t73 -83.5t26 -121.5v-25zM177.5 386q-41.5 -38 -52.5 -103h293q-4 61 -41.5 101
t-96.5 40q-61 0 -102.5 -38zM151 694h82l101 -143h-60z" />
    <glyph glyph-name="eacute" unicode="&#xe9;" 
d="M489 226h-368q4 -79 53 -126.5t126 -47.5q49 0 92 14t89 40v-73q-44 -23 -89.5 -33.5t-97.5 -10.5q-70 0 -125.5 32t-87 88.5t-31.5 127.5q0 70 30 127t83 89.5t119 32.5q61 0 108 -30t73 -83.5t26 -121.5v-25zM177.5 386q-41.5 -38 -52.5 -103h293q-4 61 -41.5 101
t-96.5 40q-61 0 -102.5 -38zM313 694h82l-123 -143h-60z" />
    <glyph glyph-name="ecircumflex" unicode="&#xea;" 
d="M489 226h-368q4 -79 53 -126.5t126 -47.5q49 0 92 14t89 40v-73q-44 -23 -89.5 -33.5t-97.5 -10.5q-70 0 -125.5 32t-87 88.5t-31.5 127.5q0 70 30 127t83 89.5t119 32.5q61 0 108 -30t73 -83.5t26 -121.5v-25zM177.5 386q-41.5 -38 -52.5 -103h293q-4 61 -41.5 101
t-96.5 40q-61 0 -102.5 -38zM235 690h76l96 -143h-50l-84 103l-86 -103h-48z" />
    <glyph glyph-name="edieresis" unicode="&#xeb;" 
d="M489 226h-368q4 -79 53 -126.5t126 -47.5q49 0 92 14t89 40v-73q-44 -23 -89.5 -33.5t-97.5 -10.5q-70 0 -125.5 32t-87 88.5t-31.5 127.5q0 70 30 127t83 89.5t119 32.5q61 0 108 -30t73 -83.5t26 -121.5v-25zM177.5 386q-41.5 -38 -52.5 -103h293q-4 61 -41.5 101
t-96.5 40q-61 0 -102.5 -38zM125 608l52 53l54 -53l-54 -53zM315 608l52 53l55 -53l-55 -53z" />
    <glyph glyph-name="igrave" unicode="&#xec;" horiz-adv-x="236" 
d="M83 475h70v-475h-70v475zM-3 694h82l101 -143h-60z" />
    <glyph glyph-name="iacute" unicode="&#xed;" horiz-adv-x="236" 
d="M83 475h70v-475h-70v475zM159 694h82l-123 -143h-60z" />
    <glyph glyph-name="icircumflex" unicode="&#xee;" horiz-adv-x="236" 
d="M83 475h70v-475h-70v475zM81 690h76l96 -143h-50l-84 103l-86 -103h-48z" />
    <glyph glyph-name="idieresis" unicode="&#xef;" horiz-adv-x="236" 
d="M83 475h70v-475h-70v475zM-29 608l52 53l54 -53l-54 -53zM161 608l52 53l55 -53l-55 -53z" />
    <glyph glyph-name="eth" unicode="&#xf0;" horiz-adv-x="550" 
d="M452 426.5q48 -88.5 48 -178.5q0 -78 -29.5 -137t-83 -91t-124.5 -32q-61 0 -109.5 30t-76 82.5t-27.5 117.5q0 67 30 121t80.5 85t109.5 31q53 0 104 -27q-38 65 -109 128l-121 -64l-36 43l111 59q-43 32 -82 53l59 33q46 -26 83 -55l105 55l36 -42l-96 -51
q80 -72 128 -160.5zM385 104.5q44 53.5 44 142.5q0 45 -14 92q-64 53 -138 53q-44 0 -80 -21t-56.5 -59t-20.5 -88q0 -49 19 -88.5t52.5 -62t75.5 -22.5q74 0 118 53.5z" />
    <glyph glyph-name="ntilde" unicode="&#xf1;" horiz-adv-x="586" 
d="M456 429.5q53 -56.5 53 -162.5v-267h-69v259q0 79 -36.5 120t-109.5 41q-39 0 -75.5 -14t-66.5 -36v-370h-69v475h68v-39q31 23 70.5 36.5t83.5 13.5q98 0 151 -56.5zM321.5 568.5q-16.5 7.5 -44.5 24.5q-19 12 -32 18.5t-25 6.5q-15 0 -26.5 -11.5t-20.5 -34.5l-36 30
q14 36 34 55.5t52 19.5q17 0 34 -7.5t39 -22.5q24 -14 38 -20.5t28 -6.5q18 0 28.5 13t18.5 37l38 -28q-23 -81 -89 -81q-20 0 -36.5 7.5z" />
    <glyph glyph-name="ograve" unicode="&#xf2;" horiz-adv-x="602" 
d="M173.5 21q-57.5 32 -90.5 89t-33 127q0 71 33 128t90.5 89t127.5 32t127.5 -32t90.5 -89t33 -128q0 -70 -33 -127t-90.5 -89t-127.5 -32t-127.5 32zM393 78q41 23 65 65t24 94q0 53 -24 94.5t-65 65t-92 23.5t-92 -23.5t-65 -65t-24 -94.5q0 -52 24 -94t65 -65t92 -23
t92 23zM179 694h82l101 -143h-60z" />
    <glyph glyph-name="oacute" unicode="&#xf3;" horiz-adv-x="602" 
d="M173.5 21q-57.5 32 -90.5 89t-33 127q0 71 33 128t90.5 89t127.5 32t127.5 -32t90.5 -89t33 -128q0 -70 -33 -127t-90.5 -89t-127.5 -32t-127.5 32zM393 78q41 23 65 65t24 94q0 53 -24 94.5t-65 65t-92 23.5t-92 -23.5t-65 -65t-24 -94.5q0 -52 24 -94t65 -65t92 -23
t92 23zM341 694h82l-123 -143h-60z" />
    <glyph glyph-name="ocircumflex" unicode="&#xf4;" horiz-adv-x="602" 
d="M173.5 21q-57.5 32 -90.5 89t-33 127q0 71 33 128t90.5 89t127.5 32t127.5 -32t90.5 -89t33 -128q0 -70 -33 -127t-90.5 -89t-127.5 -32t-127.5 32zM393 78q41 23 65 65t24 94q0 53 -24 94.5t-65 65t-92 23.5t-92 -23.5t-65 -65t-24 -94.5q0 -52 24 -94t65 -65t92 -23
t92 23zM263 690h76l96 -143h-50l-84 103l-86 -103h-48z" />
    <glyph glyph-name="otilde" unicode="&#xf5;" horiz-adv-x="602" 
d="M173.5 21q-57.5 32 -90.5 89t-33 127q0 71 33 128t90.5 89t127.5 32t127.5 -32t90.5 -89t33 -128q0 -70 -33 -127t-90.5 -89t-127.5 -32t-127.5 32zM393 78q41 23 65 65t24 94q0 53 -24 94.5t-65 65t-92 23.5t-92 -23.5t-65 -65t-24 -94.5q0 -52 24 -94t65 -65t92 -23
t92 23zM329.5 568.5q-16.5 7.5 -44.5 24.5q-19 12 -32 18.5t-25 6.5q-15 0 -26.5 -11.5t-20.5 -34.5l-36 30q14 36 34 55.5t52 19.5q17 0 34 -7.5t39 -22.5q24 -14 38 -20.5t28 -6.5q18 0 28.5 13t18.5 37l38 -28q-23 -81 -89 -81q-20 0 -36.5 7.5z" />
    <glyph glyph-name="odieresis" unicode="&#xf6;" horiz-adv-x="602" 
d="M173.5 21q-57.5 32 -90.5 89t-33 127q0 71 33 128t90.5 89t127.5 32t127.5 -32t90.5 -89t33 -128q0 -70 -33 -127t-90.5 -89t-127.5 -32t-127.5 32zM393 78q41 23 65 65t24 94q0 53 -24 94.5t-65 65t-92 23.5t-92 -23.5t-65 -65t-24 -94.5q0 -52 24 -94t65 -65t92 -23
t92 23zM153 608l52 53l54 -53l-54 -53zM343 608l52 53l55 -53l-55 -53z" />
    <glyph glyph-name="divide" unicode="&#xf7;" 
d="M81 365h382v-62h-382v62zM210 149l57 56l56 -56l-56 -57zM210 503l57 56l56 -56l-56 -57z" />
    <glyph glyph-name="oslash" unicode="&#xf8;" horiz-adv-x="602" 
d="M533.5 335.5q18.5 -45.5 18.5 -98.5q0 -70 -33 -127t-90.5 -89t-127.5 -32q-81 0 -146 43l-50 -59l-33 28l50 59q-34 34 -53 79.5t-19 97.5q0 71 33 128t90.5 89t127.5 32q83 0 147 -44l49 58l33 -28l-49 -57q34 -34 52.5 -79.5zM166 112l238 278q-46 30 -103 30
q-51 0 -92 -23.5t-65 -65t-24 -94.5q0 -74 46 -125zM393 78q41 23 65 65t24 94q0 74 -46 125l-236 -278q43 -29 101 -29q51 0 92 23z" />
    <glyph glyph-name="ugrave" unicode="&#xf9;" horiz-adv-x="586" 
d="M503 475v-475h-68v39q-31 -23 -70.5 -36.5t-83.5 -13.5q-98 0 -151 56.5t-53 162.5v267h69v-259q0 -79 36.5 -120t109.5 -41q39 0 76 13.5t66 35.5v371h69zM171 694h82l101 -143h-60z" />
    <glyph glyph-name="uacute" unicode="&#xfa;" horiz-adv-x="586" 
d="M503 475v-475h-68v39q-31 -23 -70.5 -36.5t-83.5 -13.5q-98 0 -151 56.5t-53 162.5v267h69v-259q0 -79 36.5 -120t109.5 -41q39 0 76 13.5t66 35.5v371h69zM333 694h82l-123 -143h-60z" />
    <glyph glyph-name="ucircumflex" unicode="&#xfb;" horiz-adv-x="586" 
d="M503 475v-475h-68v39q-31 -23 -70.5 -36.5t-83.5 -13.5q-98 0 -151 56.5t-53 162.5v267h69v-259q0 -79 36.5 -120t109.5 -41q39 0 76 13.5t66 35.5v371h69zM255 690h76l96 -143h-50l-84 103l-86 -103h-48z" />
    <glyph glyph-name="udieresis" unicode="&#xfc;" horiz-adv-x="586" 
d="M503 475v-475h-68v39q-31 -23 -70.5 -36.5t-83.5 -13.5q-98 0 -151 56.5t-53 162.5v267h69v-259q0 -79 36.5 -120t109.5 -41q39 0 76 13.5t66 35.5v371h69zM145 608l52 53l54 -53l-54 -53zM335 608l52 53l55 -53l-55 -53z" />
    <glyph glyph-name="yacute" unicode="&#xfd;" horiz-adv-x="522" 
d="M506 475l-236 -557q-20 -48 -57.5 -77t-94.5 -29q-21 0 -43 5v60q20 -5 41 -5q68 0 99 72l17 41l-215 490h75l174 -407l164 407h76zM300 694h82l-123 -143h-60z" />
    <glyph glyph-name="thorn" unicode="&#xfe;" horiz-adv-x="585" 
d="M418 454q55 -32 86 -88.5t31 -128.5t-31.5 -128.5t-88 -88t-128.5 -31.5q-78 0 -135 38v-213h-69v853h69v-226q30 22 67 33.5t75 11.5q69 0 124 -32zM375.5 76.5q42.5 23.5 66 65.5t23.5 95t-23.5 94.5t-65.5 65t-94 23.5q-66 0 -130 -44v-281q60 -42 128 -42
q53 0 95.5 23.5z" />
    <glyph glyph-name="ydieresis" unicode="&#xff;" horiz-adv-x="522" 
d="M506 475l-236 -557q-20 -48 -57.5 -77t-94.5 -29q-21 0 -43 5v60q20 -5 41 -5q68 0 99 72l17 41l-215 490h75l174 -407l164 407h76zM112 608l52 53l54 -53l-54 -53zM302 608l52 53l55 -53l-55 -53z" />
    <glyph glyph-name="dotlessi" unicode="&#x131;" horiz-adv-x="236" 
d="M83 475h70v-475h-70v475z" />
    <glyph glyph-name="Ldot" unicode="&#x13f;" horiz-adv-x="544" 
d="M98 667h74v-598h345v-69h-419v667zM345 384l57 56l56 -56l-56 -57z" />
    <glyph glyph-name="ldot" unicode="&#x140;" horiz-adv-x="327" 
d="M113 31.5q-36 39.5 -36 120.5v515h69v-514q0 -97 81 -97q36 0 70 16v-66q-34 -14 -80 -14q-68 0 -104 39.5zM218 346l57 56l56 -56l-56 -57z" />
    <glyph glyph-name="OE" unicode="&#x152;" horiz-adv-x="1115" 
d="M228 33.5q-78 46.5 -123.5 126t-45.5 174.5t45.5 174.5t123.5 125.5t172 46q83 0 148.5 -38.5t103.5 -106.5v132h406v-68h-332v-205h258v-68h-258v-258h345v-68h-419v132q-38 -68 -103.5 -106.5t-148.5 -38.5q-94 0 -172 46.5zM534 92q57 36 87.5 99.5t30.5 142.5
q0 80 -30.5 143t-87.5 98.5t-134 35.5q-76 0 -136.5 -36t-95 -99t-34.5 -142t34.5 -142.5t95 -99.5t136.5 -36q77 0 134 36z" />
    <glyph glyph-name="oe" unicode="&#x153;" horiz-adv-x="947" 
d="M899 228h-358q5 -79 50 -127.5t119 -48.5q53 0 94.5 14t86.5 43v-71q-47 -26 -89 -37.5t-97 -11.5q-69 0 -121.5 34.5t-78.5 94.5q-30 -61 -84.5 -95t-122.5 -34q-69 0 -125.5 32t-89.5 89t-33 127q0 71 33 128t89.5 89t125.5 32q68 0 123.5 -35t84.5 -95q25 59 74 94.5
t112 35.5q65 0 112 -32t71 -85.5t24 -117.5v-23zM828 283q-4 61 -41 101t-96 40q-58 0 -98 -39.5t-50 -101.5h285zM387 78q40 23 63 64.5t23 94.5t-23 94.5t-63 65t-89 23.5q-50 0 -90.5 -23.5t-64 -65t-23.5 -94.5t23.5 -94.5t64 -64.5t90.5 -23q49 0 89 23z" />
    <glyph glyph-name="Scaron" unicode="&#x160;" horiz-adv-x="496" 
d="M112 23.5q-52 36.5 -85 104.5l58 38q22 -53 62 -81.5t89 -28.5q60 0 98.5 34.5t38.5 90.5q0 38 -19.5 65.5t-49 46t-78.5 42.5q-55 27 -88 48.5t-56 55.5t-23 83q0 44 22.5 80t62 57t90.5 21q56 0 99 -24t70 -66l-56 -41q-19 30 -48.5 46.5t-64.5 16.5q-44 0 -72 -23.5
t-28 -59.5q0 -29 17.5 -51.5t43 -38.5t71.5 -39q59 -29 95 -53t62 -63.5t26 -95.5q0 -57 -27.5 -103t-76 -72t-109.5 -26q-72 0 -124 36.5zM111 857h49l85 -103l85 103h49l-96 -143h-77z" />
    <glyph glyph-name="scaron" unicode="&#x161;" horiz-adv-x="469" 
d="M134 1.5q-46 11.5 -82 30.5v78q38 -27 84 -42.5t94 -15.5q60 0 92 19.5t32 57.5q0 35 -27 56.5t-96 33.5q-94 17 -133.5 47t-39.5 89q0 61 51 96t127 35q75 0 150 -30v-75q-64 43 -150 43q-49 0 -79 -16t-30 -47t25.5 -47.5t89.5 -28.5q93 -17 137.5 -49.5t44.5 -101.5
q0 -68 -50.5 -106t-143.5 -38q-50 0 -96 11.5zM98 690h49l85 -102l85 102h49l-96 -143h-77z" />
    <glyph glyph-name="Ydieresis" unicode="&#x178;" horiz-adv-x="591" 
d="M260 308l-245 359h85l199 -293l195 293h82l-242 -359v-308h-74v308zM150 782l52 53l54 -53l-54 -53zM340 782l52 53l55 -53l-55 -53z" />
    <glyph glyph-name="Zcaron" unicode="&#x17d;" horiz-adv-x="611" 
d="M453 599h-398v68h529l-426 -599h423v-68h-554zM177 857h49l85 -103l85 103h49l-96 -143h-77z" />
    <glyph glyph-name="zcaron" unicode="&#x17e;" horiz-adv-x="459" 
d="M313 411h-263v64h387l-290 -411h277v-64h-403zM90 690h49l85 -102l85 102h49l-96 -143h-77z" />
    <glyph glyph-name="florin" unicode="&#x192;" horiz-adv-x="429" 
d="M283.5 591q-21.5 -26 -30.5 -83l-15 -100h117l-11 -65h-117l-60 -391q-11 -71 -46 -106t-100 -35q-49 0 -96 30l21 58q35 -25 78 -25q36 0 53.5 22t27.5 80l57 367h-63l10 65h63l16 104q24 168 154 168q36 0 75 -15l-22 -59q-25 11 -53 11q-37 0 -58.5 -26z" />
    <glyph glyph-name="uni0237" unicode="&#x237;" horiz-adv-x="236" 
d="M-23 -183v66q19 -5 38 -5q38 0 53.5 23t15.5 72v502h69v-510q0 -73 -33.5 -113t-94.5 -40q-30 0 -48 5z" />
    <glyph glyph-name="gravecomb" unicode="&#x300;" horiz-adv-x="0" 
d="M-213 694h82l101 -143h-60z" />
    <glyph glyph-name="acutecomb" unicode="&#x301;" horiz-adv-x="0" 
d="M-112 694h82l-123 -143h-60z" />
    <glyph glyph-name="uni0302" unicode="&#x302;" horiz-adv-x="0" 
d="M-202 690h76l96 -143h-50l-84 103l-86 -103h-48z" />
    <glyph glyph-name="tildecomb" unicode="&#x303;" horiz-adv-x="0" 
d="M-155.5 568.5q-16.5 7.5 -44.5 24.5q-19 12 -32 18.5t-25 6.5q-15 0 -26.5 -11.5t-20.5 -34.5l-36 30q14 36 34 55.5t52 19.5q17 0 34 -7.5t39 -22.5q24 -14 38 -20.5t28 -6.5q18 0 28.5 13t18.5 37l38 -28q-23 -81 -89 -81q-20 0 -36.5 7.5z" />
    <glyph glyph-name="uni0307" unicode="&#x307;" horiz-adv-x="0" 
d="M-136 608l53 53l53 -53l-53 -53z" />
    <glyph glyph-name="uni0308" unicode="&#x308;" horiz-adv-x="0" 
d="M-327 608l52 53l54 -53l-54 -53zM-137 608l52 53l55 -53l-55 -53z" />
    <glyph glyph-name="uni030A" unicode="&#x30a;" horiz-adv-x="0" 
d="M-184 563.5q-26 26.5 -26 63.5t26 62.5t64 25.5t64 -25.5t26 -62.5t-26.5 -63.5t-63.5 -26.5q-38 0 -64 26.5zM-79.5 586.5q16.5 16.5 16.5 40.5q0 23 -16.5 39.5t-40.5 16.5t-40.5 -16.5t-16.5 -39.5q0 -24 17 -40.5t40 -16.5q24 0 40.5 16.5z" />
    <glyph glyph-name="uni030C" unicode="&#x30c;" horiz-adv-x="0" 
d="M-298 690h49l85 -102l85 102h49l-96 -143h-77z" />
    <glyph glyph-name="endash" unicode="&#x2013;" horiz-adv-x="500" 
d="M-6 299h512v-63h-512v63z" />
    <glyph glyph-name="emdash" unicode="&#x2014;" horiz-adv-x="1000" 
d="M-6 299h1012v-63h-1012v63z" />
    <glyph glyph-name="quoteleft" unicode="&#x2018;" horiz-adv-x="227" 
d="M161 674q-42 -49 -42 -86q0 -27 23 -50l20 -19l-57 -57l-16 15q-29 29 -29 68q0 34 27 69.5t68 65.5z" />
    <glyph glyph-name="quoteright" unicode="&#x2019;" horiz-adv-x="227" 
d="M66 469q41 48 41 86q0 26 -23 49l-19 20l57 56l15 -15q30 -28 30 -68q0 -34 -27 -69.5t-68 -65.5z" />
    <glyph glyph-name="quotesinglbase" unicode="&#x201a;" horiz-adv-x="227" 
d="M66 -109q41 48 41 86q0 26 -23 49l-19 20l57 56l15 -15q30 -28 30 -68q0 -34 -27 -69.5t-68 -65.5z" />
    <glyph glyph-name="quotedblleft" unicode="&#x201c;" horiz-adv-x="363" 
d="M161 674q-42 -49 -42 -86q0 -27 23 -50l20 -19l-57 -57l-16 15q-29 29 -29 68q0 34 27 69.5t68 65.5zM297 674q-41 -49 -41 -86q0 -27 23 -50l19 -19l-57 -57l-15 15q-30 30 -30 68q0 34 27 69.5t68 65.5z" />
    <glyph glyph-name="quotedblright" unicode="&#x201d;" horiz-adv-x="363" 
d="M66 469q41 48 41 86q0 26 -23 49l-19 20l57 56l15 -15q30 -28 30 -68q0 -34 -27 -69.5t-68 -65.5zM203 469q41 48 41 86q0 26 -23 49l-19 20l57 56l15 -15q30 -28 30 -68q0 -34 -27 -69.5t-68 -65.5z" />
    <glyph glyph-name="quotedblbase" unicode="&#x201e;" horiz-adv-x="363" 
d="M66 -143q41 48 41 86q0 26 -23 49l-19 20l57 56l15 -15q30 -28 30 -68q0 -34 -27 -69.5t-68 -65.5zM203 -143q41 48 41 86q0 26 -23 49l-19 20l57 56l15 -15q30 -28 30 -68q0 -34 -27 -69.5t-68 -65.5z" />
    <glyph glyph-name="dagger" unicode="&#x2020;" horiz-adv-x="405" 
d="M179 424l-152 -17v74l152 -16l-15 202h76l-15 -202l153 16v-74l-153 17l19 -610h-83z" />
    <glyph glyph-name="daggerdbl" unicode="&#x2021;" horiz-adv-x="404" 
d="M176 23l-149 -14v70l150 -13l-10 180l10 178l-150 -17v73l150 -15l-13 202h75l-12 -202l151 15v-73l-151 17l10 -178l-10 -180l151 13v-70l-149 14l11 -206h-76z" />
    <glyph glyph-name="bullet" unicode="&#x2022;" horiz-adv-x="424" 
d="M85 306l127 127l127 -127l-127 -127z" />
    <glyph glyph-name="ellipsis" unicode="&#x2026;" horiz-adv-x="893" 
d="M57 46l57 56l56 -56l-56 -57zM390 46l57 56l56 -56l-56 -57zM723 46l57 56l56 -56l-56 -57z" />
    <glyph glyph-name="perthousand" unicode="&#x2030;" horiz-adv-x="1111" 
d="M127.5 407q-33.5 20 -53 53.5t-19.5 73.5t19.5 73.5t53 53t73.5 19.5t73.5 -20t53.5 -53.5t20 -72.5q0 -40 -20 -73.5t-53.5 -53.5t-73.5 -20t-73.5 20zM241 -11h-60l347 691h60zM264.5 470.5q26.5 26.5 26.5 63.5t-26.5 63t-63.5 26t-63.5 -26t-26.5 -63t26.5 -63.5
t63.5 -26.5t63.5 26.5zM638.5 264q33.5 -20 53.5 -53.5t20 -73.5t-19.5 -73.5t-53 -53t-73.5 -19.5t-73.5 19.5t-53.5 53t-20 73.5t20 73.5t53.5 53.5t73.5 20q39 0 72.5 -20zM983.5 264q33.5 -20 53.5 -53.5t20 -73.5t-20 -73.5t-53.5 -53t-73.5 -19.5t-73.5 19.5t-53 53
t-19.5 73.5t19.5 73.5t53 53.5t73.5 20t73.5 -20zM502 200.5q-27 -26.5 -27 -63.5t27 -63.5t64 -26.5t63 26.5t26 63.5t-26 63.5t-63 26.5t-64 -26.5zM846.5 200.5q-26.5 -26.5 -26.5 -63.5t26.5 -63.5t63.5 -26.5t63.5 26.5t26.5 63.5q0 38 -26 64t-64 26
q-37 0 -63.5 -26.5z" />
    <glyph glyph-name="guilsinglleft" unicode="&#x2039;" horiz-adv-x="336" 
d="M50 267l164 208h72l-165 -208l165 -203h-72z" />
    <glyph glyph-name="guilsinglright" unicode="&#x203a;" horiz-adv-x="336" 
d="M50 64l165 203l-165 208h72l164 -208l-164 -203h-72z" />
    <glyph glyph-name="fraction" unicode="&#x2044;" horiz-adv-x="149" 
d="M214 680h60l-347 -691h-60z" />
    <glyph glyph-name="uni2074" unicode="&#x2074;" horiz-adv-x="397" 
d="M258 354h-239l297 326v-279h52v-47h-52v-91h-58v91zM262 401v156l-139 -156h139z" />
    <glyph glyph-name="Euro" unicode="&#x20ac;" horiz-adv-x="625" 
d="M249 566q-60 -46 -84 -126h290l-13 -58h-289q-3 -21 -3 -44t3 -46h271l-12 -58h-248q24 -83 84 -131t144 -48q46 0 85.5 10.5t88.5 36.5v-76q-86 -39 -176 -39q-74 0 -136.5 31t-105 87t-61.5 129h-67l12 58h45q-2 28 -2 43q0 25 3 47h-58l12 58h57q29 107 109.5 173.5
t189.5 66.5q50 0 92 -9.5t86 -29.5v-76q-47 26 -84 36.5t-91 10.5q-82 0 -142 -46z" />
    <glyph glyph-name="afii61352" unicode="&#x2116;" horiz-adv-x="1047" 
d="M754.5 407q-33.5 20 -53 53.5t-19.5 73.5t19.5 73.5t53 53t73.5 19.5t73.5 -20t53.5 -53.5t20 -72.5q0 -40 -20 -73.5t-53.5 -53.5t-73.5 -20t-73.5 20zM98 667h78l330 -539v539h74v-667h-81l-327 536v-536h-74v667zM891.5 470.5q26.5 26.5 26.5 63.5t-26.5 63t-63.5 26
t-63.5 -26t-26.5 -63t26.5 -63.5t63.5 -26.5t63.5 26.5zM683 285h314v-60h-314v60z" />
    <glyph glyph-name="trademark" unicode="&#x2122;" horiz-adv-x="817" 
d="M144 623h-130v44h311v-44h-126v-335h-55v335zM374 667h52l146 -173l144 173h52v-379h-54v302l-142 -174l-145 174v-302h-53v379z" />
    <glyph glyph-name="minus" unicode="&#x2212;" 
d="M77 365h382v-62h-382v62z" />
    <glyph glyph-name="uniFEFF" unicode="&#xfeff;" horiz-adv-x="0" 
 />
    <glyph glyph-name="i.locl" horiz-adv-x="236" 
d="M83 475h70v-475h-70v475zM66 608l53 53l53 -53l-53 -53z" />
    <glyph glyph-name="zero.aalt" 
d="M154 28.5q-48 41.5 -73.5 119.5t-25.5 185q0 108 25.5 186t73.5 119.5t114 41.5t113.5 -41.5t73 -119.5t25.5 -186q0 -107 -25.5 -185t-73 -119.5t-113.5 -41.5t-114 41.5zM371.5 127q36.5 72 36.5 206q0 135 -36.5 207t-103.5 72q-68 0 -104 -72t-36 -207
q0 -134 36 -206t104 -72q67 0 103.5 72z" />
    <glyph glyph-name="one.tnum" 
d="M232 629l71 51v-680h-71v629z" />
    <glyph glyph-name="two.tnum" 
d="M304 349q34 48 48.5 83t14.5 65q0 50 -32 82.5t-86 32.5q-43 0 -84.5 -23t-76.5 -67h-3v82q32 37 73.5 56.5t90.5 19.5q57 0 100.5 -23t66.5 -64t23 -93q0 -41 -16 -84.5t-53 -96.5l-178 -251h261v-68h-391z" />
    <glyph glyph-name="three.tnum" 
d="M125.5 8q-47.5 21 -87.5 61l45 52q58 -68 152 -68q51 0 88.5 20.5t57 55t19.5 76.5q0 65 -43.5 109t-119.5 44q-39 0 -70 -10l174 251h-288v68h411l-178 -258q84 -5 135.5 -61t51.5 -140q0 -58 -27.5 -108.5t-81 -81.5t-129.5 -31q-62 0 -109.5 21z" />
    <glyph glyph-name="four.tnum" 
d="M361 180h-360l430 500v-442h97v-58h-97v-180h-70v180zM361 238v275l-235 -275h235z" />
    <glyph glyph-name="five.aalt" 
d="M370 405q51 -28 78.5 -78.5t27.5 -114.5q0 -63 -29 -114.5t-82.5 -81t-122.5 -29.5q-63 0 -113 23t-96 67l41 54q32 -37 74.5 -57.5t93.5 -20.5q72 0 117.5 42.5t45.5 116.5q0 51 -23.5 87.5t-63 55t-86.5 18.5q-31 0 -64.5 -8.5t-60.5 -22.5l32 325h344l-30 -68h-250
l-19 -178q34 12 68 12q67 0 118 -28z" />
    <glyph glyph-name="six.aalt" 
d="M384.5 387.5q46.5 -27.5 70.5 -75t24 -105.5q0 -57 -26 -107.5t-75 -81.5t-115 -31t-114.5 33t-73.5 88t-25 122q0 117 66 234t183 203h103q-189 -135 -250 -284q61 32 121 32q65 0 111.5 -27.5zM368 97.5q39 42.5 39 107.5q0 67 -39 104.5t-101 37.5q-71 0 -138 -42
q-7 -35 -7 -75q0 -47 17 -87t50 -64t78 -24q62 0 101 42.5z" />
    <glyph glyph-name="seven.aalt" 
d="M381 599h-303v68h409l-300 -667h-80z" />
    <glyph glyph-name="eight.aalt" 
d="M157 12.5q-47 25.5 -73.5 69t-26.5 95.5q0 64 38 106.5t106 78.5q-51 27 -79 64.5t-28 92.5q0 45 22.5 82t62.5 58t90 21q49 0 88 -20.5t61 -56t22 -79.5q0 -56 -29 -93t-81 -64q72 -36 109 -77.5t37 -112.5q0 -53 -27.5 -96.5t-76.5 -68.5t-110 -25q-58 0 -105 25.5z
M373 521q0 41 -29.5 68t-75.5 27q-47 0 -76.5 -27t-29.5 -68q0 -42 28.5 -71.5t78.5 -51.5q104 46 104 123zM364.5 89.5q38.5 34.5 38.5 87.5q0 55 -36 88t-103 64q-62 -26 -98 -61t-36 -91q0 -52 38 -87t97 -35q61 0 99.5 34.5z" />
    <glyph glyph-name="nine.aalt" 
d="M380.5 647q48.5 -33 73.5 -88t25 -122q0 -117 -66 -234t-184 -203h-102q189 135 250 285q-58 -33 -121 -33q-65 0 -111.5 27.5t-70.5 75t-24 105.5q0 57 26 107.5t75 81.5t115 31t114.5 -33zM407 437q0 47 -17 87t-50 64t-78 24q-62 0 -101.5 -42.5t-39.5 -107.5
q0 -66 39.5 -104t101.5 -38q71 0 138 42q7 35 7 75z" />
    <glyph glyph-name="uni0308.aalt" horiz-adv-x="0" 
d="M-327 782l52 53l54 -53l-54 -53zM-137 782l52 53l55 -53l-55 -53z" />
    <glyph glyph-name="uni0307.aalt" horiz-adv-x="0" 
d="M-136 782l53 53l53 -53l-53 -53z" />
    <glyph glyph-name="gravecomb.aalt" horiz-adv-x="0" 
d="M-213 860h82l101 -143h-60z" />
    <glyph glyph-name="acutecomb.aalt" horiz-adv-x="0" 
d="M-112 860h82l-123 -143h-60z" />
    <glyph glyph-name="uni0302.aalt" horiz-adv-x="0" 
d="M-202 857h76l96 -143h-50l-84 102l-86 -102h-48z" />
    <glyph glyph-name="uni030C.aalt" horiz-adv-x="0" 
d="M-298 857h49l85 -103l85 103h49l-96 -143h-77z" />
    <glyph glyph-name="uni030A.aalt" horiz-adv-x="0" 
d="M-184 729.5q-26 26.5 -26 63.5t26 63t64 26t64 -26t26 -63t-26.5 -63.5t-63.5 -26.5q-38 0 -64 26.5zM-79.5 752.5q16.5 16.5 16.5 40.5q0 23 -16.5 39.5t-40.5 16.5t-40.5 -16.5t-16.5 -39.5q0 -24 17 -40.5t40 -16.5q24 0 40.5 16.5z" />
    <glyph glyph-name="tildecomb.aalt" horiz-adv-x="0" 
d="M-155.5 734.5q-16.5 7.5 -44.5 24.5q-19 12 -32 18.5t-25 6.5q-15 0 -26.5 -11.5t-20.5 -34.5l-36 30q14 36 34 55.5t52 19.5q17 0 34 -7.5t39 -22.5q24 -14 38 -20.5t28 -6.5q18 0 28.5 13t18.5 37l38 -28q-23 -81 -89 -81q-20 0 -36.5 7.5z" />
    </font>
</defs>
</svg>
