<?xml version="1.0" standalone="no"?>
<!DOCTYPE svg PUBLIC "-//W3C//DTD SVG 1.1//EN" "http://www.w3.org/Graphics/SVG/1.1/DTD/svg11.dtd" >
<svg xmlns="http://www.w3.org/2000/svg" xmlns:xlink="http://www.w3.org/1999/xlink" version="1.1">
<metadata>
Created by FontForge 20230101 at Fri Mar 18 00:27:45 2016
 By Unknown
Copyright (c) 2016 Monotype Imaging Inc. All rights reserved.
</metadata>
<defs>
<font id="Johnston100W03-Regular" horiz-adv-x="536" >
  <font-face 
    font-family="Johnston100W03-Regular"
    font-weight="400"
    font-stretch="normal"
    units-per-em="1000"
    panose-1="2 11 5 3 3 3 4 2 2 4"
    ascent="800"
    descent="-200"
    x-height="484"
    cap-height="667"
    bbox="-362 -250 1888 881"
    underline-thickness="50"
    underline-position="-125"
    unicode-range="U+000D-FEFF"
  />
<missing-glyph horiz-adv-x="456" 
d="M456 667v-667h-456v667h456zM368 86v495h-280v-495h280z" />
    <glyph glyph-name="arrowleft" unicode="&#x3c;&#x2d;&#x2d;" horiz-adv-x="1988" 
d="M1811 262l77 -74h-79l-77 74h-44l77 -74h-79l-77 74h-44l77 -74h-79l-77 74h-44l77 -74h-79l-77 74h-951l-18 -20l72 -36l-37 -58l-329 157l329 157l37 -58l-72 -36l19 -20h950l77 74h79l-77 -74h44l77 74h79l-77 -74h44l77 74h79l-77 -74h44l77 74h79l-77 -74h68v-86
h-68z" />
    <glyph glyph-name="arrowright" unicode="&#x2d;&#x2d;&#x3e;" horiz-adv-x="1988" 
d="M1888 305l-329 -157l-37 58l72 36l-18 20h-951l-77 -74h-79l77 74h-44l-77 -74h-79l77 74h-44l-77 -74h-79l77 74h-44l-77 -74h-79l77 74h-68v86h68l-77 74h79l77 -74h44l-77 74h79l77 -74h44l-77 74h79l77 -74h44l-77 74h79l77 -74h950l19 20l-72 36l37 58z" />
    <glyph glyph-name="uniFB01" unicode="fi" horiz-adv-x="636" 
d="M212.5 567.5q-21.5 -25.5 -21.5 -74.5v-9h179v-87h-179v-397h-95v397h-76v87h76v7q0 88 48 138.5t138 50.5q44 0 88 -12v-93q-43 18 -93 18q-43 0 -64.5 -25.5zM440 586l69 68l68 -68l-68 -69zM460 484h96v-484h-96v484z" />
    <glyph glyph-name="uniFB02" unicode="fl" horiz-adv-x="702" 
d="M212.5 567.5q-21.5 -25.5 -21.5 -74.5v-9h179v-87h-179v-397h-95v397h-76v87h76v7q0 88 48 138.5t138 50.5q44 0 88 -12v-93q-43 18 -93 18q-43 0 -64.5 -25.5zM492.5 29.5q-38.5 40.5 -38.5 122.5v515h95v-513q0 -39 17 -58t49 -19q37 0 71 16v-90q-40 -14 -85 -14
q-70 0 -108.5 40.5z" />
    <glyph glyph-name=".notdef" horiz-adv-x="456" 
d="M456 667v-667h-456v667h456zM368 86v495h-280v-495h280z" />
    <glyph glyph-name="glyph1" horiz-adv-x="0" 
 />
    <glyph glyph-name="uni000D" unicode="&#xd;" horiz-adv-x="260" 
 />
    <glyph glyph-name="space" unicode=" " horiz-adv-x="260" 
 />
    <glyph glyph-name="exclam" unicode="!" horiz-adv-x="288" 
d="M99 360q-8 98 -8 181v126h107v-126q0 -83 -8 -181l-16 -205h-59zM79 52l65 65l65 -65l-65 -65z" />
    <glyph glyph-name="quotedbl" unicode="&#x22;" horiz-adv-x="412" 
d="M70 546v121h92v-121l-24 -134h-44zM250 546v121h92v-121l-24 -134h-44z" />
    <glyph glyph-name="numbersign" unicode="#" horiz-adv-x="760" 
d="M557 404l-41 -144h150l-22 -80h-151l-46 -163l-88 -30l55 193h-155l-46 -163l-88 -30l55 193h-150l22 80h150l41 144h-150l22 80h151l47 166l89 30l-56 -196h154l47 166l89 30l-56 -196h149l-22 -80h-150zM477 404h-154l-41 -144h154z" />
    <glyph glyph-name="dollar" unicode="$" horiz-adv-x="510" 
d="M415 62q-50 -57 -130 -71v-69h-90v69q-55 10 -96 45t-74 93l80 54q24 -50 59 -75.5t76 -25.5q52 0 86 29t34 76q0 33 -18 57.5t-44 41t-72 38.5q-54 26 -87 47.5t-56 56.5t-23 85q0 62 37 106t98 57v66h90v-66q82 -15 130 -86l-77 -56q-17 25 -42 39t-56 14
q-35 0 -56 -18t-21 -46q0 -34 28 -56.5t89 -52.5q59 -29 95.5 -53.5t63 -65t26.5 -98.5q0 -78 -50 -135z" />
    <glyph glyph-name="percent" unicode="%" horiz-adv-x="746" 
d="M122.5 407.5q-33.5 19.5 -53 53t-19.5 73.5t19.5 73.5t53 53t73.5 19.5t73.5 -19.5t53 -53t19.5 -73.5t-19.5 -73.5t-53 -53t-73.5 -19.5t-73.5 19.5zM242 -13h-81l347 693h81zM245 485.5q20 20.5 20 48.5q0 29 -20 49t-49 20q-28 0 -48.5 -20t-20.5 -49
q0 -28 20.5 -48.5t48.5 -20.5q29 0 49 20.5zM623.5 262.5q33.5 -19.5 53 -53t19.5 -73.5t-19.5 -73.5t-53 -53t-73.5 -19.5t-73.5 19.5t-53 53t-19.5 73.5t19.5 73.5t53 53t73.5 19.5t73.5 -19.5zM501.5 185q-20.5 -20 -20.5 -49q0 -28 20.5 -48.5t48.5 -20.5q29 0 49 20.5
t20 48.5q0 29 -20 49t-49 20q-28 0 -48.5 -20z" />
    <glyph glyph-name="ampersand" unicode="&#x26;" horiz-adv-x="684" 
d="M538 0l-77 82q-98 -95 -207 -95q-63 0 -109.5 25.5t-71.5 68t-25 94.5q0 64 34.5 108.5t111.5 85.5q-42 46 -61 79t-19 71q0 44 24 81t65 58.5t89 21.5q50 0 90 -20t62.5 -56t22.5 -82q0 -57 -33 -97t-95 -75l123 -130q42 60 62 128h101q-39 -107 -102 -193l146 -155
h-131zM236 571.5q-22 -20.5 -22 -49.5q0 -24 15 -47.5t53 -63.5q42 22 63.5 47t21.5 61q0 31 -21 52t-54 21q-34 0 -56 -20.5zM401 147l-147 158q-60 -33 -83 -60.5t-23 -66.5q0 -40 31 -68.5t78 -28.5q73 0 144 66z" />
    <glyph glyph-name="quotesingle" unicode="'" horiz-adv-x="232" 
d="M70 546v121h92v-121l-24 -134h-44z" />
    <glyph glyph-name="parenleft" unicode="(" horiz-adv-x="264" 
d="M83.5 103q-25.5 102 -25.5 230q0 120 25.5 225.5t66.5 179.5h85q-47 -103 -66.5 -197t-19.5 -208q0 -128 20.5 -218t65.5 -190h-85q-41 76 -66.5 178z" />
    <glyph glyph-name="parenright" unicode=")" horiz-adv-x="264" 
d="M180.5 560q25.5 -102 25.5 -230q0 -120 -25.5 -225.5t-66.5 -179.5h-85q47 103 66.5 197t19.5 208q0 128 -20.5 218t-65.5 190h85q41 -76 66.5 -178z" />
    <glyph glyph-name="asterisk" unicode="*" horiz-adv-x="406" 
d="M181 468l-104 -89l-42 69l126 49l-126 58l42 70l104 -89l-20 144h85l-22 -144l105 89l42 -70l-125 -58l125 -49l-42 -69l-105 89l22 -143h-85z" />
    <glyph glyph-name="plus" unicode="+" 
d="M226 293h-158v85h158v150h84v-150h158v-85h-158v-150h-84v150z" />
    <glyph glyph-name="comma" unicode="," horiz-adv-x="249" 
d="M64 -98q37 39 37 76q0 32 -27 59l-23 23l74 74l21 -21q36 -36 36 -78q0 -39 -34 -78.5t-78 -61.5z" />
    <glyph glyph-name="hyphen" unicode="-" horiz-adv-x="382" 
d="M35 316h312v-90h-312v90z" />
    <glyph glyph-name="period" unicode="." horiz-adv-x="249" 
d="M51 60l74 74l73 -74l-73 -73z" />
    <glyph glyph-name="slash" unicode="/" horiz-adv-x="323" 
d="M234 738h89l-236 -813h-87z" />
    <glyph glyph-name="zero" unicode="0" horiz-adv-x="584" 
d="M173.5 29q-50.5 42 -77.5 120t-27 184t27 184.5t77.5 120.5t118.5 42t118.5 -42t77.5 -120.5t27 -184.5t-27 -184t-77.5 -120t-118.5 -42t-118.5 42zM383 145.5q32 65.5 32 187.5t-32 188t-91 66t-91 -66t-32 -188t32 -187.5t91 -65.5t91 65.5z" />
    <glyph glyph-name="one" unicode="1" horiz-adv-x="294" 
d="M98 612l98 68v-680h-98v612z" />
    <glyph glyph-name="two" unicode="2" horiz-adv-x="499" 
d="M283 354q30 46 43 76t13 58q0 44 -28 71.5t-75 27.5q-87 0 -164 -103h-3v114q33 40 75.5 61t91.5 21q92 0 147.5 -52t55.5 -137q0 -41 -16 -83.5t-49 -94.5l-144 -220h223v-93h-401z" />
    <glyph glyph-name="three" unicode="3" horiz-adv-x="516" 
d="M118.5 9.5q-48.5 22.5 -89.5 64.5l61 71q55 -68 140 -68q66 0 106 38.5t40 95.5q0 58 -40.5 97.5t-113.5 39.5q-37 0 -70 -12l150 238h-253v93h421l-158 -249q71 -15 117.5 -69t46.5 -134q0 -59 -28.5 -111t-84 -84.5t-133.5 -32.5q-63 0 -111.5 22.5z" />
    <glyph glyph-name="four" unicode="4" horiz-adv-x="577" 
d="M354 172h-341l438 508v-428h91v-80h-91v-172h-97v172zM354 252v199l-171 -199h171z" />
    <glyph glyph-name="five" unicode="5" horiz-adv-x="517" 
d="M354.5 406.5q51.5 -28.5 79.5 -78.5t28 -113q0 -62 -29.5 -114t-84 -83t-124.5 -31q-63 0 -114 23.5t-99 67.5l56 75q28 -34 68.5 -55t88.5 -21q61 0 100.5 37t39.5 100q0 68 -46.5 103.5t-109.5 35.5q-28 0 -60.5 -7t-58.5 -19l34 340h347l-41 -93h-218l-16 -143
q17 4 41 4q67 0 118.5 -28.5z" />
    <glyph glyph-name="six" unicode="6" horiz-adv-x="533" 
d="M403.5 391.5q46.5 -28.5 70 -76t23.5 -104.5t-26.5 -108.5t-77.5 -83.5t-120 -32q-66 0 -115 32.5t-75 88.5t-26 123q0 117 58.5 232t163.5 204h139q-84 -69 -140.5 -134t-86.5 -134q50 21 99 21q67 0 113.5 -28.5zM365 116q34 36 34 92q0 57 -34 88t-84 31
q-63 0 -120 -31q-5 -35 -5 -65q0 -61 33.5 -106t89.5 -45q52 0 86 36z" />
    <glyph glyph-name="seven" unicode="7" horiz-adv-x="493" 
d="M330 574h-276v93h421l-300 -667h-111z" />
    <glyph glyph-name="eight" unicode="8" horiz-adv-x="525" 
d="M150 12.5q-48 25.5 -76 70t-28 100.5q0 106 126 178q-91 54 -91 151q0 47 24 85.5t65.5 60.5t93.5 22q51 0 92 -21.5t64.5 -58.5t23.5 -82q0 -96 -95 -150q64 -34 97 -76t33 -109q0 -56 -29.5 -100.5t-80 -70t-112.5 -25.5q-59 0 -107 25.5zM327.5 454.5
q23.5 27.5 23.5 59.5q0 33 -25 55.5t-64 22.5q-38 0 -63 -22t-25 -56q0 -32 25 -59t67 -45q38 17 61.5 44.5zM345 108q34 28 34 75q0 46 -32.5 76.5t-88.5 55.5q-50 -19 -81 -52t-31 -80q0 -45 33 -74t82 -29q50 0 84 28z" />
    <glyph glyph-name="nine" unicode="9" horiz-adv-x="533" 
d="M375 647.5q49 -32.5 75 -88.5t26 -123q0 -117 -58.5 -232t-163.5 -204h-139q84 69 140.5 134t86.5 134q-50 -21 -99 -21q-67 0 -113.5 28.5t-70 76t-23.5 104.5t26.5 108.5t77.5 83.5t120 32q66 0 115 -32.5zM372 371q5 35 5 65q0 61 -33.5 106t-89.5 45q-52 0 -86 -36
t-34 -92q0 -57 34 -88t84 -31q63 0 120 31z" />
    <glyph glyph-name="colon" unicode=":" horiz-adv-x="289" 
d="M71 60l74 74l73 -74l-73 -73zM71 439l74 74l73 -74l-73 -73z" />
    <glyph glyph-name="semicolon" unicode=";" horiz-adv-x="289" 
d="M97 -98q37 39 37 76q0 32 -27 59l-23 23l74 74l21 -21q36 -36 36 -78q0 -39 -34 -78.5t-78 -61.5zM71 421l74 74l73 -74l-73 -73z" />
    <glyph glyph-name="less" unicode="&#x3c;" 
d="M468 467l-280 -133l280 -133v-103l-400 200v72l400 200v-103z" />
    <glyph glyph-name="equal" unicode="=" 
d="M74 480h400v-85h-400v85zM74 274h400v-85h-400v85z" />
    <glyph glyph-name="greater" unicode="&#x3e;" 
d="M68 201l280 133l-280 133v103l400 -200v-72l-400 -200v103z" />
    <glyph glyph-name="question" unicode="?" horiz-adv-x="456" 
d="M142.5 223.5q-20.5 28.5 -20.5 63.5q0 27 13 47.5t31 35t50 35.5q42 27 63.5 48t21.5 52q0 39 -26.5 60.5t-67.5 21.5q-69 0 -127 -67l-63 67q77 93 190 93q55 0 99 -21t69.5 -61t25.5 -93q0 -41 -17.5 -71t-41 -48.5t-59.5 -41.5q-32 -20 -46.5 -32.5t-14.5 -28.5
q0 -12 9 -22.5t37 -35.5l-63 -63q-42 33 -62.5 61.5zM131 60l74 74l73 -74l-73 -73z" />
    <glyph glyph-name="at" unicode="@" horiz-adv-x="964" 
d="M716 639.5q91 -48.5 141 -134.5t50 -196q0 -94 -29.5 -162t-78 -102.5t-104.5 -34.5q-78 0 -112 46q-56 -46 -124 -46q-55 0 -99 25t-69.5 73t-25.5 115q0 82 29.5 144t82.5 95.5t123 33.5q68 0 120 -32l61 33l-37 -351q-6 -59 57 -59q52 0 88 54t36 168q0 93 -42 161
t-115 103t-164 35q-104 0 -187 -47t-130.5 -133.5t-47.5 -199.5q0 -97 40 -172.5t115.5 -117.5t178.5 -42q104 0 193 54v-93q-94 -39 -198 -39q-117 0 -210 48.5t-147 141t-54 218.5q0 132 56.5 237.5t159 165t233.5 59.5q119 0 210 -48.5zM559 122v11q0 16 1 24l26 239
q-36 25 -86 25q-68 0 -108 -56.5t-40 -141.5q0 -68 32.5 -103t83.5 -35q53 0 91 37z" />
    <glyph glyph-name="A" unicode="A" horiz-adv-x="674" 
d="M479 160h-289l-62 -160h-108l269 667h86l279 -667h-111zM443 253l-110 276l-107 -276h217z" />
    <glyph glyph-name="B" unicode="B" horiz-adv-x="603" 
d="M518.5 309q36.5 -47 36.5 -110q0 -60 -28.5 -105t-81 -69.5t-122.5 -24.5h-228v667h183q93 0 149 -45.5t56 -120.5q0 -79 -63 -127q62 -18 98.5 -65zM197 399h82q46 0 73.5 24.5t27.5 65.5t-27.5 65.5t-73.5 24.5h-82v-180zM417.5 119.5q33.5 28.5 33.5 80.5
q0 51 -33.5 79.5t-94.5 28.5h-126v-217h126q61 0 94.5 28.5z" />
    <glyph glyph-name="C" unicode="C" horiz-adv-x="682" 
d="M237 33.5q-83 46.5 -131.5 126.5t-48.5 175t48 174t130.5 125t181.5 46q118 0 208 -47v-108q-52 32 -98 47t-107 15q-75 0 -134 -31.5t-92 -88t-33 -128.5q0 -75 33 -134t92 -92t135 -33q53 0 99.5 13.5t104.5 48.5v-108q-43 -21 -98 -34t-108 -13q-99 0 -182 46.5z" />
    <glyph glyph-name="D" unicode="D" horiz-adv-x="727" 
d="M95 667h197q110 0 195.5 -40.5t134 -115.5t48.5 -173q0 -105 -48.5 -181.5t-136.5 -116.5t-203 -40h-187v667zM292 93q83 0 145 30t95.5 84.5t33.5 125.5q0 76 -35.5 130.5t-97.5 82.5t-141 28h-95v-481h95z" />
    <glyph glyph-name="E" unicode="E" horiz-adv-x="578" 
d="M95 667h424v-93h-322v-169h247v-93h-247v-219h338v-93h-440v667z" />
    <glyph glyph-name="F" unicode="F" horiz-adv-x="529" 
d="M95 667h409v-93h-307v-171h228v-93h-228v-310h-102v667z" />
    <glyph glyph-name="G" unicode="G" horiz-adv-x="737" 
d="M232 32.5q-81 45.5 -128 125.5t-47 177q0 96 49 175t131 124.5t176 45.5q76 0 130 -14.5t107 -42.5v-112q-62 39 -112.5 57.5t-121.5 18.5q-69 0 -127.5 -33t-93 -90.5t-34.5 -128.5q0 -72 33.5 -130.5t91 -92t127.5 -33.5q77 0 146 29v181h-145v93h247v-331
q-51 -28 -117.5 -46t-132.5 -18q-98 0 -179 45.5z" />
    <glyph glyph-name="H" unicode="H" horiz-adv-x="732" 
d="M95 667h102v-256h338v256h102v-667h-102v318h-338v-318h-102v667z" />
    <glyph glyph-name="I" unicode="I" horiz-adv-x="292" 
d="M95 667h102v-667h-102v667z" />
    <glyph glyph-name="J" unicode="J" horiz-adv-x="482" 
d="M92 18.5q-46 31.5 -72 95.5l88 46q14 -38 36 -55.5t55 -17.5q45 0 68 30t23 98v452h102v-466q0 -98 -52.5 -156t-139.5 -58q-62 0 -108 31.5z" />
    <glyph glyph-name="K" unicode="K" horiz-adv-x="630" 
d="M95 667h102v-254l276 254h133l-321 -293l339 -374h-132l-295 327v-327h-102v667z" />
    <glyph glyph-name="L" unicode="L" horiz-adv-x="543" 
d="M95 667h102v-572h321v-95h-423v667z" />
    <glyph glyph-name="M" unicode="M" horiz-adv-x="866" 
d="M95 667h102l236 -282l236 282h102v-667h-102v516l-237 -283l-235 283v-516h-102v667z" />
    <glyph glyph-name="N" unicode="N" horiz-adv-x="778" 
d="M95 667h93l393 -498v498h102v-667h-93l-393 498v-498h-102v667z" />
    <glyph glyph-name="O" unicode="O" horiz-adv-x="822" 
d="M234 34q-81 46 -129 125.5t-48 174.5t48 174.5t129 125.5t177 46t177 -46t129 -125.5t48 -174.5t-48 -174.5t-129 -125.5t-177 -46t-177 46zM539 115q57 32 89.5 89.5t32.5 129.5t-32.5 129.5t-89.5 89.5t-128 32t-128 -32t-89.5 -89.5t-32.5 -129.5t32.5 -129.5
t89.5 -89.5t128 -32t128 32z" />
    <glyph glyph-name="P" unicode="P" horiz-adv-x="590" 
d="M95 667h215q114 0 173 -55.5t59 -146.5q0 -97 -65.5 -151.5t-171.5 -54.5h-108v-259h-102v667zM296 352q70 0 106 29t36 82q0 54 -36 82.5t-106 28.5h-99v-222h99z" />
    <glyph glyph-name="Q" unicode="Q" horiz-adv-x="822" 
d="M743 213.5q-22 -57.5 -62 -103.5l69 -64l-64 -71l-78 71q-89 -58 -197 -58q-96 0 -177 46t-129 125.5t-48 174.5t48 174.5t129 125.5t177 46t177 -46t129 -125.5t48 -174.5q0 -63 -22 -120.5zM535 113l-62 56l66 71l70 -65q52 68 52 159q0 72 -32.5 129.5t-89.5 89.5
t-128 32t-128 -32t-89.5 -89.5t-32.5 -129.5t32.5 -129.5t89.5 -89.5t128 -32q67 0 124 30z" />
    <glyph glyph-name="R" unicode="R" horiz-adv-x="602" 
d="M476 0l-219 298h-60v-298h-102v667h172q120 0 177.5 -51t57.5 -133q0 -63 -31.5 -108.5t-96.5 -64.5l228 -310h-126zM197 389h82q59 0 90 24.5t31 70.5q0 49 -36.5 70.5t-104.5 21.5h-62v-187z" />
    <glyph glyph-name="S" unicode="S" horiz-adv-x="510" 
d="M115.5 23.5q-51.5 36.5 -90.5 105.5l80 54q24 -50 59 -75.5t76 -25.5q52 0 86 29t34 76q0 33 -18 57.5t-44 41t-72 38.5q-54 26 -87 47.5t-56 56.5t-23 85q0 48 22.5 86t63.5 59.5t94 21.5q114 0 175 -90l-77 -56q-17 25 -42 39t-56 14q-35 0 -56 -18t-21 -46
q0 -34 28 -56.5t89 -52.5q59 -29 95.5 -53.5t63 -65t26.5 -98.5t-29 -106t-80.5 -76t-115.5 -28q-73 0 -124.5 36.5z" />
    <glyph glyph-name="T" unicode="T" horiz-adv-x="578" 
d="M238 574h-213v93h528v-93h-213v-574h-102v574z" />
    <glyph glyph-name="U" unicode="U" horiz-adv-x="773" 
d="M230.5 27.5q-68.5 40.5 -106 110t-37.5 152.5v377h102v-377q0 -58 24.5 -105.5t69.5 -75t104 -27.5t104 27.5t69.5 75t24.5 105.5v377h102v-377q0 -83 -37.5 -152.5t-106 -110t-156.5 -40.5t-156.5 40.5z" />
    <glyph glyph-name="V" unicode="V" horiz-adv-x="642" 
d="M622 667l-250 -667h-93l-259 667h111l194 -529l189 529h108z" />
    <glyph glyph-name="W" unicode="W" horiz-adv-x="979" 
d="M943 667l-197 -667h-100l-156 503l-153 -503h-100l-201 667h107l149 -511l148 497h104l152 -495l143 509h104z" />
    <glyph glyph-name="X" unicode="X" horiz-adv-x="678" 
d="M548 0l-215 279l-203 -279h-121l263 351l-247 316h121l189 -244l176 244h121l-237 -316l274 -351h-121z" />
    <glyph glyph-name="Y" unicode="Y" horiz-adv-x="601" 
d="M252 311l-237 356h117l173 -266l169 266h112l-232 -356v-311h-102v311z" />
    <glyph glyph-name="Z" unicode="Z" horiz-adv-x="626" 
d="M421 574h-372v93h552l-396 -574h396v-93h-576z" />
    <glyph glyph-name="bracketleft" unicode="[" horiz-adv-x="338" 
d="M80 785h218v-72h-127v-763h127v-73h-218v908z" />
    <glyph glyph-name="backslash" unicode="\" horiz-adv-x="323" 
d="M0 738h89l234 -813h-87z" />
    <glyph glyph-name="bracketright" unicode="]" horiz-adv-x="338" 
d="M258 -122h-218v72h127v763h-127v73h218v-908z" />
    <glyph glyph-name="asciicircum" unicode="^" horiz-adv-x="577" 
d="M241 667h95l191 -275h-100l-138 204l-139 -204h-100z" />
    <glyph glyph-name="underscore" unicode="_" horiz-adv-x="500" 
d="M-6 -75h512v-50h-512v50z" />
    <glyph glyph-name="a" unicode="a" horiz-adv-x="518" 
d="M391.5 445q52.5 -50 52.5 -150v-295h-95v34q-72 -45 -145 -45q-69 0 -111.5 38.5t-42.5 98.5q0 74 71 126.5t228 58.5q-2 48 -32.5 73t-79.5 25q-42 0 -80 -15.5t-80 -44.5l-2 2l28 112q32 15 70.5 23.5t74.5 8.5q91 0 143.5 -50zM165 85.5q18 -16.5 54 -16.5
q31 0 66 11.5t64 33.5v125q-108 -4 -155 -35t-47 -73q0 -29 18 -45.5z" />
    <glyph glyph-name="b" unicode="b" horiz-adv-x="602" 
d="M432 462q57 -33 89.5 -91.5t32.5 -131.5t-31 -130t-86.5 -88.5t-128.5 -31.5q-81 0 -139 37v-26h-89v667h95v-206q64 34 128 34q72 0 129 -33zM412 121.5q45 45.5 45 117.5q0 74 -46 120t-121 46q-59 0 -115 -36v-255q53 -38 120 -38q72 0 117 45.5z" />
    <glyph glyph-name="c" unicode="c" horiz-adv-x="503" 
d="M180.5 21.5q-61.5 32.5 -97 90t-35.5 128.5q0 72 34.5 130t94.5 91.5t134 33.5t149 -33v-107q-38 25 -72.5 37.5t-70.5 12.5q-49 0 -88 -20.5t-61.5 -57.5t-22.5 -84t22.5 -84.5t62.5 -58.5t89 -21q37 0 73 11.5t68 33.5v-104q-66 -31 -143 -31q-75 0 -136.5 32.5z" />
    <glyph glyph-name="d" unicode="d" horiz-adv-x="602" 
d="M522 667v-667h-89v30q-58 -41 -133 -41q-73 0 -130 32t-89.5 89t-32.5 130q0 74 32.5 132t90 90.5t130.5 32.5q33 0 66.5 -7.5t59.5 -22.5v202h95zM167 154q22 -37 60.5 -57.5t87.5 -20.5q56 0 112 37v257q-54 35 -114 35q-74 0 -121 -47t-47 -120q0 -47 22 -84z" />
    <glyph glyph-name="e" unicode="e" horiz-adv-x="550" 
d="M504 217h-357q7 -66 51 -104t112 -38q49 0 93 14.5t92 40.5v-100q-86 -41 -193 -41q-73 0 -130.5 32.5t-90.5 90t-33 130.5q0 71 31.5 129t86.5 91t123 33q65 0 113.5 -30t75 -86t26.5 -130v-32zM198.5 380q-35.5 -30 -47.5 -85h254q-5 53 -36 84t-82 31q-53 0 -88.5 -30
z" />
    <glyph glyph-name="f" unicode="f" horiz-adv-x="390" 
d="M212.5 567.5q-21.5 -25.5 -21.5 -74.5v-9h179v-87h-179v-397h-95v397h-76v87h76v7q0 88 48 138.5t138 50.5q44 0 88 -12v-93q-43 18 -93 18q-43 0 -64.5 -25.5z" />
    <glyph glyph-name="g" unicode="g" horiz-adv-x="516" 
d="M491 405h-80q27 -42 27 -88q0 -73 -56 -115t-138 -42q-30 0 -60 8q-13 -12 -13 -22q0 -13 24.5 -22.5t84.5 -23.5q107 -25 158 -60t51 -98q0 -60 -61 -96t-175 -36q-115 0 -174 36t-59 96q0 38 25 68.5t80 57.5q-24 15 -33.5 30t-9.5 33q0 38 41 67q-34 24 -53.5 59
t-19.5 75q0 77 55.5 120t138.5 43q34 0 69 -11h178v-79zM317 263q30 22 30 64t-29.5 64.5t-75.5 22.5q-42 0 -72 -22t-30 -64t29.5 -64.5t75.5 -22.5q42 0 72 22zM386.5 -27.5q-11.5 11.5 -43.5 24t-95 27.5q-30 8 -54 15q-43 -21 -63 -43t-20 -43q0 -29 36.5 -45.5
t105.5 -16.5q75 0 110 15t35 39q0 16 -11.5 27.5z" />
    <glyph glyph-name="h" unicode="h" horiz-adv-x="601" 
d="M471.5 437q55.5 -58 55.5 -164v-273h-95v262q0 69 -33 106t-101 37q-35 0 -66.5 -11t-56.5 -28v-366h-95v667h95v-212q60 40 139 40q102 0 157.5 -58z" />
    <glyph glyph-name="i" unicode="i" horiz-adv-x="256" 
d="M60 586l69 68l68 -68l-68 -69zM80 484h96v-484h-96v484z" />
    <glyph glyph-name="j" unicode="j" horiz-adv-x="256" 
d="M59 586l69 68l68 -68l-68 -69zM-18 -181v90q19 -5 38 -5q35 0 48 21.5t13 71.5v487h95v-499q0 -82 -37 -126.5t-105 -44.5q-32 0 -52 5z" />
    <glyph glyph-name="k" unicode="k" horiz-adv-x="531" 
d="M395 0l-220 234v-234h-95v667h95v-366l204 183h135l-249 -214l261 -270h-131z" />
    <glyph glyph-name="l" unicode="l" horiz-adv-x="322" 
d="M112.5 29.5q-38.5 40.5 -38.5 122.5v515h95v-513q0 -39 17 -58t49 -19q37 0 71 16v-90q-40 -14 -85 -14q-70 0 -108.5 40.5z" />
    <glyph glyph-name="m" unicode="m" horiz-adv-x="929" 
d="M802 436q53 -58 53 -164v-273h-95v262q0 69 -30 106t-91 37q-70 0 -133 -51q9 -36 9 -80v-273h-95v262q0 143 -125 143q-34 0 -65 -11t-55 -28v-366h-95v484h94v-29q60 40 137 40q103 0 156 -64q43 32 87.5 47.5t96.5 15.5q98 0 151 -58z" />
    <glyph glyph-name="n" unicode="n" horiz-adv-x="601" 
d="M471.5 437q55.5 -58 55.5 -164v-273h-95v262q0 69 -33 106t-101 37q-35 0 -66.5 -11t-56.5 -28v-366h-95v484h94v-29q60 40 140 40q102 0 157.5 -58z" />
    <glyph glyph-name="o" unicode="o" horiz-adv-x="610" 
d="M175 22q-59 33 -93 90.5t-34 129.5t34 129.5t93 90.5t130 33t130 -33t93 -90.5t34 -129.5t-34 -129.5t-93 -90.5t-130 -33t-130 33zM385.5 100q36.5 21 58 58t21.5 84t-21.5 84t-58 58t-80.5 21t-80.5 -21t-58 -58t-21.5 -84t21.5 -84t58 -58t80.5 -21t80.5 21z" />
    <glyph glyph-name="p" unicode="p" horiz-adv-x="602" 
d="M434.5 462.5q56.5 -32.5 88 -90t31.5 -130.5t-32.5 -130.5t-91 -90t-132.5 -32.5q-34 0 -66.5 7.5t-56.5 23.5v-206h-95v670h89v-32q28 21 64 32t73 11q72 0 128.5 -32.5zM374.5 97q38.5 21 60.5 59t22 86q0 47 -21.5 84t-60 58t-87.5 21q-57 0 -113 -37v-256
q22 -15 52 -25.5t60 -10.5q49 0 87.5 21z" />
    <glyph glyph-name="q" unicode="q" horiz-adv-x="602" 
d="M522 484v-670h-95v209q-52 -34 -124 -34q-74 0 -132 32.5t-90.5 90t-32.5 130.5t32.5 130.5t91 90t132.5 32.5q33 0 68.5 -11t60.5 -28v28h89zM427 112v257q-24 18 -54.5 27t-57.5 9q-49 0 -87.5 -21t-60.5 -58t-22 -84q0 -48 21.5 -86t60 -59t87.5 -21q61 0 113 36z" />
    <glyph glyph-name="r" unicode="r" horiz-adv-x="402" 
d="M341.5 490q23.5 -5 40.5 -14v-94l-2 -1q-22 13 -43 19t-47 6q-62 0 -115 -43v-363h-95v484h95v-27q48 38 120 38q23 0 46.5 -5z" />
    <glyph glyph-name="s" unicode="s" horiz-adv-x="480" 
d="M135.5 0q-46.5 11 -83.5 29v108q39 -29 86 -45.5t96 -16.5q105 0 105 60q0 28 -23.5 46.5t-84.5 29.5q-65 12 -103 28.5t-56 43.5t-18 70q0 64 53 103t135 39q78 0 154 -29v-102q-67 46 -154 46q-43 0 -67.5 -12.5t-24.5 -34.5q0 -26 20.5 -38t76.5 -23q61 -12 101 -28.5
t63.5 -48.5t23.5 -84q0 -70 -52 -111t-149 -41q-52 0 -98.5 11z" />
    <glyph glyph-name="t" unicode="t" horiz-adv-x="415" 
d="M191 396v-230q0 -91 89 -91q22 0 50.5 7t54.5 19v-93q-55 -19 -121 -19q-79 0 -123.5 47t-44.5 130v230h-76v88h76v111h95v-111h194v-88h-194z" />
    <glyph glyph-name="u" unicode="u" horiz-adv-x="601" 
d="M521 484v-484h-94v29q-60 -40 -140 -40q-102 0 -157.5 58t-55.5 164v273h95v-262q0 -69 33 -106t101 -37q35 0 66.5 11t56.5 28v366h95z" />
    <glyph glyph-name="v" unicode="v" horiz-adv-x="541" 
d="M15 484h107l150 -367l148 367h106l-210 -484h-89z" />
    <glyph glyph-name="w" unicode="w" horiz-adv-x="859" 
d="M26 484h106l118 -362l138 362h85l142 -362l119 362h99l-164 -484h-103l-135 353l-138 -353h-102z" />
    <glyph glyph-name="x" unicode="x" horiz-adv-x="515" 
d="M399 0l-144 193l-140 -193h-110l196 262l-170 222h111l114 -153l110 153h110l-167 -222l201 -262h-111z" />
    <glyph glyph-name="y" unicode="y" horiz-adv-x="541" 
d="M526 484l-235 -564q-19 -47 -58 -76.5t-99 -29.5q-25 0 -35 1v82q9 -1 33 -1q59 0 83 59l14 34l-214 495h104l156 -381l147 381h104z" />
    <glyph glyph-name="z" unicode="z" horiz-adv-x="474" 
d="M284 396h-232v88h401l-260 -396h240v-88h-412z" />
    <glyph glyph-name="braceleft" unicode="{" horiz-adv-x="361" 
d="M205 -100q-36 14 -51.5 46t-15.5 89v133q0 38 -8.5 58.5t-25 33.5t-54.5 34v76q38 21 54.5 34t25 33.5t8.5 58.5v133q0 57 15.5 89t51.5 46t100 14h16v-64h-15q-45 0 -63 -18t-18 -56v-144q0 -61 -16.5 -97.5t-63.5 -66.5q47 -30 63.5 -66.5t16.5 -97.5v-144
q0 -38 18 -56t63 -18h15v-64h-16q-64 0 -100 14z" />
    <glyph glyph-name="bar" unicode="|" horiz-adv-x="231" 
d="M71 750h89v-1000h-89v1000z" />
    <glyph glyph-name="braceright" unicode="}" horiz-adv-x="361" 
d="M40 -114v64h15q45 0 63 18t18 56v144q0 61 16.5 97.5t63.5 66.5q-47 30 -63.5 66.5t-16.5 97.5v144q0 38 -18 56t-63 18h-15v64h16q64 0 100 -14t51.5 -46t15.5 -89v-133q0 -38 8.5 -58.5t25 -33.5t54.5 -34v-76q-38 -21 -54.5 -34t-25 -33.5t-8.5 -58.5v-133
q0 -57 -15.5 -89t-51.5 -46t-100 -14h-16z" />
    <glyph glyph-name="asciitilde" unicode="~" horiz-adv-x="540" 
d="M50 273q43 149 130 149q29 0 52.5 -12.5t53.5 -35.5q24 -19 40.5 -28.5t33.5 -9.5q21 0 32.5 19.5t22.5 62.5l75 -23q-45 -149 -131 -149q-29 0 -52 12.5t-52 35.5q-26 20 -42 29t-33 9q-21 0 -32.5 -19t-22.5 -63z" />
    <glyph glyph-name="uni00A0" unicode="&#xa0;" horiz-adv-x="260" 
 />
    <glyph glyph-name="exclamdown" unicode="&#xa1;" horiz-adv-x="288" 
d="M209 429l-65 -65l-65 65l65 65zM189 121q8 -98 8 -181v-126h-107v126q0 83 8 181l16 205h59z" />
    <glyph glyph-name="cent" unicode="&#xa2;" horiz-adv-x="503" 
d="M229 384.5q-39 -20.5 -61.5 -57.5t-22.5 -84t22.5 -84.5t62.5 -58.5t89 -21q37 0 73 11.5t68 33.5v-104q-54 -26 -114 -30v-65h-94v71q-90 20 -147 86.5t-57 157.5q0 62 26 114t72.5 87.5t105.5 47.5v71h94v-67q55 -6 114 -31v-107q-38 25 -72.5 37.5t-70.5 12.5
q-49 0 -88 -20.5z" />
    <glyph glyph-name="sterling" unicode="&#xa3;" 
d="M495 93l-39 -93h-426q85 106 97 243l2 22h-65l18 93h55l8 101q8 98 55.5 159.5t139.5 61.5q49 0 82 -15t62 -47l-49 -84q-19 23 -45 38t-53 15q-84 0 -95 -140l-7 -89h157l-20 -93h-145l-3 -39q-4 -35 -15 -73t-24 -60h310z" />
    <glyph glyph-name="currency" unicode="&#xa4;" horiz-adv-x="606" 
d="M478 143l78 -83l-77 -70l-77 83q-44 -23 -99 -23q-54 0 -98 23l-78 -83l-77 70l78 83q-30 47 -30 110q0 60 30 109l-78 83l77 70l78 -83q44 23 98 23q55 0 99 -23l77 83l77 -70l-78 -83q30 -49 30 -109q0 -61 -30 -110zM380.5 171.5q29.5 30.5 29.5 80.5q0 51 -29.5 81.5
t-77.5 30.5t-77.5 -30.5t-29.5 -81.5q0 -50 29.5 -80.5t77.5 -30.5t77.5 30.5z" />
    <glyph glyph-name="yen" unicode="&#xa5;" horiz-adv-x="621" 
d="M447 438h101v-78h-152l-32 -49v-29h184v-78h-184v-204h-102v204h-185v78h185v29l-33 49h-152v78h100l-152 229h117l173 -266l169 266h112z" />
    <glyph glyph-name="brokenbar" unicode="&#xa6;" horiz-adv-x="231" 
d="M71 750h89v-395h-89v395zM71 145h89v-395h-89v395z" />
    <glyph glyph-name="section" unicode="&#xa7;" horiz-adv-x="494" 
d="M440 -17q0 -51 -30 -89.5t-76 -59t-94 -20.5q-71 0 -120 29t-91 90l79 43q24 -37 57.5 -59t74.5 -22q38 0 69.5 23t31.5 60q0 28 -17.5 47t-44.5 31t-73 28q-58 20 -94 38t-61.5 50t-25.5 82q0 46 26 80t78 50q-82 49 -82 138q0 50 26 86t69 54t92 18q67 0 117 -29
t75 -88l-77 -42q-18 38 -47.5 58.5t-67.5 20.5q-37 0 -63 -21t-26 -57q0 -28 16.5 -46.5t41 -30t67.5 -26.5q57 -20 92.5 -38t61 -53.5t25.5 -91.5q0 -40 -23.5 -70.5t-58.5 -49.5q73 -48 73 -133zM151 208q29 -18 92 -39l35 -12q28 8 49.5 30t21.5 49q0 36 -29 56.5
t-89 44.5q-49 -5 -79 -24t-30 -54q0 -33 29 -51z" />
    <glyph glyph-name="copyright" unicode="&#xa9;" horiz-adv-x="804" 
d="M228 35q-79 46 -125 125.5t-46 174.5q0 94 46 173.5t125.5 125.5t173.5 46t173.5 -46t125.5 -125.5t46 -173.5q0 -95 -46 -174.5t-125 -125.5t-174 -46t-174 46zM550.5 78q67.5 40 107 108t39.5 149t-39.5 148.5t-107 107t-148.5 39.5t-149 -39.5t-107.5 -107
t-39.5 -148.5t39.5 -149.5t107.5 -108t149 -39.5t148.5 40zM301 154.5q-51 27.5 -81 75t-30 105.5t29.5 105t80.5 74t114 27q39 0 70.5 -8t64.5 -27v-71q-55 44 -135 44q-36 0 -68 -16.5t-52 -49t-20 -78.5q0 -41 19.5 -74.5t52 -52.5t70.5 -19q40 0 71.5 12t61.5 33v-74
q-37 -17 -68 -25t-67 -8q-62 0 -113 27.5z" />
    <glyph glyph-name="ordfeminine" unicode="&#xaa;" horiz-adv-x="311" 
d="M271 569v-188h-69v20q-37 -27 -80 -27t-69.5 24.5t-26.5 62.5q0 51 49 78t125 30q-2 28 -14 39.5t-43 11.5q-47 0 -106 -32l20 72q48 20 96 20q118 0 118 -111zM200 453v66q-46 -5 -73.5 -16t-27.5 -39q0 -15 10 -24.5t27 -9.5q31 0 64 23z" />
    <glyph glyph-name="guillemotleft" unicode="&#xab;" horiz-adv-x="566" 
d="M45 271l166 213h98l-167 -213l167 -206h-98zM257 271l166 213h98l-167 -213l167 -206h-98z" />
    <glyph glyph-name="logicalnot" unicode="&#xac;" 
d="M383 399h-315v85h400v-290h-85v205z" />
    <glyph glyph-name="uni00AD" unicode="&#xad;" horiz-adv-x="382" 
d="M35 316h312v-90h-312v90z" />
    <glyph glyph-name="registered" unicode="&#xae;" horiz-adv-x="804" 
d="M576 634q79 -46 125 -125t46 -173q0 -95 -46 -174.5t-125.5 -126t-173.5 -46.5t-173.5 46.5t-125.5 126t-46 174.5q0 94 46 173t125 125t174 46t174 -46zM550.5 78q67.5 40 107 108t39.5 150q0 81 -39.5 148.5t-107 106.5t-148.5 39t-149 -39t-107.5 -106.5t-39.5 -148.5
q0 -82 39.5 -150t107.5 -108t149 -40t148.5 40zM520.5 352.5q-19.5 -27.5 -55.5 -42.5l120 -177h-92l-107 164h-35v-164h-81v400h127q59 0 101 -30t42 -88q0 -35 -19.5 -62.5zM351 356h35q73 0 73 62q0 25 -18 40t-55 15h-35v-117z" />
    <glyph glyph-name="degree" unicode="&#xb0;" horiz-adv-x="392" 
d="M122.5 407.5q-33.5 19.5 -53 53t-19.5 73.5t19.5 73.5t53 53t73.5 19.5t73.5 -19.5t53 -53t19.5 -73.5t-19.5 -73.5t-53 -53t-73.5 -19.5t-73.5 19.5zM245 485.5q20 20.5 20 48.5q0 29 -20 49t-49 20q-28 0 -48.5 -20t-20.5 -49q0 -28 20.5 -48.5t48.5 -20.5
q29 0 49 20.5z" />
    <glyph glyph-name="plusminus" unicode="&#xb1;" 
d="M225 343h-158v85h158v150h84v-150h158v-85h-158v-150h-84v150zM69 85h400v-85h-400v85z" />
    <glyph glyph-name="uni00B2" unicode="&#xb2;" horiz-adv-x="334" 
d="M186 493q21 32 21 61q0 24 -16.5 37t-42.5 13q-25 0 -53 -13.5t-53 -39.5v88q50 41 113 41q55 0 94 -31.5t39 -89.5q0 -25 -12.5 -53.5t-42.5 -76.5l-57 -91h121v-75h-255z" />
    <glyph glyph-name="uni00B3" unicode="&#xb3;" horiz-adv-x="336" 
d="M23 314l46 54q37 -46 85 -46q34 0 54 22t20 52t-22.5 51.5t-64.5 21.5q-22 0 -43 -6l81 135h-144v69h265l-87 -148q44 -11 67.5 -45t23.5 -77q0 -37 -17.5 -70t-51 -54t-79.5 -21q-83 0 -133 62z" />
    <glyph glyph-name="uni00B5" unicode="&#xb5;" horiz-adv-x="582" 
d="M80 484h95v-262q0 -65 28.5 -104t92.5 -39q31 0 60 11t51 28v366h95v-484h-95v34q-54 -45 -127 -45q-37 0 -60.5 8.5t-44.5 30.5v-214h-95v670z" />
    <glyph glyph-name="paragraph" unicode="&#xb6;" horiz-adv-x="550" 
d="M525 667v-60h-56v-793h-74v793h-71v-793h-75v499h-17q-53 0 -95 22.5t-65.5 62.5t-23.5 90q0 93 61 136t155 43h261z" />
    <glyph glyph-name="periodcentered" unicode="&#xb7;" horiz-adv-x="249" 
d="M51 334l74 74l73 -74l-73 -73z" />
    <glyph glyph-name="uni00B9" unicode="&#xb9;" horiz-adv-x="235" 
d="M78 624l79 56v-417h-79v361z" />
    <glyph glyph-name="ordmasculine" unicode="&#xba;" horiz-adv-x="384" 
d="M111 394q-37 20 -59 55t-22 78t22 78t59 55t81 20t81.5 -20t59 -55t21.5 -78t-21.5 -78t-59 -55t-81.5 -20t-81 20zM255 462.5q26 26.5 26 64.5t-26 64.5t-63 26.5t-63 -26.5t-26 -64.5t26 -64.5t63 -26.5t63 26.5z" />
    <glyph glyph-name="guillemotright" unicode="&#xbb;" horiz-adv-x="566" 
d="M45 65l167 206l-167 213h98l166 -213l-166 -206h-98zM257 65l167 206l-167 213h98l166 -213l-166 -206h-98z" />
    <glyph glyph-name="onequarter" unicode="&#xbc;" horiz-adv-x="803" 
d="M78 624l79 56v-417h-79v361zM515 680h81l-347 -693h-81zM650 78h-236l316 339v-275h45v-64h-45v-78h-80v78zM656 142v109l-102 -109h102z" />
    <glyph glyph-name="onehalf" unicode="&#xbd;" horiz-adv-x="838" 
d="M78 624l79 56v-417h-79v361zM515 680h81l-347 -693h-81zM690 230q21 32 21 61q0 24 -16.5 37t-42.5 13q-25 0 -53 -13.5t-53 -39.5v88q50 41 113 41q55 0 94 -31.5t39 -89.5q0 -25 -12.5 -53.5t-42.5 -76.5l-57 -91h121v-75h-255z" />
    <glyph glyph-name="threequarters" unicode="&#xbe;" horiz-adv-x="873" 
d="M23 314l46 54q37 -46 85 -46q34 0 54 22t20 52t-22.5 51.5t-64.5 21.5q-22 0 -43 -6l81 135h-144v69h265l-87 -148q44 -11 67.5 -45t23.5 -77q0 -37 -17.5 -70t-51 -54t-79.5 -21q-83 0 -133 62zM585 680h81l-347 -693h-81zM720 78h-236l316 339v-275h45v-64h-45v-78h-80
v78zM726 142v109l-102 -109h102z" />
    <glyph glyph-name="questiondown" unicode="&#xbf;" horiz-adv-x="456" 
d="M325 422l-74 -74l-73 74l73 73zM313.5 258.5q20.5 -28.5 20.5 -63.5q0 -27 -13 -47.5t-31 -35t-50 -35.5q-42 -27 -63.5 -48t-21.5 -52q0 -39 26.5 -60.5t67.5 -21.5q69 0 127 67l63 -67q-77 -93 -190 -93q-55 0 -99 21t-69.5 61t-25.5 93q0 41 17.5 71t41 48.5
t59.5 41.5q32 20 46.5 32.5t14.5 28.5q0 12 -9 22.5t-37 35.5l63 63q42 -33 62.5 -61.5z" />
    <glyph glyph-name="Agrave" unicode="&#xc0;" horiz-adv-x="674" 
d="M479 160h-289l-62 -160h-108l269 667h86l279 -667h-111zM443 253l-110 276l-107 -276h217zM200 860h113l100 -143h-81z" />
    <glyph glyph-name="Aacute" unicode="&#xc1;" horiz-adv-x="674" 
d="M479 160h-289l-62 -160h-108l269 667h86l279 -667h-111zM443 253l-110 276l-107 -276h217zM361 860h113l-132 -143h-81z" />
    <glyph glyph-name="Acircumflex" unicode="&#xc2;" horiz-adv-x="674" 
d="M479 160h-289l-62 -160h-108l269 667h86l279 -667h-111zM443 253l-110 276l-107 -276h217zM283 855h108l92 -143h-66l-80 90l-81 -90h-65z" />
    <glyph glyph-name="Atilde" unicode="&#xc3;" horiz-adv-x="674" 
d="M479 160h-289l-62 -160h-108l269 667h86l279 -667h-111zM443 253l-110 276l-107 -276h217zM348.5 729q-16.5 7 -40.5 22q-18 11 -30.5 17t-24.5 6q-15 0 -25.5 -11t-20.5 -31l-48 41q15 38 38 59.5t60 21.5q18 0 33.5 -6.5t41.5 -21.5q18 -12 31.5 -18t26.5 -6
q17 0 27 12.5t18 34.5l51 -39q-27 -88 -102 -88q-19 0 -35.5 7z" />
    <glyph glyph-name="Adieresis" unicode="&#xc4;" horiz-adv-x="674" 
d="M479 160h-289l-62 -160h-108l269 667h86l279 -667h-111zM443 253l-110 276l-107 -276h217zM171 785l67 68l70 -69l-70 -68zM366 785l67 68l70 -69l-70 -68z" />
    <glyph glyph-name="Aring" unicode="&#xc5;" horiz-adv-x="674" 
d="M479 160h-289l-62 -160h-108l269 667h86l279 -667h-111zM443 253l-110 276l-107 -276h217zM272 725q-27 27 -27 65t27 64.5t65 26.5t65 -26.5t27 -64.5t-27 -65t-65 -27t-65 27zM371.5 755.5q14.5 14.5 14.5 34.5t-14.5 34t-34.5 14t-34.5 -14t-14.5 -34t14.5 -34.5
t34.5 -14.5t34.5 14.5z" />
    <glyph glyph-name="AE" unicode="&#xc6;" horiz-adv-x="925" 
d="M882 93v-93h-420v196h-223l-110 -196h-119l388 667h468v-93h-302v-169h227v-93h-227v-219h318zM462 289v292h-6l-164 -292h170z" />
    <glyph glyph-name="Ccedilla" unicode="&#xc7;" horiz-adv-x="682" 
d="M286 555.5q-59 -31.5 -92 -88t-33 -128.5q0 -75 33 -134t92 -92t135 -33q53 0 99.5 13.5t104.5 48.5v-108q-43 -21 -98 -34t-108 -13h-11l-10 -21h5q37 0 62 -20t25 -49q0 -43 -38 -73t-111 -30q-40 0 -65 5v65q37 -8 72 -8q55 0 55 31q0 30 -55 30q-20 0 -34 -3l35 79
q-83 15 -149.5 64t-104.5 121.5t-38 156.5q0 95 48 174t130.5 125t181.5 46q118 0 208 -47v-108q-52 32 -98 47t-107 15q-75 0 -134 -31.5z" />
    <glyph glyph-name="Egrave" unicode="&#xc8;" horiz-adv-x="578" 
d="M95 667h424v-93h-322v-169h247v-93h-247v-219h338v-93h-440v667zM165 860h113l100 -143h-81z" />
    <glyph glyph-name="Eacute" unicode="&#xc9;" horiz-adv-x="578" 
d="M95 667h424v-93h-322v-169h247v-93h-247v-219h338v-93h-440v667zM326 860h113l-132 -143h-81z" />
    <glyph glyph-name="Ecircumflex" unicode="&#xca;" horiz-adv-x="578" 
d="M95 667h424v-93h-322v-169h247v-93h-247v-219h338v-93h-440v667zM248 855h108l92 -143h-66l-80 90l-81 -90h-65z" />
    <glyph glyph-name="Edieresis" unicode="&#xcb;" horiz-adv-x="578" 
d="M95 667h424v-93h-322v-169h247v-93h-247v-219h338v-93h-440v667zM136 785l67 68l70 -69l-70 -68zM331 785l67 68l70 -69l-70 -68z" />
    <glyph glyph-name="Igrave" unicode="&#xcc;" horiz-adv-x="292" 
d="M95 667h102v-667h-102v667zM9 860h113l100 -143h-81z" />
    <glyph glyph-name="Iacute" unicode="&#xcd;" horiz-adv-x="292" 
d="M95 667h102v-667h-102v667zM170 860h113l-132 -143h-81z" />
    <glyph glyph-name="Icircumflex" unicode="&#xce;" horiz-adv-x="292" 
d="M95 667h102v-667h-102v667zM92 855h108l92 -143h-66l-80 90l-81 -90h-65z" />
    <glyph glyph-name="Idieresis" unicode="&#xcf;" horiz-adv-x="292" 
d="M95 667h102v-667h-102v667zM-20 785l67 68l70 -69l-70 -68zM175 785l67 68l70 -69l-70 -68z" />
    <glyph glyph-name="Eth" unicode="&#xd0;" horiz-adv-x="727" 
d="M487.5 626.5q85.5 -40.5 134 -115.5t48.5 -173q0 -105 -48.5 -181.5t-136.5 -116.5t-203 -40h-187v295h-67v78h67v294h197q110 0 195.5 -40.5zM437 123q62 30 95.5 84.5t33.5 125.5q0 76 -35.5 130.5t-97.5 82.5t-141 28h-95v-201h169v-78h-169v-202h95q83 0 145 30z" />
    <glyph glyph-name="Ntilde" unicode="&#xd1;" horiz-adv-x="778" 
d="M95 667h93l393 -498v498h102v-667h-93l-393 498v-498h-102v667zM400.5 729q-16.5 7 -40.5 22q-18 11 -30.5 17t-24.5 6q-15 0 -25.5 -11t-20.5 -31l-48 41q15 38 38 59.5t60 21.5q18 0 33.5 -6.5t41.5 -21.5q18 -12 31.5 -18t26.5 -6q17 0 27 12.5t18 34.5l51 -39
q-27 -88 -102 -88q-19 0 -35.5 7z" />
    <glyph glyph-name="Ograve" unicode="&#xd2;" horiz-adv-x="822" 
d="M234 34q-81 46 -129 125.5t-48 174.5t48 174.5t129 125.5t177 46t177 -46t129 -125.5t48 -174.5t-48 -174.5t-129 -125.5t-177 -46t-177 46zM539 115q57 32 89.5 89.5t32.5 129.5t-32.5 129.5t-89.5 89.5t-128 32t-128 -32t-89.5 -89.5t-32.5 -129.5t32.5 -129.5
t89.5 -89.5t128 -32t128 32zM274 860h113l100 -143h-81z" />
    <glyph glyph-name="Oacute" unicode="&#xd3;" horiz-adv-x="822" 
d="M234 34q-81 46 -129 125.5t-48 174.5t48 174.5t129 125.5t177 46t177 -46t129 -125.5t48 -174.5t-48 -174.5t-129 -125.5t-177 -46t-177 46zM539 115q57 32 89.5 89.5t32.5 129.5t-32.5 129.5t-89.5 89.5t-128 32t-128 -32t-89.5 -89.5t-32.5 -129.5t32.5 -129.5
t89.5 -89.5t128 -32t128 32zM435 860h113l-132 -143h-81z" />
    <glyph glyph-name="Ocircumflex" unicode="&#xd4;" horiz-adv-x="822" 
d="M234 34q-81 46 -129 125.5t-48 174.5t48 174.5t129 125.5t177 46t177 -46t129 -125.5t48 -174.5t-48 -174.5t-129 -125.5t-177 -46t-177 46zM539 115q57 32 89.5 89.5t32.5 129.5t-32.5 129.5t-89.5 89.5t-128 32t-128 -32t-89.5 -89.5t-32.5 -129.5t32.5 -129.5
t89.5 -89.5t128 -32t128 32zM357 855h108l92 -143h-66l-80 90l-81 -90h-65z" />
    <glyph glyph-name="Otilde" unicode="&#xd5;" horiz-adv-x="822" 
d="M234 34q-81 46 -129 125.5t-48 174.5t48 174.5t129 125.5t177 46t177 -46t129 -125.5t48 -174.5t-48 -174.5t-129 -125.5t-177 -46t-177 46zM539 115q57 32 89.5 89.5t32.5 129.5t-32.5 129.5t-89.5 89.5t-128 32t-128 -32t-89.5 -89.5t-32.5 -129.5t32.5 -129.5
t89.5 -89.5t128 -32t128 32zM422.5 729q-16.5 7 -40.5 22q-18 11 -30.5 17t-24.5 6q-15 0 -25.5 -11t-20.5 -31l-48 41q15 38 38 59.5t60 21.5q18 0 33.5 -6.5t41.5 -21.5q18 -12 31.5 -18t26.5 -6q17 0 27 12.5t18 34.5l51 -39q-27 -88 -102 -88q-19 0 -35.5 7z" />
    <glyph glyph-name="Odieresis" unicode="&#xd6;" horiz-adv-x="822" 
d="M234 34q-81 46 -129 125.5t-48 174.5t48 174.5t129 125.5t177 46t177 -46t129 -125.5t48 -174.5t-48 -174.5t-129 -125.5t-177 -46t-177 46zM539 115q57 32 89.5 89.5t32.5 129.5t-32.5 129.5t-89.5 89.5t-128 32t-128 -32t-89.5 -89.5t-32.5 -129.5t32.5 -129.5
t89.5 -89.5t128 -32t128 32zM245 785l67 68l70 -69l-70 -68zM440 785l67 68l70 -69l-70 -68z" />
    <glyph glyph-name="multiply" unicode="&#xd7;" 
d="M79 206l129 128l-124 124l60 60l124 -124l128 129l60 -61l-128 -128l126 -126l-60 -60l-126 126l-128 -128z" />
    <glyph glyph-name="Oslash" unicode="&#xd8;" horiz-adv-x="822" 
d="M742.5 455.5q22.5 -57.5 22.5 -121.5q0 -95 -48 -174.5t-129 -125.5t-177 -46q-62 0 -118.5 20t-103.5 56l-68 -68l-46 46l67 67q-40 46 -62.5 104t-22.5 121q0 95 48 174.5t129 125.5t177 46q61 0 118 -19.5t103 -56.5l68 69l46 -46l-67 -67q41 -47 63.5 -104.5z
M210 179l355 357q-66 49 -154 49q-71 0 -128 -32t-89.5 -89.5t-32.5 -129.5q0 -90 49 -155zM539 115q57 32 89.5 89.5t32.5 129.5q0 92 -50 156l-355 -357q66 -50 155 -50q71 0 128 32z" />
    <glyph glyph-name="Ugrave" unicode="&#xd9;" horiz-adv-x="773" 
d="M230.5 27.5q-68.5 40.5 -106 110t-37.5 152.5v377h102v-377q0 -58 24.5 -105.5t69.5 -75t104 -27.5t104 27.5t69.5 75t24.5 105.5v377h102v-377q0 -83 -37.5 -152.5t-106 -110t-156.5 -40.5t-156.5 40.5zM250 860h113l100 -143h-81z" />
    <glyph glyph-name="Uacute" unicode="&#xda;" horiz-adv-x="773" 
d="M230.5 27.5q-68.5 40.5 -106 110t-37.5 152.5v377h102v-377q0 -58 24.5 -105.5t69.5 -75t104 -27.5t104 27.5t69.5 75t24.5 105.5v377h102v-377q0 -83 -37.5 -152.5t-106 -110t-156.5 -40.5t-156.5 40.5zM411 860h113l-132 -143h-81z" />
    <glyph glyph-name="Ucircumflex" unicode="&#xdb;" horiz-adv-x="773" 
d="M230.5 27.5q-68.5 40.5 -106 110t-37.5 152.5v377h102v-377q0 -58 24.5 -105.5t69.5 -75t104 -27.5t104 27.5t69.5 75t24.5 105.5v377h102v-377q0 -83 -37.5 -152.5t-106 -110t-156.5 -40.5t-156.5 40.5zM333 855h108l92 -143h-66l-80 90l-81 -90h-65z" />
    <glyph glyph-name="Udieresis" unicode="&#xdc;" horiz-adv-x="773" 
d="M230.5 27.5q-68.5 40.5 -106 110t-37.5 152.5v377h102v-377q0 -58 24.5 -105.5t69.5 -75t104 -27.5t104 27.5t69.5 75t24.5 105.5v377h102v-377q0 -83 -37.5 -152.5t-106 -110t-156.5 -40.5t-156.5 40.5zM221 785l67 68l70 -69l-70 -68zM416 785l67 68l70 -69l-70 -68z
" />
    <glyph glyph-name="Yacute" unicode="&#xdd;" horiz-adv-x="601" 
d="M252 311l-237 356h117l173 -266l169 266h112l-232 -356v-311h-102v311zM327 860h113l-132 -143h-81z" />
    <glyph glyph-name="Thorn" unicode="&#xde;" horiz-adv-x="590" 
d="M95 667h102v-130h113q114 0 173 -55.5t59 -146.5q0 -97 -65.5 -151.5t-171.5 -54.5h-108v-129h-102v667zM296 222q70 0 106 29t36 82q0 54 -36 82.5t-106 28.5h-99v-222h99z" />
    <glyph glyph-name="germandbls" unicode="&#xdf;" horiz-adv-x="551" 
d="M234 -4v89q29 -10 57 -10q55 0 89.5 29.5t34.5 85.5q0 63 -39 97t-103 34q-9 0 -25 -2v92q9 -2 25 -2q53 0 82.5 27.5t29.5 69.5q0 38 -24.5 62.5t-71.5 24.5q-58 0 -86 -37.5t-28 -103.5v-452h-95v442q0 113 56 175.5t153 62.5q58 0 100 -23.5t63.5 -63t21.5 -86.5
q0 -51 -26 -86.5t-79 -50.5q67 -15 105 -60t38 -120q0 -97 -61.5 -149t-159.5 -52q-29 0 -57 7z" />
    <glyph glyph-name="agrave" unicode="&#xe0;" horiz-adv-x="518" 
d="M391.5 445q52.5 -50 52.5 -150v-295h-95v34q-72 -45 -145 -45q-69 0 -111.5 38.5t-42.5 98.5q0 74 71 126.5t228 58.5q-2 48 -32.5 73t-79.5 25q-42 0 -80 -15.5t-80 -44.5l-2 2l28 112q32 15 70.5 23.5t74.5 8.5q91 0 143.5 -50zM165 85.5q18 -16.5 54 -16.5
q31 0 66 11.5t64 33.5v125q-108 -4 -155 -35t-47 -73q0 -29 18 -45.5zM117 700h113l100 -143h-81z" />
    <glyph glyph-name="aacute" unicode="&#xe1;" horiz-adv-x="518" 
d="M391.5 445q52.5 -50 52.5 -150v-295h-95v34q-72 -45 -145 -45q-69 0 -111.5 38.5t-42.5 98.5q0 74 71 126.5t228 58.5q-2 48 -32.5 73t-79.5 25q-42 0 -80 -15.5t-80 -44.5l-2 2l28 112q32 15 70.5 23.5t74.5 8.5q91 0 143.5 -50zM165 85.5q18 -16.5 54 -16.5
q31 0 66 11.5t64 33.5v125q-108 -4 -155 -35t-47 -73q0 -29 18 -45.5zM278 700h113l-132 -143h-81z" />
    <glyph glyph-name="acircumflex" unicode="&#xe2;" horiz-adv-x="518" 
d="M391.5 445q52.5 -50 52.5 -150v-295h-95v34q-72 -45 -145 -45q-69 0 -111.5 38.5t-42.5 98.5q0 74 71 126.5t228 58.5q-2 48 -32.5 73t-79.5 25q-42 0 -80 -15.5t-80 -44.5l-2 2l28 112q32 15 70.5 23.5t74.5 8.5q91 0 143.5 -50zM165 85.5q18 -16.5 54 -16.5
q31 0 66 11.5t64 33.5v125q-108 -4 -155 -35t-47 -73q0 -29 18 -45.5zM200 695h108l92 -143h-66l-80 90l-81 -90h-65z" />
    <glyph glyph-name="atilde" unicode="&#xe3;" horiz-adv-x="518" 
d="M391.5 445q52.5 -50 52.5 -150v-295h-95v34q-72 -45 -145 -45q-69 0 -111.5 38.5t-42.5 98.5q0 74 71 126.5t228 58.5q-2 48 -32.5 73t-79.5 25q-42 0 -80 -15.5t-80 -44.5l-2 2l28 112q32 15 70.5 23.5t74.5 8.5q91 0 143.5 -50zM165 85.5q18 -16.5 54 -16.5
q31 0 66 11.5t64 33.5v125q-108 -4 -155 -35t-47 -73q0 -29 18 -45.5zM279.5 569q-16.5 7 -40.5 22q-18 11 -30.5 17t-24.5 6q-15 0 -25.5 -11t-20.5 -31l-48 41q15 38 38 59.5t60 21.5q18 0 33.5 -6.5t41.5 -21.5q18 -12 31.5 -18t26.5 -6q17 0 27 12.5t18 34.5l51 -39
q-27 -88 -102 -88q-19 0 -35.5 7z" />
    <glyph glyph-name="adieresis" unicode="&#xe4;" horiz-adv-x="518" 
d="M391.5 445q52.5 -50 52.5 -150v-295h-95v34q-72 -45 -145 -45q-69 0 -111.5 38.5t-42.5 98.5q0 74 71 126.5t228 58.5q-2 48 -32.5 73t-79.5 25q-42 0 -80 -15.5t-80 -44.5l-2 2l28 112q32 15 70.5 23.5t74.5 8.5q91 0 143.5 -50zM165 85.5q18 -16.5 54 -16.5
q31 0 66 11.5t64 33.5v125q-108 -4 -155 -35t-47 -73q0 -29 18 -45.5zM88 612l67 68l70 -69l-70 -68zM283 612l67 68l70 -69l-70 -68z" />
    <glyph glyph-name="aring" unicode="&#xe5;" horiz-adv-x="518" 
d="M391.5 445q52.5 -50 52.5 -150v-295h-95v34q-72 -45 -145 -45q-69 0 -111.5 38.5t-42.5 98.5q0 74 71 126.5t228 58.5q-2 48 -32.5 73t-79.5 25q-42 0 -80 -15.5t-80 -44.5l-2 2l28 112q32 15 70.5 23.5t74.5 8.5q91 0 143.5 -50zM165 85.5q18 -16.5 54 -16.5
q31 0 66 11.5t64 33.5v125q-108 -4 -155 -35t-47 -73q0 -29 18 -45.5zM189 565q-27 27 -27 65t27 64.5t65 26.5t65 -26.5t27 -64.5t-27 -65t-65 -27t-65 27zM288.5 595.5q14.5 14.5 14.5 34.5t-14.5 34t-34.5 14t-34.5 -14t-14.5 -34t14.5 -34.5t34.5 -14.5t34.5 14.5z" />
    <glyph glyph-name="ae" unicode="&#xe6;" horiz-adv-x="828" 
d="M782 225h-344q7 -68 46 -109t104 -41q54 0 96 15t89 45v-98q-49 -25 -93 -36.5t-100 -11.5q-97 0 -168 69q-50 -37 -98 -53t-105 -16q-74 0 -116.5 38t-42.5 99q0 87 86 126.5t203 45.5v18q0 93 -103 93q-41 0 -78.5 -15t-81.5 -45l-2 2l28 112q33 14 70.5 23t73.5 9
q52 0 94.5 -18.5t66.5 -58.5q28 37 69.5 57t90.5 20q70 0 118.5 -32.5t72.5 -87.5t24 -121v-29zM683 300q-5 50 -36 80t-82 30q-50 0 -82.5 -30t-42.5 -80h243zM299 81q39 13 69 41q-24 46 -29 107q-100 -10 -146 -34t-46 -65q0 -29 20 -45.5t59 -16.5q34 0 73 13z" />
    <glyph glyph-name="ccedilla" unicode="&#xe7;" horiz-adv-x="503" 
d="M229 384.5q-39 -20.5 -61.5 -57.5t-22.5 -84t22.5 -84.5t62.5 -58.5t89 -21q37 0 73 11.5t68 33.5v-104q-56 -26 -125 -31l-11 -23h5q37 0 62 -20t25 -49q0 -43 -38 -73t-111 -30q-40 0 -65 5v65q37 -8 72 -8q55 0 55 31q0 30 -55 30q-21 0 -34 -3l35 78q-65 9 -116.5 43
t-81 87.5t-29.5 117.5q0 72 34.5 130t94.5 91.5t134 33.5t149 -33v-107q-38 25 -72.5 37.5t-70.5 12.5q-49 0 -88 -20.5z" />
    <glyph glyph-name="egrave" unicode="&#xe8;" horiz-adv-x="550" 
d="M504 217h-357q7 -66 51 -104t112 -38q49 0 93 14.5t92 40.5v-100q-86 -41 -193 -41q-73 0 -130.5 32.5t-90.5 90t-33 130.5q0 71 31.5 129t86.5 91t123 33q65 0 113.5 -30t75 -86t26.5 -130v-32zM198.5 380q-35.5 -30 -47.5 -85h254q-5 53 -36 84t-82 31q-53 0 -88.5 -30
zM138 700h113l100 -143h-81z" />
    <glyph glyph-name="eacute" unicode="&#xe9;" horiz-adv-x="550" 
d="M504 217h-357q7 -66 51 -104t112 -38q49 0 93 14.5t92 40.5v-100q-86 -41 -193 -41q-73 0 -130.5 32.5t-90.5 90t-33 130.5q0 71 31.5 129t86.5 91t123 33q65 0 113.5 -30t75 -86t26.5 -130v-32zM198.5 380q-35.5 -30 -47.5 -85h254q-5 53 -36 84t-82 31q-53 0 -88.5 -30
zM299 700h113l-132 -143h-81z" />
    <glyph glyph-name="ecircumflex" unicode="&#xea;" horiz-adv-x="550" 
d="M504 217h-357q7 -66 51 -104t112 -38q49 0 93 14.5t92 40.5v-100q-86 -41 -193 -41q-73 0 -130.5 32.5t-90.5 90t-33 130.5q0 71 31.5 129t86.5 91t123 33q65 0 113.5 -30t75 -86t26.5 -130v-32zM198.5 380q-35.5 -30 -47.5 -85h254q-5 53 -36 84t-82 31q-53 0 -88.5 -30
zM221 695h108l92 -143h-66l-80 90l-81 -90h-65z" />
    <glyph glyph-name="edieresis" unicode="&#xeb;" horiz-adv-x="550" 
d="M504 217h-357q7 -66 51 -104t112 -38q49 0 93 14.5t92 40.5v-100q-86 -41 -193 -41q-73 0 -130.5 32.5t-90.5 90t-33 130.5q0 71 31.5 129t86.5 91t123 33q65 0 113.5 -30t75 -86t26.5 -130v-32zM198.5 380q-35.5 -30 -47.5 -85h254q-5 53 -36 84t-82 31q-53 0 -88.5 -30
zM109 612l67 68l70 -69l-70 -68zM304 612l67 68l70 -69l-70 -68z" />
    <glyph glyph-name="igrave" unicode="&#xec;" horiz-adv-x="256" 
d="M80 484h96v-484h-96v484zM-8 700h113l100 -143h-81z" />
    <glyph glyph-name="iacute" unicode="&#xed;" horiz-adv-x="256" 
d="M80 484h96v-484h-96v484zM153 700h113l-132 -143h-81z" />
    <glyph glyph-name="icircumflex" unicode="&#xee;" horiz-adv-x="256" 
d="M80 484h96v-484h-96v484zM75 695h108l92 -143h-66l-80 90l-81 -90h-65z" />
    <glyph glyph-name="idieresis" unicode="&#xef;" horiz-adv-x="256" 
d="M80 484h96v-484h-96v484zM-37 612l67 68l70 -69l-70 -68zM158 612l67 68l70 -69l-70 -68z" />
    <glyph glyph-name="eth" unicode="&#xf0;" horiz-adv-x="557" 
d="M467.5 422.5q41.5 -85.5 41.5 -174.5q0 -77 -30.5 -135.5t-86 -91t-127.5 -32.5q-62 0 -111.5 30t-77.5 82.5t-28 116.5q0 66 30 120.5t80.5 85.5t108.5 31q43 0 88 -18q-35 56 -82 100l-121 -63l-50 58l108 56q-26 19 -76 47l83 45q38 -20 76 -49l96 49l50 -57l-85 -44
q72 -71 113.5 -156.5zM372 122.5q39 47.5 39 124.5q0 39 -9 78q-58 44 -126 44q-56 0 -93.5 -38.5t-37.5 -104.5q0 -65 35.5 -108t89.5 -43q63 0 102 47.5z" />
    <glyph glyph-name="ntilde" unicode="&#xf1;" horiz-adv-x="601" 
d="M471.5 437q55.5 -58 55.5 -164v-273h-95v262q0 69 -33 106t-101 37q-35 0 -66.5 -11t-56.5 -28v-366h-95v484h94v-29q60 40 140 40q102 0 157.5 -58zM327.5 569q-16.5 7 -40.5 22q-18 11 -30.5 17t-24.5 6q-15 0 -25.5 -11t-20.5 -31l-48 41q15 38 38 59.5t60 21.5
q18 0 33.5 -6.5t41.5 -21.5q18 -12 31.5 -18t26.5 -6q17 0 27 12.5t18 34.5l51 -39q-27 -88 -102 -88q-19 0 -35.5 7z" />
    <glyph glyph-name="ograve" unicode="&#xf2;" horiz-adv-x="610" 
d="M175 22q-59 33 -93 90.5t-34 129.5t34 129.5t93 90.5t130 33t130 -33t93 -90.5t34 -129.5t-34 -129.5t-93 -90.5t-130 -33t-130 33zM385.5 100q36.5 21 58 58t21.5 84t-21.5 84t-58 58t-80.5 21t-80.5 -21t-58 -58t-21.5 -84t21.5 -84t58 -58t80.5 -21t80.5 21zM168 700
h113l100 -143h-81z" />
    <glyph glyph-name="oacute" unicode="&#xf3;" horiz-adv-x="610" 
d="M175 22q-59 33 -93 90.5t-34 129.5t34 129.5t93 90.5t130 33t130 -33t93 -90.5t34 -129.5t-34 -129.5t-93 -90.5t-130 -33t-130 33zM385.5 100q36.5 21 58 58t21.5 84t-21.5 84t-58 58t-80.5 21t-80.5 -21t-58 -58t-21.5 -84t21.5 -84t58 -58t80.5 -21t80.5 21zM329 700
h113l-132 -143h-81z" />
    <glyph glyph-name="ocircumflex" unicode="&#xf4;" horiz-adv-x="610" 
d="M175 22q-59 33 -93 90.5t-34 129.5t34 129.5t93 90.5t130 33t130 -33t93 -90.5t34 -129.5t-34 -129.5t-93 -90.5t-130 -33t-130 33zM385.5 100q36.5 21 58 58t21.5 84t-21.5 84t-58 58t-80.5 21t-80.5 -21t-58 -58t-21.5 -84t21.5 -84t58 -58t80.5 -21t80.5 21zM251 695
h108l92 -143h-66l-80 90l-81 -90h-65z" />
    <glyph glyph-name="otilde" unicode="&#xf5;" horiz-adv-x="610" 
d="M175 22q-59 33 -93 90.5t-34 129.5t34 129.5t93 90.5t130 33t130 -33t93 -90.5t34 -129.5t-34 -129.5t-93 -90.5t-130 -33t-130 33zM385.5 100q36.5 21 58 58t21.5 84t-21.5 84t-58 58t-80.5 21t-80.5 -21t-58 -58t-21.5 -84t21.5 -84t58 -58t80.5 -21t80.5 21z
M330.5 569q-16.5 7 -40.5 22q-18 11 -30.5 17t-24.5 6q-15 0 -25.5 -11t-20.5 -31l-48 41q15 38 38 59.5t60 21.5q18 0 33.5 -6.5t41.5 -21.5q18 -12 31.5 -18t26.5 -6q17 0 27 12.5t18 34.5l51 -39q-27 -88 -102 -88q-19 0 -35.5 7z" />
    <glyph glyph-name="odieresis" unicode="&#xf6;" horiz-adv-x="610" 
d="M175 22q-59 33 -93 90.5t-34 129.5t34 129.5t93 90.5t130 33t130 -33t93 -90.5t34 -129.5t-34 -129.5t-93 -90.5t-130 -33t-130 33zM385.5 100q36.5 21 58 58t21.5 84t-21.5 84t-58 58t-80.5 21t-80.5 -21t-58 -58t-21.5 -84t21.5 -84t58 -58t80.5 -21t80.5 21zM139 612
l67 68l70 -69l-70 -68zM334 612l67 68l70 -69l-70 -68z" />
    <glyph glyph-name="divide" unicode="&#xf7;" 
d="M74 376h400v-85h-400v85zM201 157l74 74l73 -74l-73 -73zM201 511l74 74l73 -74l-73 -73z" />
    <glyph glyph-name="oslash" unicode="&#xf8;" horiz-adv-x="610" 
d="M542 342.5q20 -46.5 20 -100.5q0 -72 -34 -129.5t-93 -90.5t-130 -33q-74 0 -135 36l-47 -60l-45 37l46 58q-36 35 -56 81.5t-20 100.5q0 72 34 129.5t93 90.5t130 33q74 0 135 -36l47 59l45 -37l-45 -57q35 -35 55 -81.5zM183 134l199 252q-35 19 -77 19
q-44 0 -80.5 -21t-58 -58t-21.5 -84q0 -64 38 -108zM385.5 100q36.5 21 58 58t21.5 84q0 64 -37 107l-200 -251q36 -19 77 -19q44 0 80.5 21z" />
    <glyph glyph-name="ugrave" unicode="&#xf9;" horiz-adv-x="601" 
d="M521 484v-484h-94v29q-60 -40 -140 -40q-102 0 -157.5 58t-55.5 164v273h95v-262q0 -69 33 -106t101 -37q35 0 66.5 11t56.5 28v366h95zM164 700h113l100 -143h-81z" />
    <glyph glyph-name="uacute" unicode="&#xfa;" horiz-adv-x="601" 
d="M521 484v-484h-94v29q-60 -40 -140 -40q-102 0 -157.5 58t-55.5 164v273h95v-262q0 -69 33 -106t101 -37q35 0 66.5 11t56.5 28v366h95zM325 700h113l-132 -143h-81z" />
    <glyph glyph-name="ucircumflex" unicode="&#xfb;" horiz-adv-x="601" 
d="M521 484v-484h-94v29q-60 -40 -140 -40q-102 0 -157.5 58t-55.5 164v273h95v-262q0 -69 33 -106t101 -37q35 0 66.5 11t56.5 28v366h95zM247 695h108l92 -143h-66l-80 90l-81 -90h-65z" />
    <glyph glyph-name="udieresis" unicode="&#xfc;" horiz-adv-x="601" 
d="M521 484v-484h-94v29q-60 -40 -140 -40q-102 0 -157.5 58t-55.5 164v273h95v-262q0 -69 33 -106t101 -37q35 0 66.5 11t56.5 28v366h95zM135 612l67 68l70 -69l-70 -68zM330 612l67 68l70 -69l-70 -68z" />
    <glyph glyph-name="yacute" unicode="&#xfd;" horiz-adv-x="541" 
d="M526 484l-235 -564q-19 -47 -58 -76.5t-99 -29.5q-25 0 -35 1v82q9 -1 33 -1q59 0 83 59l14 34l-214 495h104l156 -381l147 381h104zM294 700h113l-132 -143h-81z" />
    <glyph glyph-name="thorn" unicode="&#xfe;" horiz-adv-x="602" 
d="M434.5 462.5q56.5 -32.5 88 -90t31.5 -130.5t-32.5 -130.5t-91 -90t-132.5 -32.5q-34 0 -66.5 7.5t-56.5 23.5v-206h-95v853h95v-210q27 19 61.5 28.5t69.5 9.5q72 0 128.5 -32.5zM374.5 97q38.5 21 60.5 59t22 86q0 47 -21.5 84t-60 58t-87.5 21q-57 0 -113 -37v-256
q22 -15 52 -25.5t60 -10.5q49 0 87.5 21z" />
    <glyph glyph-name="ydieresis" unicode="&#xff;" horiz-adv-x="541" 
d="M526 484l-235 -564q-19 -47 -58 -76.5t-99 -29.5q-25 0 -35 1v82q9 -1 33 -1q59 0 83 59l14 34l-214 495h104l156 -381l147 381h104zM104 612l67 68l70 -69l-70 -68zM299 612l67 68l70 -69l-70 -68z" />
    <glyph glyph-name="dotlessi" unicode="&#x131;" horiz-adv-x="256" 
d="M80 484h96v-484h-96v484z" />
    <glyph glyph-name="Ldot" unicode="&#x13f;" horiz-adv-x="543" 
d="M95 667h102v-572h321v-95h-423v667zM340 394l74 74l73 -74l-73 -73z" />
    <glyph glyph-name="ldot" unicode="&#x140;" horiz-adv-x="342" 
d="M112.5 29.5q-38.5 40.5 -38.5 122.5v515h95v-513q0 -39 17 -58t49 -19q37 0 71 16v-90q-40 -14 -85 -14q-70 0 -108.5 40.5zM219 354l74 74l73 -74l-73 -73z" />
    <glyph glyph-name="OE" unicode="&#x152;" horiz-adv-x="1101" 
d="M230.5 33.5q-80.5 46.5 -127 126t-46.5 174.5t46.5 174.5t126.5 125.5t176 46q68 0 128 -25.5t104 -73.5v86h404v-93h-302v-169h227v-93h-227v-219h318v-93h-420v86q-44 -48 -104 -73.5t-128 -25.5q-95 0 -175.5 46.5zM528.5 114.5q52.5 32.5 81 90t28.5 129.5
q0 74 -28.5 131t-81 88.5t-122.5 31.5q-71 0 -126.5 -32t-87 -89t-31.5 -130t31.5 -130.5t87 -89.5t126.5 -32q70 0 122.5 32.5z" />
    <glyph glyph-name="oe" unicode="&#x153;" horiz-adv-x="954" 
d="M908 220h-348q9 -66 49 -105.5t105 -39.5q54 0 96 15t89 45v-98q-49 -25 -93 -36.5t-100 -11.5q-64 0 -115 28t-81 77q-37 -51 -89.5 -78t-115.5 -27q-70 0 -129 33t-93.5 90.5t-34.5 129.5t34.5 129.5t93.5 90.5t129 33q62 0 116.5 -28t89.5 -78q29 50 76 78t106 28
q70 0 118.5 -33t72.5 -89t24 -124v-29zM809 295q-5 53 -36 84t-82 31t-84.5 -32t-44.5 -83h247zM385.5 100q36.5 21 58 58t21.5 84t-21.5 84t-58 58t-80.5 21t-80.5 -21t-58 -58t-21.5 -84t21.5 -84t58 -58t80.5 -21t80.5 21z" />
    <glyph glyph-name="Scaron" unicode="&#x160;" horiz-adv-x="510" 
d="M115.5 23.5q-51.5 36.5 -90.5 105.5l80 54q24 -50 59 -75.5t76 -25.5q52 0 86 29t34 76q0 33 -18 57.5t-44 41t-72 38.5q-54 26 -87 47.5t-56 56.5t-23 85q0 48 22.5 86t63.5 59.5t94 21.5q114 0 175 -90l-77 -56q-17 25 -42 39t-56 14q-35 0 -56 -18t-21 -46
q0 -34 28 -56.5t89 -52.5q59 -29 95.5 -53.5t63 -65t26.5 -98.5t-29 -106t-80.5 -76t-115.5 -28q-73 0 -124.5 36.5zM111 855h66l80 -90l81 90h65l-92 -143h-108z" />
    <glyph glyph-name="scaron" unicode="&#x161;" horiz-adv-x="480" 
d="M135.5 0q-46.5 11 -83.5 29v108q39 -29 86 -45.5t96 -16.5q105 0 105 60q0 28 -23.5 46.5t-84.5 29.5q-65 12 -103 28.5t-56 43.5t-18 70q0 64 53 103t135 39q78 0 154 -29v-102q-67 46 -154 46q-43 0 -67.5 -12.5t-24.5 -34.5q0 -26 20.5 -38t76.5 -23q61 -12 101 -28.5
t63.5 -48.5t23.5 -84q0 -70 -52 -111t-149 -41q-52 0 -98.5 11zM93 695h66l80 -90l81 90h65l-92 -143h-108z" />
    <glyph glyph-name="Ydieresis" unicode="&#x178;" horiz-adv-x="601" 
d="M252 311l-237 356h117l173 -266l169 266h112l-232 -356v-311h-102v311zM137 785l67 68l70 -69l-70 -68zM332 785l67 68l70 -69l-70 -68z" />
    <glyph glyph-name="Zcaron" unicode="&#x17d;" horiz-adv-x="626" 
d="M421 574h-372v93h552l-396 -574h396v-93h-576zM170 855h66l80 -90l81 90h65l-92 -143h-108z" />
    <glyph glyph-name="zcaron" unicode="&#x17e;" horiz-adv-x="474" 
d="M284 396h-232v88h401l-260 -396h240v-88h-412zM92 695h66l80 -90l81 90h65l-92 -143h-108z" />
    <glyph glyph-name="florin" unicode="&#x192;" horiz-adv-x="449" 
d="M300.5 572q-17.5 -22 -25.5 -70l-13 -81h113l-14 -90h-113l-57 -366q-12 -74 -51.5 -112.5t-112.5 -38.5q-51 0 -107 33l29 80q40 -27 81 -27q34 0 50 21t26 78l52 332h-59l15 90h58l13 86q14 92 56.5 132.5t110.5 40.5q43 0 87 -17l-30 -82q-30 13 -57 13
q-34 0 -51.5 -22z" />
    <glyph glyph-name="uni0237" unicode="&#x237;" horiz-adv-x="256" 
d="M-18 -181v90q19 -5 38 -5q35 0 48 21.5t13 71.5v487h95v-499q0 -82 -37 -126.5t-105 -44.5q-32 0 -52 5z" />
    <glyph glyph-name="gravecomb" unicode="&#x300;" horiz-adv-x="0" 
d="M-243 700h113l100 -143h-81z" />
    <glyph glyph-name="acutecomb" unicode="&#x301;" horiz-adv-x="0" 
d="M-143 700h113l-132 -143h-81z" />
    <glyph glyph-name="uni0302" unicode="&#x302;" horiz-adv-x="0" 
d="M-230 695h108l92 -143h-66l-80 90l-81 -90h-65z" />
    <glyph glyph-name="tildecomb" unicode="&#x303;" horiz-adv-x="0" 
d="M-167.5 569q-16.5 7 -40.5 22q-18 11 -30.5 17t-24.5 6q-15 0 -25.5 -11t-20.5 -31l-48 41q15 38 38 59.5t60 21.5q18 0 33.5 -6.5t41.5 -21.5q18 -12 31.5 -18t26.5 -6q17 0 27 12.5t18 34.5l51 -39q-27 -88 -102 -88q-19 0 -35.5 7z" />
    <glyph glyph-name="uni0307" unicode="&#x307;" horiz-adv-x="0" 
d="M-167 612l69 68l68 -68l-68 -69z" />
    <glyph glyph-name="uni0308" unicode="&#x308;" horiz-adv-x="0" 
d="M-362 612l67 68l70 -69l-70 -68zM-167 612l67 68l70 -69l-70 -68z" />
    <glyph glyph-name="uni030A" unicode="&#x30a;" horiz-adv-x="0" 
d="M-187 565q-27 27 -27 65t27 64.5t65 26.5t65 -26.5t27 -64.5t-27 -65t-65 -27t-65 27zM-87.5 595.5q14.5 14.5 14.5 34.5t-14.5 34t-34.5 14t-34.5 -14t-14.5 -34t14.5 -34.5t34.5 -14.5t34.5 14.5z" />
    <glyph glyph-name="uni030C" unicode="&#x30c;" horiz-adv-x="0" 
d="M-322 695h66l80 -90l81 90h65l-92 -143h-108z" />
    <glyph glyph-name="endash" unicode="&#x2013;" horiz-adv-x="500" 
d="M-6 314h512v-86h-512v86z" />
    <glyph glyph-name="emdash" unicode="&#x2014;" horiz-adv-x="1000" 
d="M-6 314h1012v-86h-1012v86z" />
    <glyph glyph-name="quoteleft" unicode="&#x2018;" horiz-adv-x="249" 
d="M185 673q-37 -39 -37 -76q0 -32 27 -59l23 -23l-74 -74l-21 21q-36 36 -36 78q0 39 34 78.5t78 61.5z" />
    <glyph glyph-name="quoteright" unicode="&#x2019;" horiz-adv-x="249" 
d="M64 448q37 39 37 76q0 32 -27 59l-23 23l74 74l21 -21q36 -36 36 -78q0 -39 -34 -78.5t-78 -61.5z" />
    <glyph glyph-name="quotesinglbase" unicode="&#x201a;" horiz-adv-x="249" 
d="M64 -98q37 39 37 76q0 32 -27 59l-23 23l74 74l21 -21q36 -36 36 -78q0 -39 -34 -78.5t-78 -61.5z" />
    <glyph glyph-name="quotedblleft" unicode="&#x201c;" horiz-adv-x="406" 
d="M185 673q-37 -39 -37 -76q0 -32 27 -59l23 -23l-74 -74l-21 21q-36 36 -36 78q0 39 34 78.5t78 61.5zM342 673q-37 -39 -37 -76q0 -32 27 -59l23 -23l-74 -74l-21 21q-36 36 -36 78q0 39 34 78.5t78 61.5z" />
    <glyph glyph-name="quotedblright" unicode="&#x201d;" horiz-adv-x="406" 
d="M64 448q37 39 37 76q0 32 -27 59l-23 23l74 74l21 -21q36 -36 36 -78q0 -39 -34 -78.5t-78 -61.5zM221 448q37 39 37 76q0 32 -27 59l-23 23l74 74l21 -21q36 -36 36 -78q0 -39 -34 -78.5t-78 -61.5z" />
    <glyph glyph-name="quotedblbase" unicode="&#x201e;" horiz-adv-x="406" 
d="M64 -148q37 39 37 76q0 32 -27 59l-23 23l74 74l21 -21q36 -36 36 -78q0 -39 -34 -78.5t-78 -61.5zM221 -148q37 39 37 76q0 32 -27 59l-23 23l74 74l21 -21q36 -36 36 -78q0 -39 -34 -78.5t-78 -61.5z" />
    <glyph glyph-name="dagger" unicode="&#x2020;" horiz-adv-x="422" 
d="M179 416l-154 -25v103l154 -23l-21 196h105l-21 -196l155 23v-103l-155 25l26 -602h-115z" />
    <glyph glyph-name="daggerdbl" unicode="&#x2021;" horiz-adv-x="421" 
d="M175 15l-150 -20v97l152 -19l-15 173l15 170l-152 -25v102l152 -22l-19 196h104l-18 -196l152 22v-102l-152 25l15 -170l-15 -173l152 19v-97l-149 20l16 -201h-105z" />
    <glyph glyph-name="bullet" unicode="&#x2022;" horiz-adv-x="424" 
d="M85 306l127 127l127 -127l-127 -127z" />
    <glyph glyph-name="ellipsis" unicode="&#x2026;" horiz-adv-x="915" 
d="M51 60l74 74l73 -74l-73 -73zM384 60l74 74l73 -74l-73 -73zM717 60l74 74l73 -74l-73 -73z" />
    <glyph glyph-name="perthousand" unicode="&#x2030;" horiz-adv-x="1086" 
d="M122.5 407.5q-33.5 19.5 -53 53t-19.5 73.5t19.5 73.5t53 53t73.5 19.5t73.5 -19.5t53 -53t19.5 -73.5t-19.5 -73.5t-53 -53t-73.5 -19.5t-73.5 19.5zM242 -13h-81l347 693h81zM245 485.5q20 20.5 20 48.5q0 29 -20 49t-49 20q-28 0 -48.5 -20t-20.5 -49
q0 -28 20.5 -48.5t48.5 -20.5q29 0 49 20.5zM623.5 262.5q33.5 -19.5 53 -53t19.5 -73.5t-19.5 -73.5t-53 -53t-73.5 -19.5t-73.5 19.5t-53 53t-19.5 73.5t19.5 73.5t53 53t73.5 19.5t73.5 -19.5zM963.5 262.5q33.5 -19.5 53 -53t19.5 -73.5t-19.5 -73.5t-53 -53
t-73.5 -19.5t-73.5 19.5t-53 53t-19.5 73.5t19.5 73.5t53 53t73.5 19.5t73.5 -19.5zM501.5 185q-20.5 -20 -20.5 -49q0 -28 20.5 -48.5t48.5 -20.5q29 0 49 20.5t20 48.5q0 29 -20 49t-49 20q-28 0 -48.5 -20zM841.5 185q-20.5 -20 -20.5 -49q0 -28 20.5 -48.5t48.5 -20.5
q29 0 49 20.5t20 48.5q0 29 -20 49t-49 20q-28 0 -48.5 -20z" />
    <glyph glyph-name="guilsinglleft" unicode="&#x2039;" horiz-adv-x="354" 
d="M45 271l166 213h98l-167 -213l167 -206h-98z" />
    <glyph glyph-name="guilsinglright" unicode="&#x203a;" horiz-adv-x="354" 
d="M45 65l167 206l-167 213h98l166 -213l-166 -206h-98z" />
    <glyph glyph-name="fraction" unicode="&#x2044;" horiz-adv-x="125" 
d="M194 680h81l-347 -693h-81z" />
    <glyph glyph-name="uni2074" unicode="&#x2074;" horiz-adv-x="407" 
d="M254 341h-236l316 339v-275h45v-64h-45v-78h-80v78zM260 405v109l-102 -109h102z" />
    <glyph glyph-name="Euro" unicode="&#x20ac;" horiz-adv-x="629" 
d="M274 551.5q-51 -35.5 -76 -97.5h271l-17 -78h-272q-2 -24 -2 -37q0 -15 2 -41h256l-17 -78h-221q25 -66 76 -103t124 -37q45 0 84.5 10.5t89.5 38.5v-105q-89 -37 -176 -37q-110 0 -192 64.5t-113 168.5h-71l17 78h39q-2 24 -2 37q0 15 2 41h-56l17 78h55
q32 102 112.5 164t189.5 62q92 0 178 -37v-105q-49 27 -85.5 38t-89.5 11q-72 0 -123 -35.5z" />
    <glyph glyph-name="afii61352" unicode="&#x2116;" horiz-adv-x="1073" 
d="M775.5 407.5q-33.5 19.5 -53 53t-19.5 73.5t19.5 73.5t53 53t73.5 19.5t73.5 -19.5t53 -53t19.5 -73.5t-19.5 -73.5t-53 -53t-73.5 -19.5t-73.5 19.5zM95 667h109l298 -492v492h102v-667h-112l-295 488v-488h-102v667zM898 485.5q20 20.5 20 48.5q0 29 -20 49t-49 20
q-28 0 -48.5 -20t-20.5 -49q0 -28 20.5 -48.5t48.5 -20.5q29 0 49 20.5zM702 291h323v-81h-323v81z" />
    <glyph glyph-name="trademark" unicode="&#x2122;" horiz-adv-x="824" 
d="M136 608h-123v59h317v-59h-120v-321h-74v321zM377 667h70l130 -151l129 151h70v-380h-73v275l-126 -152l-127 152v-275h-73v380z" />
    <glyph glyph-name="minus" unicode="&#x2212;" 
d="M68 376h400v-85h-400v85z" />
    <glyph glyph-name="uniFEFF" unicode="&#xfeff;" horiz-adv-x="0" 
 />
    <glyph glyph-name="i.locl" horiz-adv-x="256" 
d="M80 484h96v-484h-96v484zM60 612l69 68l68 -68l-68 -69z" />
    <glyph glyph-name="zero.aalt" 
d="M149.5 29q-50.5 42 -77.5 120t-27 184t27 184.5t77.5 120.5t118.5 42t118.5 -42t77.5 -120.5t27 -184.5t-27 -184t-77.5 -120t-118.5 -42t-118.5 42zM359 145.5q32 65.5 32 187.5t-32 188t-91 66t-91 -66t-32 -188t32 -187.5t91 -65.5t91 65.5z" />
    <glyph glyph-name="one.tnum" 
d="M219 612l98 68v-680h-98v612z" />
    <glyph glyph-name="two.tnum" 
d="M291 354q30 46 43 76t13 58q0 44 -28 71.5t-75 27.5q-87 0 -164 -103h-3v114q33 40 75.5 61t91.5 21q92 0 147.5 -52t55.5 -137q0 -41 -16 -83.5t-49 -94.5l-144 -220h223v-93h-401z" />
    <glyph glyph-name="three.tnum" 
d="M121.5 9.5q-48.5 22.5 -89.5 64.5l61 71q55 -68 140 -68q66 0 106 38.5t40 95.5q0 58 -40.5 97.5t-113.5 39.5q-37 0 -70 -12l150 238h-253v93h421l-158 -249q71 -15 117.5 -69t46.5 -134q0 -59 -28.5 -111t-84 -84.5t-133.5 -32.5q-63 0 -111.5 22.5z" />
    <glyph glyph-name="four.tnum" 
d="M341 172h-341l438 508v-428h91v-80h-91v-172h-97v172zM341 252v199l-171 -199h171z" />
    <glyph glyph-name="five.aalt" 
d="M369.5 406.5q51.5 -28.5 79.5 -78.5t28 -113q0 -62 -29.5 -114t-84 -83t-124.5 -31q-63 0 -114 23.5t-99 67.5l56 75q28 -34 68.5 -55t88.5 -21q61 0 100.5 37t39.5 100q0 68 -46.5 103.5t-109.5 35.5q-28 0 -60.5 -7t-58.5 -19l34 340h347l-41 -93h-218l-16 -143
q17 4 41 4q67 0 118.5 -28.5z" />
    <glyph glyph-name="six.aalt" 
d="M391.5 391.5q46.5 -28.5 70 -76t23.5 -104.5t-26.5 -108.5t-77.5 -83.5t-120 -32q-66 0 -115 32.5t-75 88.5t-26 123q0 117 58.5 232t163.5 204h139q-84 -69 -140.5 -134t-86.5 -134q50 21 99 21q67 0 113.5 -28.5zM353 116q34 36 34 92q0 57 -34 88t-84 31
q-63 0 -120 -31q-5 -35 -5 -65q0 -61 33.5 -106t89.5 -45q52 0 86 36z" />
    <glyph glyph-name="seven.aalt" 
d="M356 574h-276v93h421l-300 -667h-111z" />
    <glyph glyph-name="eight.aalt" 
d="M155 12.5q-48 25.5 -76 70t-28 100.5q0 106 126 178q-91 54 -91 151q0 47 24 85.5t65.5 60.5t93.5 22q51 0 92 -21.5t64.5 -58.5t23.5 -82q0 -96 -95 -150q64 -34 97 -76t33 -109q0 -56 -29.5 -100.5t-80 -70t-112.5 -25.5q-59 0 -107 25.5zM332.5 454.5
q23.5 27.5 23.5 59.5q0 33 -25 55.5t-64 22.5q-38 0 -63 -22t-25 -56q0 -32 25 -59t67 -45q38 17 61.5 44.5zM350 108q34 28 34 75q0 46 -32.5 76.5t-88.5 55.5q-50 -19 -81 -52t-31 -80q0 -45 33 -74t82 -29q50 0 84 28z" />
    <glyph glyph-name="nine.aalt" 
d="M388 647.5q49 -32.5 75 -88.5t26 -123q0 -117 -58.5 -232t-163.5 -204h-139q84 69 140.5 134t86.5 134q-50 -21 -99 -21q-67 0 -113.5 28.5t-70 76t-23.5 104.5t26.5 108.5t77.5 83.5t120 32q66 0 115 -32.5zM385 371q5 35 5 65q0 61 -33.5 106t-89.5 45q-52 0 -86 -36
t-34 -92q0 -57 34 -88t84 -31q63 0 120 31z" />
    <glyph glyph-name="uni0308.aalt" horiz-adv-x="0" 
d="M-362 785l67 68l70 -69l-70 -68zM-167 785l67 68l70 -69l-70 -68z" />
    <glyph glyph-name="uni0307.aalt" horiz-adv-x="0" 
d="M-167 785l69 68l68 -68l-68 -69z" />
    <glyph glyph-name="gravecomb.aalt" horiz-adv-x="0" 
d="M-243 860h113l100 -143h-81z" />
    <glyph glyph-name="acutecomb.aalt" horiz-adv-x="0" 
d="M-143 860h113l-132 -143h-81z" />
    <glyph glyph-name="uni0302.aalt" horiz-adv-x="0" 
d="M-230 855h108l92 -143h-66l-80 90l-81 -90h-65z" />
    <glyph glyph-name="uni030C.aalt" horiz-adv-x="0" 
d="M-322 855h66l80 -90l81 90h65l-92 -143h-108z" />
    <glyph glyph-name="uni030A.aalt" horiz-adv-x="0" 
d="M-187 725q-27 27 -27 65t27 64.5t65 26.5t65 -26.5t27 -64.5t-27 -65t-65 -27t-65 27zM-87.5 755.5q14.5 14.5 14.5 34.5t-14.5 34t-34.5 14t-34.5 -14t-14.5 -34t14.5 -34.5t34.5 -14.5t34.5 14.5z" />
    <glyph glyph-name="tildecomb.aalt" horiz-adv-x="0" 
d="M-167.5 729q-16.5 7 -40.5 22q-18 11 -30.5 17t-24.5 6q-15 0 -25.5 -11t-20.5 -31l-48 41q15 38 38 59.5t60 21.5q18 0 33.5 -6.5t41.5 -21.5q18 -12 31.5 -18t26.5 -6q17 0 27 12.5t18 34.5l51 -39q-27 -88 -102 -88q-19 0 -35.5 7z" />
    </font>
</defs>
</svg>
