<svg xmlns="http://www.w3.org/2000/svg" viewBox="0 0 64 64" width="32" height="32" role="img" aria-labelledby="title">
  <title id="title">TrackStack icon</title>
  <g transform="scale(0.9) translate(3.55 3.55)">
    <g fill="none" stroke="#0019A8" stroke-width="3" stroke-linecap="round" stroke-linejoin="round">
      <circle cx="32" cy="32" r="28"/>
      <circle cx="32" cy="32" r="20"/>

      <line x1="52" y1="32" x2="60" y2="32"/>
      <line x1="32" y1="52" x2="32" y2="60"/>
      <line x1="12" y1="32" x2="4"  y2="32"/>
      <line x1="32" y1="12" x2="32" y2="4"/>

      <line x1="46.14" y1="46.14" x2="51.8" y2="51.8"/>
      <line x1="17.86" y1="17.86" x2="12.2" y2="12.2"/>
      <line x1="17.86" y1="46.14" x2="12.2" y2="51.8"/>
      <line x1="46.14" y1="17.86" x2="51.8" y2="12.2"/>
    </g>

    <circle cx="32" cy="32" r="6" fill="#0019A8"/>

    <g fill="#0019A8" stroke="none">
      <circle cx="63"    cy="32"    r="3"/>
      <circle cx="53.92" cy="53.92" r="3"/>
      <circle cx="32"    cy="63"    r="3"/>
      <circle cx="10.08" cy="53.92" r="3"/>
      <circle cx="1"     cy="32"    r="3"/>
      <circle cx="10.08" cy="10.08" r="3"/>
      <circle cx="32"    cy="1"     r="3"/>
      <circle cx="53.92" cy="10.08" r="3"/>
    </g>
  </g>
</svg>
